<svg width="125" height="29" viewBox="0 0 125 29" fill="none" xmlns="http://www.w3.org/2000/svg">
<g id="Venkat">
<path d="M12.24 24.48L20.28 0H24.32L14.36 28.24H10L0 0H4.12L12.24 24.48Z" fill="#F90000"/>
<path d="M33.1856 7.36C39.2256 7.36 42.7456 12.16 42.5456 19H27.1456C27.4656 23.72 30.1456 25.72 33.8256 25.72C36.8256 25.72 38.1056 24.2 38.9456 21.64L42.2256 22.8C40.9056 26.32 38.5456 28.72 33.7456 28.72C27.1456 28.72 23.7456 24.36 23.7456 17.96C23.7456 12.16 27.5456 7.36 33.1856 7.36ZM33.1856 10.36C30.2256 10.36 27.8656 12.52 27.2656 16.12H39.0256C38.4656 12.44 36.3056 10.36 33.1856 10.36Z" fill="#F90000"/>
<path d="M56.6531 7.36C61.3731 7.36 63.9331 10.24 63.9331 15.68V28.24H60.5331V15.72C60.5331 12.12 59.0131 10.36 56.1731 10.36C52.6931 10.36 50.4531 13.16 50.4531 17.52V28.24H47.0531V7.84H50.2531V11.16C51.4931 8.84 53.8131 7.36 56.6531 7.36Z" fill="#F90000"/>
<path d="M72.5663 18.04H75.9662V21.44H72.5663V28.24H69.1663V0H72.5663V18.04ZM82.7663 7.84H86.1663V11.24H82.7663V7.84ZM79.3662 11.24H82.7663V14.64H79.3662V11.24ZM75.9662 18.04V14.64H79.3662V18.04H75.9662ZM82.7663 24.84H79.3662V18.04H82.7663V24.84ZM86.1663 24.84V28.24H82.7663V24.84H86.1663Z" fill="#F90000"/>
<path d="M106.772 15.12V25.24H108.573V28.24H103.372V24.36C102.012 26.92 99.4525 28.56 96.0925 28.56C92.3725 28.56 89.7325 26.36 89.7325 22.64C89.7325 17.52 94.7725 16 103.372 15.76V14.76C103.372 11.52 101.213 10.36 98.5325 10.36C95.5325 10.36 94.4525 12.04 93.7725 14.2L90.5725 13.12C91.4125 9.72 94.3325 7.36 98.7725 7.36C103.413 7.36 106.772 9.68 106.772 15.12ZM96.8125 25.56C100.693 25.56 103.132 22.2 103.372 18.56C97.3725 18.72 93.2125 19.2 93.2125 22.64C93.2125 24.48 94.7325 25.56 96.8125 25.56Z" fill="#F90000"/>
<path d="M123.78 24.04L124.94 26.72C123.26 27.88 121.46 28.6 119.22 28.6C115.9 28.6 113.94 26.52 113.94 22.52V10.84H110.14V7.84H113.94V2.08H117.34V7.84H124.06V10.84H117.34V22.4C117.34 24.88 118.34 25.6 119.86 25.6C121.14 25.6 122.38 25.08 123.78 24.04Z" fill="#F90000"/>
</g>
</svg>
