<svg width="62" height="96" viewBox="0 0 62 96" fill="none" xmlns="http://www.w3.org/2000/svg">
<g id="Beach octopus">
<path id="Vector 128" d="M16.4006 23.6707C16.4006 23.6812 16.4987 23.4667 16.8872 22.6367C17.6412 21.0257 18.3049 19.0164 18.5345 17.2981C18.6873 16.1549 18.5424 15.4029 18.4233 14.8662C18.1913 13.8212 16.293 12.471 15.3897 11.8674C14.3041 11.142 11.3194 11.1747 9.66072 11.4056C7.87289 11.6544 6.28254 12.3756 5.20902 12.5198C4.14376 12.663 3.37716 12.5066 2.9748 12.3319C2.08488 11.9455 1.44955 10.9024 1.01839 9.84186C0.059377 7.48291 0.652065 5.5473 1.04036 4.43751C1.60306 2.82926 2.89673 1.96038 4.35451 1.08486C5.54927 0.367308 8.21268 0.441373 9.08881 0.622687C9.2959 1.13766 9.51485 1.63125 9.77292 2.09056C9.81672 2.21918 9.84591 2.3519 9.91817 2.86821" stroke="#EF1D26" stroke-linecap="round"/>
<path id="Vector 129" d="M10.0775 3.0782C9.90695 3.0782 9.43154 3.11095 9.09599 3.09261C8.79391 3.0761 8.75084 2.63243 8.67268 2.40587C8.40155 1.62 6.51396 2.25171 5.55175 2.7805C4.99077 3.08879 4.86405 3.77233 4.51241 4.78112C4.31094 5.3591 4.635 6.01573 4.96709 6.53998C5.33594 7.12227 6.04961 7.28568 8.86509 8.27038C10.6033 8.87831 12.6551 8.2004 14.4481 7.7358C16.487 7.20748 18.4302 7.07985 20.0561 7.35035C20.8229 7.47792 21.3134 7.97463 21.834 8.44167C22.8529 9.35571 23.8143 10.7498 24.5724 12.0557C25.8564 14.2675 25.7821 16.8667 25.5868 18.0616C25.3726 19.3722 24.6563 20.2429 23.0145 22.7959C22.6358 23.3681 22.4381 23.6563 22.2773 23.8918C22.1166 24.1274 21.9988 24.3015 21.8774 24.4809" stroke="#EF1D26" stroke-linecap="round"/>
<path id="Vector 130" d="M14.6531 21.957C14.1962 21.957 12.5939 22.286 11.9429 22.7699C11.8245 22.8578 11.7328 22.983 11.6833 23.1111C11.6464 23.3859 11.7257 23.6641 11.8792 23.9022C11.9663 24.0132 12.0722 24.1042 12.4663 24.345" stroke="#EF1D26" stroke-linecap="round"/>
<path id="Vector 131" d="M14.4932 26.8418C14.6393 26.8691 15.2944 26.9832 16.5345 27.6044C18.4761 28.5769 21.7186 28.5253 22.7006 28.5431C23.0422 28.5048 23.2707 28.3714 23.529 28.1186C23.7044 27.9687 23.9697 27.7749 24.384 27.5119" stroke="#EF1D26" stroke-linecap="round"/>
<path id="Vector 132" d="M24.3657 23.5889C24.5134 23.5933 25.0932 23.7467 25.5959 24.0002C25.6834 24.0913 25.7189 24.2192 25.7427 24.4166C25.7666 24.614 25.7778 24.8769 25.6762 25.2871" stroke="#EF1D26" stroke-linecap="round"/>
<path id="Vector 133" d="M19.7812 19.9192C19.7685 20.1968 19.8168 20.8426 19.9961 21.0162C20.1744 21.1888 20.5378 21.0509 20.85 20.9402C21.1521 20.8331 21.3178 20.537 21.4255 20.2527C21.4824 20.1026 21.4696 19.9177 21.4086 19.7916C21.2198 19.5982 20.9571 19.5049 20.6678 19.4686C20.5096 19.4563 20.3282 19.4563 19.9612 19.6183" stroke="#EF1D26" stroke-linecap="round"/>
<path id="Vector 139" d="M24.6329 16.6362C24.4266 16.6111 23.4956 16.5601 22.8652 16.7173C22.621 16.7782 22.7018 17.2874 22.7448 17.6637C22.764 17.8326 22.877 17.9381 23.0022 18.0105C23.2645 18.162 23.5885 18.1527 23.8324 18.1061C24.1271 17.6802 24.2189 17.232 24.1727 16.9486C24.1241 16.8208 24.0241 16.7256 23.9211 16.6275" stroke="#EF1D26" stroke-linecap="round"/>
<path id="Vector 140" d="M33.2485 26.2825C33.2546 25.842 33.485 24.5815 34.55 23.2412C35.3181 22.2746 37.5434 21.6297 39.5083 21.2875C40.8602 21.0521 41.8252 21.3098 42.3547 21.659C44.3703 22.9885 44.7102 24.3399 44.9915 25.1912C45.0584 25.4834 45.1409 25.9289 45.1834 26.4007C45.2259 26.8725 45.2259 27.3571 45.2259 27.8563" stroke="#EF1D26" stroke-linecap="round"/>
<path id="Vector 141" d="M40.931 27.0352C40.8714 26.9117 40.4573 26.5187 39.9462 26.1903C39.7 26.0322 39.0382 26.1048 38.2444 26.1533C37.7619 26.2986 37.5089 26.4969 37.3471 26.7054C37.2735 26.8154 37.2174 26.9341 37.2114 27.1257" stroke="#EF1D26" stroke-linecap="round"/>
<path id="Vector 142" d="M35.4458 23.8995C35.4553 23.909 35.565 24.0298 35.788 24.2399C36.0036 24.4429 36.3548 24.474 36.6798 24.4165C36.8271 24.3905 36.9015 24.2442 36.9519 24.0298C37.0023 23.8154 37.0169 23.505 36.9661 23.2951C36.9152 23.0853 36.7984 22.9855 36.6533 22.9312C36.338 22.8712 36.0233 22.943 35.7617 23.1027C35.6395 23.1846 35.5391 23.2685 35.4355 23.3548" stroke="#EF1D26" stroke-linecap="round"/>
<path id="Vector 143" d="M42.5903 23.711C42.6051 23.909 42.7188 24.3969 42.9037 24.6066C42.9953 24.7105 43.1212 24.7718 43.2446 24.7618C43.5145 24.74 43.7008 24.4554 43.8288 24.2107C43.8966 24.0808 43.9115 23.9128 43.8884 23.7679C43.8652 23.6231 43.7885 23.4997 43.6844 23.4124C43.5803 23.3252 43.4512 23.2779 43.3179 23.2437C43.1847 23.2095 43.0513 23.19 42.616 23.1699" stroke="#EF1D26" stroke-linecap="round"/>
<path id="Vector 144" d="M40.0244 22.0561C39.861 22.0726 39.4744 22.1877 39.2715 22.3756C39.171 22.4687 39.1321 22.6104 39.1537 22.7271C39.1753 22.8439 39.2731 22.9451 39.5735 22.9972C39.874 23.0493 40.3742 23.0493 40.6262 22.9697C40.8783 22.8901 40.8671 22.7309 40.8155 22.5988C40.7639 22.4667 40.6723 22.3666 40.5072 22.2432C40.3421 22.1198 40.1063 21.9762 39.5986 21.7285" stroke="#EF1D26" stroke-linecap="round"/>
<path id="Vector 145" d="M31.8375 25.1787C31.8273 25.1787 31.7022 25.2303 31.5337 25.3852C31.1237 25.7619 31.6441 26.6997 31.9172 27.2774C32.2306 27.9407 32.9421 28.2436 33.5011 28.5499C34.8503 29.2892 37.6482 28.6532 38.1809 28.3422C38.2866 28.2418 38.3557 28.1193 38.4214 27.9421C38.4871 27.7649 38.5474 27.5368 38.5071 27.1897" stroke="#EF1D26" stroke-linecap="round"/>
<path id="Vector 146" d="M47.606 27.6929C47.606 28.2377 47.5382 29.581 47.2035 30.0138C46.8577 30.4609 46.1243 30.4849 45.6082 30.6674C45.3399 30.7622 45.0782 30.8343 44.808 30.7776C44.2578 30.6623 43.8181 30.2683 43.2056 30.1046C42.7245 29.9761 42.3792 29.6022 42.1751 29.3114C42.0305 29.0521 41.9369 28.7952 41.8834 28.5187C41.8651 28.3747 41.8649 28.2233 41.8647 28.0673" stroke="#EF1D26" stroke-linecap="round"/>
<path id="Vector 147" d="M40.7651 79.9619C40.7651 80.2736 40.7676 83.5303 40.7939 88.3166C40.8032 90.0069 40.8629 90.197 40.9565 90.1244C41.3324 89.833 41.5112 89.2564 42.0929 89.1017C44.1157 88.5637 46.1727 89.9136 48.496 91.2988C49.2886 91.9089 50.0856 92.7233 50.8894 93.6665C51.2204 94.078 51.3956 94.3536 51.6204 94.7307" stroke="#EF1D26" stroke-linecap="round"/>
<path id="Vector 148" d="M41.167 79.6821C41.2571 79.8925 41.7523 80.8864 42.3096 81.8777C42.5061 82.2273 42.8019 82.7305 43.0468 82.9289C43.2918 83.1274 43.4786 83.0047 43.6433 82.8533C44.315 82.2354 45.1288 81.1141 46.0848 80.2634C46.2661 80.102 46.4504 80.0308 46.5225 80.1167C47.181 80.9012 46.0009 82.7837 46.0261 84.0506C46.0414 84.8164 48.5514 82.6128 49.7859 81.9353C49.9577 81.841 50.1093 81.7249 50.2166 81.8558C51.2668 83.1361 51.2016 85.1127 51.4032 85.3415C51.9142 85.9214 53.1409 84.4772 54.3208 83.9709C55.2685 83.5642 53.883 86.4869 53.9321 87.173C53.9742 87.7606 56.2691 86.5083 57.6562 86.368C57.8512 86.3483 57.9952 86.191 57.8848 86.3492C56.8088 87.8909 55.6048 88.7958 53.9454 91.6283C53.3353 92.5477 52.7343 93.4268 52.0674 94.395C51.7804 94.7581 51.5976 94.8609 51.1984 94.5635" stroke="#EF1D26" stroke-linecap="round"/>
<path id="Vector 149" d="M40.2574 76.3343C40.2446 76.3343 40.272 76.5244 40.4373 76.8965C40.5284 77.1016 40.796 77.2468 41.0028 77.336C41.2097 77.4252 41.3889 77.4302 41.552 77.3413C41.9104 77.1461 42.0569 76.7121 42.1396 76.3673C42.1812 76.1941 42.1678 76.014 42.1016 75.8632C42.0355 75.7125 41.9033 75.5939 41.6133 75.526C41.3233 75.4582 40.8795 75.4448 40.6133 75.5114C40.3471 75.5781 40.2718 75.7251 40.1943 75.9172" stroke="#EF1D26" stroke-linecap="round"/>
<path id="Vector 150" d="M46.7349 77.1296C46.7371 77.4783 46.8184 78.3063 47.0047 78.5889C47.0974 78.7296 47.2537 78.8143 47.3969 78.8081C47.706 78.7947 47.9397 78.4223 48.1201 78.1145C48.2071 77.9663 48.2164 77.7991 48.169 77.6513C48.0001 77.371 47.6225 77.1193 47.153 76.9339C46.9358 76.8637 46.7613 76.8421 46.4385 76.8398" stroke="#EF1D26" stroke-linecap="round"/>
<path id="Vector 151" d="M51.828 79.9344C51.7613 80.0687 51.6399 80.5936 51.7298 80.8938C51.7737 81.0404 51.944 81.1196 52.1007 81.1672C52.4174 81.2633 52.7675 81.1414 53.0497 80.9405C53.349 80.7274 53.3265 80.1271 53.2891 79.6003C53.2733 79.3771 53.1237 79.2643 52.9698 79.1852C52.6264 79.0698 52.2818 79.0797 52.0018 79.2146C51.8713 79.302 51.7642 79.4281 51.623 79.7841" stroke="#EF1D26" stroke-linecap="round"/>
<path id="Vector 152" d="M55.2514 81.906C55.2514 81.918 55.339 82.0504 55.5802 82.265C55.8748 82.5271 56.3306 82.4162 56.617 82.2971C56.7615 82.237 56.8455 82.0679 56.9064 81.9141C56.9674 81.7603 56.9876 81.5989 56.9285 81.452C56.3854 80.9557 55.6306 80.7313 54.9657 80.7523C54.8414 80.8238 54.7799 80.9821 54.8215 81.5847" stroke="#EF1D26" stroke-linecap="round"/>
<path id="Vector 153" d="M59.1316 85.4408C59.2828 85.5906 59.701 85.9497 60.0094 86.0061C60.1659 86.0348 60.3329 85.9545 60.4651 85.8554C60.7308 85.656 60.8758 85.3234 60.9779 85.0263C61.0287 84.8786 60.9376 84.7061 60.7333 84.5561C60.2322 84.1884 59.6564 84.1209 59.3537 84.1781C59.2118 84.2565 59.0938 84.4352 59.0112 84.6137C58.9287 84.7923 58.8853 84.9654 58.8218 85.1819" stroke="#EF1D26" stroke-linecap="round"/>
<path id="Vector 134" d="M23.5047 13.1327C23.4711 13.1327 23.275 13.1327 23.0132 13.2057C22.9066 13.2354 22.9478 13.4246 22.9828 13.5679C23.0178 13.7111 23.0694 13.8472 23.1667 13.9251C23.2639 14.0029 23.4053 14.0184 23.5479 13.998C23.6905 13.9776 23.83 13.9209 23.9317 13.8285C24.0335 13.7361 24.0932 13.6096 24.1134 13.4752C24.1336 13.3408 24.1123 13.2024 23.7531 12.9229" stroke="#EF1D26" stroke-linecap="round"/>
<path id="Vector 135" d="M17.9267 9.79042C17.9166 9.80026 17.919 10.1977 18.0018 10.8059C18.0327 11.0324 18.2196 11.0491 18.3623 11.0489C18.505 11.0487 18.6435 11.0202 18.7615 10.9552C18.8795 10.8902 18.9729 10.7895 19.0267 10.5615C19.0806 10.3335 19.0921 9.98115 19.031 9.76917C18.9699 9.55719 18.8358 9.49626 18.6928 9.46487C18.5497 9.43348 18.4017 9.43348 18.2627 9.45512C18.1238 9.47676 17.9984 9.52004 17.8691 9.56463" stroke="#EF1D26" stroke-linecap="round"/>
<path id="Vector 136" d="M4.25485 9.36085C4.22973 9.36085 4.06862 9.37596 3.86509 9.47004C3.66377 9.5631 4.00362 9.98054 4.23703 10.2044C4.34447 10.3074 4.49878 10.3019 4.61712 10.2546C5.1218 10.053 5.31934 9.41193 5.32875 8.89889C5.34035 8.26647 4.1742 8.46789 3.82236 8.52067C3.68385 8.57922 3.62666 8.70227 3.58175 8.8641C3.53684 9.02593 3.50595 9.22281 3.47412 9.56504" stroke="#EF1D26" stroke-linecap="round"/>
<path id="Vector 137" d="M12.7933 10.0213C12.7736 10.0213 12.3357 10.0213 11.6736 10.0893C11.4308 10.1143 11.411 10.2935 11.4231 10.4284C11.4351 10.5633 11.4883 10.6928 11.5985 10.7852C11.8371 10.9852 12.1894 10.9876 12.4575 10.9521C12.5873 10.9349 12.6819 10.8228 12.741 10.7103C12.8002 10.5978 12.8153 10.4636 12.7928 10.3253C12.7704 10.1871 12.71 10.0489 12.5804 9.97462C12.4509 9.90031 12.254 9.89403 11.956 10.03" stroke="#EF1D26" stroke-linecap="round"/>
<path id="Vector 138" d="M4.06851 1.96837C4.05765 1.96837 3.91372 2.05357 3.69251 2.2514C3.58828 2.34462 3.58638 2.50151 3.617 2.62248C3.64762 2.74346 3.73282 2.84377 3.84393 2.88576C3.95503 2.92776 4.08945 2.90842 4.20987 2.84643C4.33029 2.78444 4.43263 2.6804 4.49384 2.55603C4.61623 2.30734 4.5795 1.9905 4.49346 1.73893C4.41744 1.64113 4.27573 1.60396 4.13211 1.60552C3.9885 1.60707 3.84729 1.64849 3.52539 1.97557" stroke="#EF1D26" stroke-linecap="round"/>
</g>
</svg>
