<svg width="34" height="28" viewBox="0 0 34 28" fill="none" xmlns="http://www.w3.org/2000/svg">
<g id="Chennai vector">
<path id="Vector 49" d="M1.45117 27.0175C2.36441 26.6825 4.77956 25.9413 5.82469 25.9364C6.8801 25.9314 7.86692 26.6096 8.86213 27.2358C9.42597 27.5906 10.7288 27.028 11.7321 26.4914C12.2956 26.1901 13.74 26.0813 14.994 26.2684C15.6659 26.3686 16.1387 26.9005 16.6714 27.0552C17.2587 27.2258 17.9 27.0422 19.4443 26.1446C19.9074 25.8754 20.5049 25.8423 21.2418 25.8569C22.0149 25.8722 23.0656 26.7253 23.8969 27.1032C24.6823 27.4602 25.6675 27.1441 27.5881 26.276C28.4387 25.9828 29.1602 25.9518 29.8538 26.1617C30.0723 26.2831 30.3846 26.4814 30.7446 26.7364" stroke="#EF1D26" stroke-width="1.07502" stroke-linecap="round"/>
<path id="Vector 50" d="M5.35352 26.3693C5.35352 26.3619 5.35441 26.201 5.38183 25.9146C5.40468 25.6758 5.81068 25.2988 6.721 24.5159C8.1912 23.2516 9.62669 22.4324 10.5328 22.052C11.5422 21.6283 12.7158 21.3326 14.2089 21.0345C15.0985 20.8569 16.2772 20.7422 17.1685 20.6704C18.0597 20.5986 18.6332 20.6028 19.6084 20.7358C20.5837 20.8689 21.9434 21.1307 23.3056 21.588C24.6678 22.0453 25.9914 22.6902 26.7309 23.0723C27.4705 23.4545 27.5858 23.5544 27.8764 23.8936C28.167 24.2329 28.6293 24.8084 29.2022 25.4948" stroke="#EF1D26" stroke-width="1.07502" stroke-linecap="round"/>
<path id="Vector 51" d="M18.3809 20.7067C18.3874 20.3812 18.539 19.3793 19.7474 17.3477C20.1689 16.6979 20.6434 16.0078 21.0855 15.29C21.5276 14.5722 21.923 13.8475 22.3875 13.0542" stroke="#EF1D26" stroke-width="1.07502" stroke-linecap="round"/>
<path id="Vector 52" d="M21.0273 20.7804C21.0386 20.3602 21.24 18.8893 21.6751 17.9482C21.8509 17.681 22.1162 17.3235 22.7004 16.7005C23.2846 16.0775 24.1795 15.1996 25.3044 14.1685" stroke="#EF1D26" stroke-width="1.07502" stroke-linecap="round"/>
<path id="Vector 53" d="M22.1303 12.7409C21.0085 12.7409 18.755 12.6313 18.7192 12.3643C18.6714 12.0071 18.6333 11.6878 18.5329 11.4695C18.3187 11.0038 17.6966 10.7904 16.0534 10.4506C14.0661 10.0397 13.3875 10.5218 12.6643 10.7296C12.5382 10.7659 13.2726 9.85407 14.704 8.5346C15.4865 7.81322 16.5321 7.15713 17.3313 6.66429C18.656 5.84749 19.8348 5.41082 21.206 4.97066C22.989 4.39832 24.7657 4.30201 25.9877 4.33407C26.897 4.35793 27.5687 4.80145 28.1158 5.139C28.5031 5.37791 29.1377 6.08699 30.0234 7.12688C31.2195 8.53116 31.5 9.46678 31.7257 10.5322C31.9273 11.4832 32.2387 13.2808 32.4154 14.5985C32.592 15.9161 32.6075 16.7027 32.5766 17.0719C32.5458 17.4411 32.4683 17.3691 32.3834 17.2806C31.6958 16.5637 30.451 15.5659 29.8477 15.3544C29.3185 15.261 28.5278 15.2082 27.4543 15.2027C26.8459 15.1977 26.1084 15.1883 25.3486 15.1786" stroke="#EF1D26" stroke-width="1.07502" stroke-linecap="round"/>
<path id="Vector 54" d="M19.0859 12.3914C19.0921 12.1767 19.1432 11.5505 19.3053 11.1042C19.5828 10.3398 20.958 9.14598 22.6485 7.56167C24.0698 6.46594 24.8969 5.95703 25.3665 5.79716C25.6649 5.71467 26.0854 5.62939 26.6388 5.52686" stroke="#EF1D26" stroke-width="1.07502" stroke-linecap="round"/>
<path id="Vector 55" d="M25.9629 15.1527C25.9643 14.6202 26.039 13.2311 26.4944 11.9157C26.6851 11.3652 26.6951 10.1023 26.6827 8.38951C26.59 7.30402 26.5073 6.79952 26.4623 6.5331C26.4315 6.3814 26.3845 6.19619 26.27 5.7207" stroke="#EF1D26" stroke-width="1.07502" stroke-linecap="round"/>
<path id="Vector 56" d="M6.54804 3.54102C6.53376 3.54102 6.21501 3.54102 5.69317 3.58078C5.36149 3.60606 5.19277 3.89956 5.04034 4.12383C4.55692 4.83511 4.71646 6.73339 4.83721 7.3762C4.88197 7.61449 5.1127 7.77149 5.3052 7.90449C5.70903 8.1835 6.98396 8.18262 7.85205 8.08949C8.43852 8.02656 8.82469 7.33931 9.05924 6.95502C9.37912 6.43091 9.27855 5.82193 9.13176 5.31505C8.97511 4.77409 7.98861 4.37963 7.30187 4.13264C7.05907 4.09291 6.79369 4.05317 6.47081 4.01744C6.28776 4.0053 6.06571 4.0053 5.71256 4.01843" stroke="#EF1D26" stroke-width="1.07502" stroke-linecap="round"/>
<path id="Vector 57" d="M3.17576 2.82252C3.17219 2.81895 3.16862 2.81538 3.10388 2.77135C3.03914 2.72732 2.91333 2.64294 2.51758 2.43896" stroke="#EF1D26" stroke-width="1.07502" stroke-linecap="round"/>
<path id="Vector 58" d="M6.09557 2.46464C6.09557 2.45699 6.09557 2.44934 6.08512 2.13126C6.07467 1.81319 6.05376 1.18491 6.03223 0.537598" stroke="#EF1D26" stroke-width="1.07502" stroke-linecap="round"/>
<path id="Vector 59" d="M2.20574 5.18606C2.20574 5.18211 2.20574 5.17815 1.93042 5.17414C1.65509 5.17013 1.10444 5.16618 0.537109 5.16211" stroke="#EF1D26" stroke-width="1.07502" stroke-linecap="round"/>
<path id="Vector 60" d="M1.83105 7.76953H2.90022" stroke="#EF1D26" stroke-width="1.07502" stroke-linecap="round"/>
<path id="Vector 61" d="M4.44238 9.31152V10.2629" stroke="#EF1D26" stroke-width="1.07502" stroke-linecap="round"/>
<path id="Vector 62" d="M6.99512 10.0566V11.5182" stroke="#EF1D26" stroke-width="1.07502" stroke-linecap="round"/>
<path id="Vector 63" d="M9.57227 9.49658V10.3819" stroke="#EF1D26" stroke-width="1.07502" stroke-linecap="round"/>
<path id="Vector 64" d="M10.4346 6.52832H11.5968" stroke="#EF1D26" stroke-width="1.07502" stroke-linecap="round"/>
<path id="Vector 65" d="M10.127 3.65868C10.127 3.65486 10.127 3.65103 10.178 3.62051C10.2291 3.58999 10.3312 3.53289 10.436 3.46899C10.5409 3.40509 10.6454 3.33613 10.8156 3.25195" stroke="#EF1D26" stroke-width="1.07502" stroke-linecap="round"/>
<path id="Vector 66" d="M8.2793 1.88965V2.50457" stroke="#EF1D26" stroke-width="1.07502" stroke-linecap="round"/>
</g>
</svg>
