<svg width="53" height="51" viewBox="0 0 53 51" fill="none" xmlns="http://www.w3.org/2000/svg">
<g id="Crown">
<path id="Vector 42" d="M31.8457 48.5315C31.8457 48.452 31.859 47.8588 33.3274 45.4191C37.6794 40.3252 42.9282 35.5654 46.7648 33.2223C48.3369 32.3355 49.1483 32.0624 50.2514 31.6484" stroke="#EF1D26" stroke-width="4" stroke-linecap="round"/>
<path id="Vector 43" d="M24.958 44.1023C25.1834 43.2709 27.607 39.2126 34.7952 32.2582C39.7238 28.7425 41.5904 27.9238 42.7416 27.3812C43.4004 27.1204 44.2104 26.8891 45.7319 26.5142" stroke="#EF1D26" stroke-width="4" stroke-linecap="round"/>
<path id="Vector 44" d="M24.2911 44.4098C22.6466 43.4971 13.724 37.6777 9.25662 34.4397C8.74805 34.0711 13.8763 34.0047 19.0925 33.4708C21.357 33.239 20.5665 27.0646 21.1392 21.68C21.3278 19.9072 22.9482 20.4549 23.9844 20.8506C28.0348 22.3972 31.4353 23.1604 32.2613 23.1032C36.7586 22.792 32.4874 11.2075 32.7864 10.1847C33.5483 7.57809 36.0062 15.0971 39.1778 18.4955C41.0107 20.8287 42.3646 22.8252 43.3103 24.1713C43.7282 24.8075 44.0206 25.3484 44.7737 26.8016" stroke="#EF1D26" stroke-width="4" stroke-linecap="round"/>
<path id="Vector 45" d="M2 29.8967C2 29.9159 2 29.9351 2.29332 29.9318C2.58664 29.9284 3.17328 29.9019 3.33562 29.6572C3.49796 29.4126 3.21823 28.9505 2.35554 29.5271" stroke="#EF1D26" stroke-width="4" stroke-linecap="round"/>
<path id="Vector 46" d="M15.0527 16.6616C15.0567 16.6808 15.0607 16.7 15.3388 16.7411C15.617 16.7822 16.1691 16.8445 16.4324 16.6118C16.6956 16.379 16.6532 15.8494 15.2355 14.7915" stroke="#EF1D26" stroke-width="4" stroke-linecap="round"/>
<path id="Vector 47" d="M26.2353 3.43635C26.8823 3.72863 28.8256 3.9371 29.6199 3.52987C29.9115 3.38041 29.4651 2.80779 29.0589 2.49324C28.6527 2.17869 28.1694 2.0017 27.6719 2.00001C27.1744 1.99832 26.6773 2.1773 26.165 2.3617" stroke="#EF1D26" stroke-width="4" stroke-linecap="round"/>
</g>
</svg>
