<svg width="120" height="94" viewBox="0 0 120 94" fill="none" xmlns="http://www.w3.org/2000/svg">
<g id="Drag">
<path id="Vector 69" d="M6.33496 59.4834C6.36829 59.4834 6.40163 59.4834 6.85386 59.7639C7.30608 60.0443 8.1762 60.6052 12.0302 64.2126C15.8842 67.8199 22.6956 74.4567 29.7135 81.2946" stroke="#EF1D26" stroke-width="3" stroke-linecap="round"/>
<path id="Vector 70" d="M1.5 58.867C2.32873 58.0224 12.7101 52.318 22.907 48.3414C28.9891 45.9695 37.6877 48.2399 40.4475 50.8482C43.4465 53.6826 43.8362 59.9969 44.1699 70.1176C44.2416 72.2914 43.8372 73.4813 43.3382 74.4769C42.8392 75.4725 42.0852 76.2369 38.614 78.2364C35.1428 80.2359 28.9773 83.4474 22.625 86.7562" stroke="#EF1D26" stroke-width="3" stroke-linecap="round"/>
<path id="Vector 71" d="M40.0234 42.3184C40.0901 42.3184 41.3164 42.3218 43.5465 42.6828C47.6521 43.3473 49.3985 50.133 51.3503 54.7052C49.0787 49.8678 46.0302 39.6034 45.8257 30.4074C45.9758 28.3387 46.3482 27.2743 47.6863 25.084" stroke="#EF1D26" stroke-width="3" stroke-linecap="round"/>
<path id="Vector 72" d="M59.0269 24.6382C58.9114 30.2995 59.351 43.7146 61.2197 47.0181C61.644 47.7682 63.0982 47.2969 64.4691 46.3659C67.7726 44.1222 70.0389 40.3671 71.4764 37.5473C72.5374 35.4662 71.0727 32.8064 69.4305 30.1902C67.9904 27.8959 66.067 26.4693 64.3031 25.523C63.4592 25.0702 62.5324 25.0743 62.5794 25.2304C66.8418 27.6367 73.5861 32.2567 78.4949 35.1851C79.6032 35.6595 80.4756 35.8067 81.7959 35.9583" stroke="#EF1D26" stroke-width="3" stroke-linecap="round"/>
<path id="Vector 73" d="M77.522 12.0468C77.3118 14.9135 77.7062 23.0831 80.6379 28.2914C81.2887 29.4475 82.3638 29.74 83.2543 29.61C84.1447 29.4801 85.0482 28.7559 85.6193 27.607C87.9754 22.8679 86.3831 18.6564 84.7728 13.6186C84.383 12.3992 83.7097 11.5905 82.9613 10.9838C78.7692 7.58571 101.196 33.3763 105.762 42.0139C107.576 45.4474 107.751 48.883 107.514 51.3273C107.406 52.435 106.619 53.1475 105.802 53.6662C102.07 56.0327 96.0015 54.8315 90.7115 52.331C86.5128 45.9424 85.2812 37.312 85.1508 30.4701C85.1363 27.757 85.2272 26.5846 86.2333 23.13" stroke="#EF1D26" stroke-width="3" stroke-linecap="round"/>
<path id="Vector 74" d="M102.075 1.5C102.268 1.5 104.521 1.54138 108.375 1.88338C111.367 2.14897 113.266 4.59634 114.644 6.9496C116.68 10.4257 117.681 19.6652 118.137 44.0848C118.244 49.7934 117.115 51.9888 115.781 54.3261C113.938 56.7566 102.683 65.295 85.2191 77.4086C77.935 82.2509 73.8546 84.444 68.6543 88.0341" stroke="#EF1D26" stroke-width="3" stroke-linecap="round"/>
<path id="Vector 75" d="M73.2483 72.0742C73.215 73.6568 72.5037 79.4121 69.2133 86.9883C68.1763 88.8861 67.0924 90.4838 71.1443 91.3482C75.1963 92.2127 84.417 92.2954 93.9171 92.3807" stroke="#EF1D26" stroke-width="3" stroke-linecap="round"/>
</g>
</svg>
