<svg width="169" height="191" viewBox="0 0 169 191" fill="none" xmlns="http://www.w3.org/2000/svg">
<g id="Nature objects">
<path id="Vector 154" d="M62.2148 70.9277C62.2547 70.9277 63.5967 70.9313 65.9026 71.1781C68.6705 71.4745 68.589 73.4946 68.7281 73.7456C68.888 74.034 68.7169 72.5956 68.4514 71.6225C69.1338 69.3093 70.9822 66.6999 71.4603 66.4126C71.7182 66.2998 72.0074 66.2543 72.3635 66.1772" stroke="#EF1D26" stroke-linecap="round"/>
<path id="Vector 155" d="M76.5439 58.3004C76.9056 58.3004 79.3944 58.8986 81.0206 59.8486C81.2923 60.0074 81.3499 60.3867 81.3535 60.3415C81.4501 59.1409 80.5656 57.9948 80.7299 56.8616C80.8457 56.5972 81.0306 56.3533 81.2706 56.1582C81.5106 55.9632 81.8001 55.8245 82.7137 55.2656" stroke="#EF1D26" stroke-linecap="round"/>
<path id="Vector 156" d="M42.8018 70.8223C44.3797 70.7764 49.0957 72.0037 50.3755 73.1102C51.3373 73.9417 48.892 70.5233 48.5324 68.9419C48.3827 68.2837 48.6734 67.5108 49.0881 66.7779C49.3236 66.4932 49.6099 66.3855 49.8473 66.0696C50.0848 65.7538 50.2647 65.2331 50.7228 64.604" stroke="#EF1D26" stroke-linecap="round"/>
<path id="Vector 157" d="M37.527 32.9131C37.5064 32.9131 37.2297 32.9785 36.7477 33.2087C36.2357 33.4533 36.2108 34.6098 36.2572 35.8545C36.291 36.7611 36.7023 37.301 37.1588 37.6381C38.8901 38.9162 42.1031 37.9584 42.5602 37.5502C43.0816 37.0845 43.3275 36.3596 43.4524 35.491C43.6165 34.3494 43.408 33.3795 42.9865 32.761C42.45 31.9736 41.5795 31.5967 40.8208 31.3314C39.7735 30.9652 38.695 31.2973 38.0147 31.6141C37.7065 31.7902 37.4732 31.9972 37.3078 32.235C37.1425 32.4729 37.0521 32.7353 36.959 33.3711" stroke="#EF1D26" stroke-linecap="round"/>
<path id="Vector 158" d="M28.1502 33.1591C28.1275 33.1363 28.5926 33.1132 29.4571 33.1431C29.8447 33.1844 30.1285 33.2786 30.3905 33.4146C30.6524 33.5507 30.884 33.7257 31.1225 33.9059" stroke="#EF1D26" stroke-linecap="round"/>
<path id="Vector 159" d="M31.123 26.5752C31.1437 26.5752 31.4427 26.6758 31.9998 26.9293C32.5084 27.2842 32.9905 27.7135 33.6006 28.2455C33.9759 28.5563 34.4849 28.95 35.117 29.3934" stroke="#EF1D26" stroke-linecap="round"/>
<path id="Vector 160" d="M40.5137 23.1379C40.5137 23.1269 40.5137 23.1158 40.5137 23.6578C40.5137 24.1998 40.5137 25.2952 40.5603 25.9962C40.6068 26.6972 40.7 26.9707 40.796 27.2525" stroke="#EF1D26" stroke-linecap="round"/>
<path id="Vector 161" d="M45.5527 29.0809C45.5527 29.0706 45.5527 29.0603 45.7069 28.8953C45.8611 28.7303 46.1694 28.411 46.568 28.0407C46.9665 27.6704 47.4459 27.259 48.3332 26.1475" stroke="#EF1D26" stroke-linecap="round"/>
<path id="Vector 162" d="M46.4893 35.1982C46.5156 35.1982 46.8183 35.3067 47.381 35.5511C47.9039 35.847 48.4019 36.1915 48.9232 36.4853C49.2033 36.5995 49.5152 36.6429 50.1308 36.8299" stroke="#EF1D26" stroke-linecap="round"/>
<path id="Vector 163" d="M42.0156 41.4175C42.0156 41.4474 42.0156 41.4772 42.0156 42.0725C42.0156 42.6677 42.0156 43.8275 42.0946 44.5428C42.1735 45.2582 42.3314 45.4939 42.7883 45.9988" stroke="#EF1D26" stroke-linecap="round"/>
<path id="Vector 164" d="M36.9726 40.7061C36.6266 40.7238 35.5007 40.984 34.3663 42.0228C34.1273 42.3195 33.9634 42.5901 33.8053 42.8505C33.6472 43.1108 33.5 43.3527 33.0918 43.6029" stroke="#EF1D26" stroke-linecap="round"/>
<path id="Vector 165" d="M69.7729 170.068C69.7621 170.068 69.7512 170.068 69.7402 167.373C69.7292 164.679 69.7183 159.29 69.9322 154.013" stroke="#EF1D26" stroke-linecap="round"/>
<path id="Vector 166" d="M73.8127 169.6C73.8127 169.239 73.4974 167.096 73.4014 159.937C73.4889 158.236 73.6747 157.237 73.7867 156.591C73.8987 155.945 73.9312 155.681 73.9987 154.998" stroke="#EF1D26" stroke-linecap="round"/>
<path id="Vector 167" d="M68.9756 154.514C68.9756 154.492 73.0203 154.404 81.41 153.898C85.7683 153.635 90.2779 152.69 92.7426 152.309C96.0396 151.799 96.9863 152.159 97.4107 152.431C97.5549 153.125 97.3484 154.483 96.9938 157.549C96.8458 159.723 96.7623 163.154 96.811 167.001" stroke="#EF1D26" stroke-linecap="round"/>
<path id="Vector 168" d="M93.2022 153.088C93.2022 153.098 93.2022 153.108 93.1341 155.187C93.0659 157.266 92.9296 161.414 92.8758 163.708C92.822 166.003 92.8549 166.319 93.0923 167.1" stroke="#EF1D26" stroke-linecap="round"/>
<path id="Vector 169" d="M70.0859 154.603C70.0859 154.58 70.0859 152.95 70.5503 150.487C70.7288 149.54 71.9432 149.62 74.9011 149.083C77.859 148.545 82.8179 147.494 86.0571 146.88C90.6456 146.011 92.276 145.975 92.6675 146.004C93.7815 146.088 95.1548 146.388 95.6554 146.445C96.2307 147.036 96.8808 149.752 97.233 151.765C97.2796 152.023 97.3256 152.192 97.3729 152.784" stroke="#EF1D26" stroke-linecap="round"/>
</g>
</svg>
