<svg width="169" height="191" viewBox="0 0 169 191" fill="none" xmlns="http://www.w3.org/2000/svg">
<g id="WIP - outline">
<path id="Vector 193" d="M83.1309 84.6318C83.1078 84.6318 82.7823 84.6414 82.2082 84.7791C81.2903 85.8498 80.6905 87.1406 80.5251 87.9272C80.4382 88.3209 80.345 88.7035 80.249 89.8263" stroke="#EF1D26" stroke-linecap="round"/>
<path id="Vector 194" d="M97.5205 81.9561C97.5452 81.9561 97.8601 82.0854 98.5018 82.5967C98.8413 82.9787 99.2092 83.6092 99.4902 84.0973C99.7713 84.5854 99.9544 84.9118 100.388 86.06" stroke="#EF1D26" stroke-linecap="round"/>
<path id="Vector 195" d="M73.73 106.845C73.7054 106.845 73.2575 106.997 72.5147 107.357C72.0397 107.823 71.6573 108.54 71.0227 109.664C70.5984 110.338 69.9662 111.22 69.0869 112.728" stroke="#EF1D26" stroke-linecap="round"/>
<path id="Vector 196" d="M81.1846 97.2875C81.1846 97.2636 81.2355 97.5534 81.388 98.2561C81.6399 99.1462 81.9956 99.9126 82.4063 100.437C82.6163 100.699 82.8297 100.954 83.2015 101.473" stroke="#EF1D26" stroke-linecap="round"/>
<path id="Vector 197" d="M100.451 97.8359C100.451 97.8606 100.451 98.4115 100.411 99.4151C100.371 99.8805 100.29 100.257 100.227 100.609C100.164 100.962 100.121 101.28 99.7891 101.702" stroke="#EF1D26" stroke-linecap="round"/>
<path id="Vector 198" d="M68.4473 119.488C68.4473 119.501 68.4473 119.513 68.4423 119.976C68.4373 120.44 68.4274 121.354 68.3663 122.007C68.3052 122.661 68.1934 123.026 68.0371 124.311" stroke="#EF1D26" stroke-linecap="round"/>
<path id="Vector 199" d="M68.5859 132.582C68.5859 132.616 68.5859 133.637 68.7125 135.314C69.0923 136.305 69.5044 136.955 69.7358 137.635C69.8159 137.991 69.8203 138.368 69.5257 138.848" stroke="#EF1D26" stroke-linecap="round"/>
<path id="Vector 200" d="M69.5029 147.278C69.5029 147.324 69.5029 147.971 69.5642 149.165C69.7482 150.234 69.9676 151.298 70.1679 152.288C70.275 152.727 70.3932 153.039 70.4825 153.233" stroke="#EF1D26" stroke-linecap="round"/>
<path id="Vector 201" d="M105.805 105.839C105.805 105.864 106.161 106.035 106.834 106.364C107.152 106.533 107.421 106.708 107.666 106.92C107.912 107.132 108.127 107.377 108.904 108.197" stroke="#EF1D26" stroke-linecap="round"/>
<path id="Vector 202" d="M113.841 112.26C113.841 112.283 113.841 113.281 113.88 114.979C113.918 115.689 113.996 116.091 114.122 116.489C114.249 116.886 114.422 117.265 114.6 117.656" stroke="#EF1D26" stroke-linecap="round"/>
<path id="Vector 203" d="M116.802 123.746C116.802 123.758 116.802 123.769 116.802 124.332C116.802 124.894 116.802 126.007 116.927 127.136C117.052 128.265 117.303 129.376 117.597 130.156" stroke="#EF1D26" stroke-linecap="round"/>
<path id="Vector 204" d="M119.147 137.481C119.147 137.493 119.147 137.506 119.148 138.473C119.148 139.441 119.149 141.364 119.256 142.941C119.362 144.519 119.575 145.693 119.637 147.293" stroke="#EF1D26" stroke-linecap="round"/>
<path id="Vector 205" d="M118.712 153.596C118.712 153.65 118.712 154.655 118.787 156.269C118.862 156.907 119.013 157.175 119.191 157.51C119.369 157.845 119.57 158.239 119.777 158.645" stroke="#EF1D26" stroke-linecap="round"/>
<path id="Vector 206" d="M119.159 165.873C119.159 165.895 119.159 166.845 119.006 168.32C118.853 168.854 118.547 168.954 118.195 169.084C117.844 169.214 117.457 169.372 116.166 169.499" stroke="#EF1D26" stroke-linecap="round"/>
<path id="Vector 207" d="M69.9746 160.186C69.9746 160.224 69.9746 160.262 69.9746 160.782C69.9746 161.302 69.9746 162.303 70.0162 163.054C70.0578 163.805 70.141 164.276 70.7322 165.19" stroke="#EF1D26" stroke-linecap="round"/>
<path id="Vector 208" d="M73.3372 171.463C73.3117 171.463 73.5048 171.762 73.8374 172.651C73.9637 173.24 74.0039 174.11 74.0933 174.697C74.1827 175.284 74.32 175.562 74.5013 175.885" stroke="#EF1D26" stroke-linecap="round"/>
<path id="Vector 209" d="M114.808 172.238L115.005 173.09" stroke="#EF1D26" stroke-linecap="round"/>
<path id="Vector 210" d="M32.1371 57.9097C32.1156 58.4395 32.3525 60.3365 33.2968 62.4309C33.9635 63.9096 38.5188 67.7523 41.6349 70.0441C41.9647 70.2866 42.3775 70.2507 42.6598 70.1475C42.9421 70.0443 43.1352 69.7768 43.2426 69.4436C44.2111 66.4389 41.7481 61.9496 41.6539 61.6954C40.034 57.3238 52.917 68.3092 53.9082 68.5427C54.4806 68.6776 52.495 64.1559 48.3161 57.296C46.1757 54.2108 43.9954 51.9294 42.703 50.6231C41.4107 49.3169 41.0723 49.0549 40.632 48.7549" stroke="#EF1D26" stroke-linecap="round"/>
<path id="Vector 211" d="M53.1729 42.4658C53.2569 43.0399 55.6722 48.3872 57.7894 51.9793C58.3478 52.8754 59.2368 54.3678 59.7689 55.2975C60.3011 56.2271 60.4496 56.5488 60.7763 57.1492" stroke="#EF1D26" stroke-linecap="round"/>
<path id="Vector 212" d="M47.6973 45.8644C48.2939 45.2466 50.6956 42.9629 56.1049 38.8544C57.2051 38.1023 57.5594 37.9957 58.0863 37.9407C58.6132 37.8857 59.3018 37.8857 60.0114 37.8857" stroke="#EF1D26" stroke-linecap="round"/>
<path id="Vector 213" d="M57.3825 61.329C57.3698 61.3413 57.3571 61.3537 58.5153 60.329C59.6735 59.3043 62.0031 57.2422 65.0584 54.6025" stroke="#EF1D26" stroke-linecap="round"/>
<path id="Vector 214" d="M63.1826 33.7324C63.2288 33.7324 65.8796 37.3168 69.9534 42.8826C72.0281 45.6569 72.7056 46.4501 73.1979 47.4412C73.5162 48.1362 73.9736 49.221 74.4448 50.3386" stroke="#EF1D26" stroke-linecap="round"/>
<path id="Vector 215" d="M62.4111 33.9943C62.9883 33.4406 67.2006 30.8718 69.8005 29.96C71.4902 29.3673 72.7557 32.8923 73.2554 34.5142C72.8713 37.2227 71.3958 39.9744 69.6569 41.9123C69.2592 42.3872 69.0068 42.7725 68.7118 43.1382" stroke="#EF1D26" stroke-linecap="round"/>
</g>
</svg>
