<svg width="169" height="191" viewBox="0 0 169 191" fill="none" xmlns="http://www.w3.org/2000/svg">
<g id="Doodle - fisherman">
<path id="Vector 228" d="M100.887 24.1536C100.903 24.1536 100.919 24.1536 102.719 24.1698C104.518 24.1861 108.101 24.2185 112.639 24.6183C117.177 25.0181 122.562 25.7844 124.971 26.0428C127.38 26.3013 126.65 26.0287 125.802 25.6549C123.99 24.8566 122.373 23.9305 121.303 23.2227C118.775 21.5496 117.88 16.2318 117.15 15.3826C116.263 14.3511 115.359 13.7271 114.062 13.4072C112.99 13.1429 112.068 13.4125 111.631 13.5468C108.642 14.4664 107.331 20.7976 107.089 21.1169C106.366 22.0721 104.617 22.2947 103.384 22.8906C103.094 23.0207 102.872 23.0784 102.576 23.1757C102.279 23.2729 101.915 23.408 101.223 23.5694" stroke="#EF1D26" stroke-linecap="round"/>
<path id="Vector 229" d="M117.203 158.855C117.203 158.833 117.219 158.112 117.565 155.87C117.894 154.338 118.537 152.003 120.553 146.96C122.568 141.917 125.938 134.236 129.626 126.075" stroke="#EF1D26" stroke-linecap="round"/>
<path id="Vector 230" d="M120.171 159.637C120.171 159.546 120.258 158.252 121.119 154.237C121.721 151.427 123.348 147.218 125.083 143.163C128.475 135.237 131.157 130.947 131.531 129.948C131.567 129.539 131.29 129.328 130.925 128.997C130.56 128.666 130.114 128.22 129.655 127.761" stroke="#EF1D26" stroke-linecap="round"/>
<path id="Vector 231" d="M116.588 159.415C116.6 159.415 116.611 159.415 116.874 159.415C117.137 159.415 117.65 159.415 118.065 159.499C118.479 159.584 118.78 159.753 119.2 159.959" stroke="#EF1D26" stroke-linecap="round"/>
<path id="Vector 232" d="M128.489 130.93C128.615 131.263 129.785 132.356 130.81 133.273C132.158 134.479 126.577 133.936 126.035 134.498C125.782 134.761 125.619 135.017 125.628 135.312C125.65 135.975 126.193 137.555 126.199 139.534C126.202 140.555 124.607 140.801 123.722 141.438C121.829 142.8 122.649 146.792 121.294 147.725C119.452 148.993 121.599 153.198 121.11 153.688C120.568 154.231 119.837 154.462 119.505 155.024C119.386 155.348 119.369 155.748 119.421 156.184C119.473 156.62 119.594 157.079 119.834 157.969" stroke="#EF1D26" stroke-linecap="round"/>
<path id="Vector 233" d="M129.698 129.419C129.698 129.329 129.764 127.284 131.12 119.219C132.149 113.104 134.925 103.081 137.848 93.9474C140.77 84.8133 144.025 76.9226 145.804 72.6773C147.583 68.4319 147.788 68.071 148.68 66.6106C149.573 65.1503 151.147 62.6014 153.246 59.4912" stroke="#EF1D26" stroke-linecap="round"/>
<path id="Vector 234" d="M153.965 58.5687C154.32 58.5751 155.348 58.3819 155.769 58.0687C155.963 57.9249 155.791 57.5336 155.583 57.317C155.374 57.1004 155.051 56.9992 154.733 56.9615C154.415 56.9239 154.113 56.9528 153.913 57.1452C153.714 57.3376 153.628 57.6927 153.584 58.0542C153.539 58.4156 153.539 58.7726 153.539 59.1405" stroke="#EF1D26" stroke-linecap="round"/>
<path id="Vector 235" d="M153.975 58.71C153.959 61.3958 153.623 68.5619 152.655 72.0258C151.842 74.9387 148.597 77.8493 147.24 79.0584C145.374 80.7206 144.417 81.5045 143.4 82.4461C141.047 84.6247 144.206 92.1016 143.256 94.4825C141.183 97.0638 140.331 97.6401 139.572 98.2139C139.162 98.5603 138.702 99.0189 137.604 99.5955" stroke="#EF1D26" stroke-linecap="round"/>
<path id="Vector 236" d="M137.124 99.1963C137.65 100.896 138.807 107.923 138.056 110.834C137.266 113.894 134.794 117.739 132.806 120.61C132.312 121.469 131.576 122.988 131.098 124.221C130.62 125.453 130.422 126.354 130.053 127.742" stroke="#EF1D26" stroke-linecap="round"/>
<path id="Vector 237" d="M154.922 58.6897C154.922 58.6776 154.922 58.6655 155.076 58.6532C156.811 58.5141 158.919 64.6182 159.807 68.6874C160.489 71.8141 159.885 74.2782 158.438 77.9799C157.142 81.2957 154.331 87.377 152.832 90.9051C151.032 95.1418 150.803 99.1348 150.646 104.3C151.37 109.477 153.1 114.131 154.564 116.077C155.069 116.596 155.731 117.193 156.575 117.881" stroke="#EF1D26" stroke-linecap="round"/>
<path id="Vector 238" d="M156.17 118.784C156.17 118.807 156.613 118.831 157.296 118.686C157.576 118.626 157.558 118.203 157.499 117.892C157.441 117.582 157.3 117.296 157.074 117.169C156.847 117.042 156.539 117.082 156.364 117.251C156.188 117.421 156.156 117.72 156.157 118.311" stroke="#EF1D26" stroke-linecap="round"/>
<path id="Vector 239" d="M156.846 118.526C156.846 118.524 156.846 118.521 156.846 119.155C156.846 119.788 156.846 121.057 156.821 121.69C156.795 122.322 156.745 122.279 156.68 122.253C156.377 122.131 156.035 122.233 155.682 122.381C155.357 122.518 155.137 123.334 154.971 124.304C154.87 124.897 155.055 125.18 155.195 125.452C155.332 125.717 155.586 125.871 155.832 125.993C156.309 126.059 157.022 126.052 157.514 125.877C157.63 125.822 157.714 125.768 157.819 125.552" stroke="#EF1D26" stroke-linecap="round"/>
<path id="Vector 240" d="M23.0098 84.276C23.137 84.2596 23.8765 84.4094 27.6253 86.6302C28.3025 87.0314 28.1336 87.0092 27.9669 86.9287C27.2215 86.5684 26.7462 85.802 26.4133 84.921C26.1715 84.281 26.2716 83.275 26.3516 82.3832C26.3804 82.0621 26.5811 82.041 26.7369 82.0512C27.0475 82.1117 27.4388 82.2845 28.1069 82.7116C28.5433 83.0178 29.1774 83.5057 30.0097 84.0755" stroke="#EF1D26" stroke-linecap="round"/>
<path id="Vector 241" d="M29.1205 80.1287C29.3192 80.0512 30.1294 79.3976 30.5017 78.7266C30.8491 78.1006 29.8987 76.621 29.2631 75.7612C28.8689 75.2279 27.6375 75.401 26.7793 75.6398C25.4789 76.0017 26.5594 79.062 26.952 79.9227C27.299 80.6836 28.1988 80.9324 28.9876 81.1101C30.2947 81.4046 31.1555 80.9037 31.8884 80.3555C32.1977 80.019 32.4385 79.6705 32.6093 79.309C32.6884 79.1166 32.7522 78.906 32.8197 78.5394" stroke="#EF1D26" stroke-linecap="round"/>
<path id="Vector 242" d="M26.2285 72.5188C27.4878 72.5289 30.5931 72.656 33.4203 73.6268C34.0096 73.8292 34.154 73.9135 34.1266 73.9476C33.4223 74.8267 31.4396 72.6222 30.8423 72.014C30.585 71.752 30.4337 71.4238 30.3188 71.0379C30.2538 70.8195 30.2727 70.532 30.3858 70.3829C30.4989 70.2339 30.7306 70.226 31.5944 70.5538C32.4581 70.8815 33.947 71.5453 35.603 72.256" stroke="#EF1D26" stroke-linecap="round"/>
</g>
</svg>
