<svg width="169" height="191" viewBox="0 0 169 191" fill="none" xmlns="http://www.w3.org/2000/svg">
<g id="Beach octopus">
<path id="Vector 128" d="M39.9006 54.1707C39.9006 54.1812 39.9987 53.9667 40.3872 53.1367C41.1412 51.5257 41.8049 49.5164 42.0345 47.7981C42.1873 46.6549 42.0424 45.9029 41.9233 45.3662C41.6913 44.3212 39.793 42.971 38.8897 42.3674C37.8041 41.642 34.8194 41.6747 33.1607 41.9056C31.3729 42.1544 29.7825 42.8756 28.709 43.0198C27.6438 43.163 26.8772 43.0066 26.4748 42.8319C25.5849 42.4455 24.9496 41.4024 24.5184 40.3419C23.5594 37.9829 24.1521 36.0473 24.5404 34.9375C25.1031 33.3293 26.3967 32.4604 27.8545 31.5849C29.0493 30.8673 31.7127 30.9414 32.5888 31.1227C32.7959 31.6377 33.0148 32.1313 33.2729 32.5906C33.3167 32.7192 33.3459 32.8519 33.4182 33.3682" stroke="#EF1D26" stroke-linecap="round"/>
<path id="Vector 129" d="M33.5775 33.5782C33.4069 33.5782 32.9315 33.611 32.596 33.5926C32.2939 33.5761 32.2508 33.1324 32.1727 32.9059C31.9016 32.12 30.014 32.7517 29.0517 33.2805C28.4908 33.5888 28.3641 34.2723 28.0124 35.2811C27.8109 35.8591 28.135 36.5157 28.4671 37.04C28.8359 37.6223 29.5496 37.7857 32.3651 38.7704C34.1033 39.3783 36.1551 38.7004 37.9481 38.2358C39.987 37.7075 41.9302 37.5798 43.5561 37.8503C44.3229 37.9779 44.8134 38.4746 45.334 38.9417C46.3529 39.8557 47.3143 41.2498 48.0724 42.5557C49.3564 44.7675 49.2821 47.3667 49.0868 48.5616C48.8726 49.8722 48.1563 50.7429 46.5145 53.2959C46.1358 53.8681 45.9381 54.1563 45.7773 54.3918C45.6166 54.6274 45.4988 54.8015 45.3774 54.9809" stroke="#EF1D26" stroke-linecap="round"/>
<path id="Vector 130" d="M38.1531 52.457C37.6962 52.457 36.0939 52.786 35.4429 53.2699C35.3245 53.3578 35.2328 53.483 35.1833 53.6111C35.1464 53.8859 35.2257 54.1641 35.3792 54.4022C35.4663 54.5132 35.5722 54.6042 35.9663 54.845" stroke="#EF1D26" stroke-linecap="round"/>
<path id="Vector 131" d="M37.9932 57.3418C38.1393 57.3691 38.7944 57.4832 40.0345 58.1044C41.9761 59.0769 45.2186 59.0253 46.2006 59.0431C46.5422 59.0048 46.7707 58.8714 47.029 58.6186C47.2044 58.4687 47.4697 58.2749 47.884 58.0119" stroke="#EF1D26" stroke-linecap="round"/>
<path id="Vector 132" d="M47.8657 54.0889C48.0134 54.0933 48.5932 54.2467 49.0959 54.5002C49.1834 54.5913 49.2189 54.7192 49.2427 54.9166C49.2666 55.114 49.2778 55.3769 49.1762 55.7871" stroke="#EF1D26" stroke-linecap="round"/>
<path id="Vector 133" d="M43.2812 50.4192C43.2685 50.6968 43.3168 51.3426 43.4961 51.5162C43.6744 51.6888 44.0378 51.5509 44.35 51.4402C44.6521 51.3331 44.8178 51.037 44.9255 50.7527C44.9824 50.6026 44.9696 50.4177 44.9086 50.2916C44.7198 50.0982 44.4571 50.0049 44.1678 49.9686C44.0096 49.9563 43.8282 49.9563 43.4612 50.1183" stroke="#EF1D26" stroke-linecap="round"/>
<path id="Vector 139" d="M48.1329 47.1362C47.9266 47.1111 46.9956 47.0601 46.3652 47.2173C46.121 47.2782 46.2018 47.7874 46.2448 48.1637C46.264 48.3326 46.377 48.4381 46.5022 48.5105C46.7645 48.662 47.0885 48.6527 47.3324 48.6061C47.6271 48.1802 47.7189 47.732 47.6727 47.4486C47.6241 47.3208 47.5241 47.2256 47.4211 47.1275" stroke="#EF1D26" stroke-linecap="round"/>
<path id="Vector 140" d="M56.7485 56.7825C56.7546 56.342 56.985 55.0815 58.05 53.7412C58.8181 52.7746 61.0434 52.1297 63.0083 51.7875C64.3602 51.5521 65.3252 51.8098 65.8547 52.159C67.8703 53.4885 68.2102 54.8399 68.4915 55.6912C68.5584 55.9834 68.6409 56.4289 68.6834 56.9007C68.7259 57.3725 68.7259 57.8571 68.7259 58.3563" stroke="#EF1D26" stroke-linecap="round"/>
<path id="Vector 141" d="M64.431 57.5352C64.3714 57.4117 63.9573 57.0187 63.4462 56.6903C63.2 56.5322 62.5382 56.6048 61.7444 56.6533C61.2619 56.7986 61.0089 56.9969 60.8471 57.2054C60.7735 57.3154 60.7174 57.4341 60.7114 57.6257" stroke="#EF1D26" stroke-linecap="round"/>
<path id="Vector 142" d="M58.9458 54.3995C58.9553 54.409 59.065 54.5298 59.288 54.7399C59.5036 54.9429 59.8548 54.974 60.1798 54.9165C60.3271 54.8905 60.4015 54.7442 60.4519 54.5298C60.5023 54.3154 60.5169 54.005 60.4661 53.7951C60.4152 53.5853 60.2984 53.4855 60.1533 53.4312C59.838 53.3712 59.5233 53.443 59.2617 53.6027C59.1395 53.6846 59.0391 53.7685 58.9355 53.8548" stroke="#EF1D26" stroke-linecap="round"/>
<path id="Vector 143" d="M66.0903 54.211C66.1051 54.409 66.2188 54.8969 66.4037 55.1066C66.4953 55.2105 66.6212 55.2718 66.7446 55.2618C67.0145 55.24 67.2008 54.9554 67.3288 54.7107C67.3966 54.5808 67.4115 54.4128 67.3884 54.2679C67.3652 54.1231 67.2885 53.9997 67.1844 53.9124C67.0803 53.8252 66.9512 53.7779 66.8179 53.7437C66.6847 53.7095 66.5513 53.69 66.116 53.6699" stroke="#EF1D26" stroke-linecap="round"/>
<path id="Vector 144" d="M63.5244 52.5561C63.361 52.5726 62.9744 52.6877 62.7715 52.8756C62.671 52.9687 62.6321 53.1104 62.6537 53.2271C62.6753 53.3439 62.7731 53.4451 63.0735 53.4972C63.374 53.5493 63.8742 53.5493 64.1262 53.4697C64.3783 53.3901 64.3671 53.2309 64.3155 53.0988C64.2639 52.9667 64.1723 52.8666 64.0072 52.7432C63.8421 52.6198 63.6063 52.4762 63.0986 52.2285" stroke="#EF1D26" stroke-linecap="round"/>
<path id="Vector 145" d="M55.3375 55.6787C55.3273 55.6787 55.2022 55.7303 55.0337 55.8852C54.6237 56.2619 55.1441 57.1997 55.4172 57.7774C55.7306 58.4407 56.4421 58.7436 57.0011 59.0499C58.3503 59.7892 61.1482 59.1532 61.6809 58.8422C61.7866 58.7418 61.8557 58.6193 61.9214 58.4421C61.9871 58.2649 62.0474 58.0368 62.0071 57.6897" stroke="#EF1D26" stroke-linecap="round"/>
<path id="Vector 146" d="M71.106 58.1929C71.106 58.7377 71.0382 60.081 70.7035 60.5138C70.3577 60.9609 69.6243 60.9849 69.1082 61.1674C68.8399 61.2622 68.5782 61.3343 68.308 61.2776C67.7578 61.1623 67.3181 60.7683 66.7056 60.6046C66.2245 60.4761 65.8792 60.1022 65.6751 59.8114C65.5305 59.5521 65.4369 59.2952 65.3834 59.0187C65.3651 58.8747 65.3649 58.7233 65.3647 58.5673" stroke="#EF1D26" stroke-linecap="round"/>
<path id="Vector 147" d="M64.2651 110.462C64.2651 110.774 64.2676 114.03 64.2939 118.817C64.3032 120.507 64.3629 120.697 64.4565 120.624C64.8324 120.333 65.0112 119.756 65.5929 119.602C67.6157 119.064 69.6727 120.414 71.996 121.799C72.7886 122.409 73.5856 123.223 74.3894 124.166C74.7204 124.578 74.8956 124.854 75.1204 125.231" stroke="#EF1D26" stroke-linecap="round"/>
<path id="Vector 148" d="M64.667 110.182C64.7571 110.392 65.2523 111.386 65.8096 112.378C66.0061 112.727 66.3019 113.231 66.5468 113.429C66.7918 113.627 66.9786 113.505 67.1433 113.353C67.815 112.735 68.6288 111.614 69.5848 110.763C69.7661 110.602 69.9504 110.531 70.0225 110.617C70.681 111.401 69.5009 113.284 69.5261 114.551C69.5414 115.316 72.0514 113.113 73.2859 112.435C73.4577 112.341 73.6093 112.225 73.7166 112.356C74.7668 113.636 74.7016 115.613 74.9032 115.841C75.4142 116.421 76.6409 114.977 77.8208 114.471C78.7685 114.064 77.383 116.987 77.4321 117.673C77.4742 118.261 79.7691 117.008 81.1562 116.868C81.3512 116.848 81.4952 116.691 81.3848 116.849C80.3088 118.391 79.1048 119.296 77.4454 122.128C76.8353 123.048 76.2343 123.927 75.5674 124.895C75.2804 125.258 75.0976 125.361 74.6984 125.063" stroke="#EF1D26" stroke-linecap="round"/>
<path id="Vector 149" d="M63.7574 106.834C63.7446 106.834 63.772 107.024 63.9373 107.397C64.0284 107.602 64.296 107.747 64.5028 107.836C64.7097 107.925 64.8889 107.93 65.052 107.841C65.4104 107.646 65.5569 107.212 65.6396 106.867C65.6812 106.694 65.6678 106.514 65.6016 106.363C65.5355 106.212 65.4033 106.094 65.1133 106.026C64.8233 105.958 64.3795 105.945 64.1133 106.011C63.8471 106.078 63.7718 106.225 63.6943 106.417" stroke="#EF1D26" stroke-linecap="round"/>
<path id="Vector 150" d="M70.2349 107.63C70.2371 107.978 70.3184 108.806 70.5047 109.089C70.5974 109.23 70.7537 109.314 70.8969 109.308C71.206 109.295 71.4397 108.922 71.6201 108.615C71.7071 108.466 71.7164 108.299 71.669 108.151C71.5001 107.871 71.1225 107.619 70.653 107.434C70.4358 107.364 70.2613 107.342 69.9385 107.34" stroke="#EF1D26" stroke-linecap="round"/>
<path id="Vector 151" d="M75.328 110.434C75.2613 110.569 75.1399 111.094 75.2298 111.394C75.2737 111.54 75.444 111.62 75.6007 111.667C75.9174 111.763 76.2675 111.641 76.5497 111.44C76.849 111.227 76.8265 110.627 76.7891 110.1C76.7733 109.877 76.6237 109.764 76.4698 109.685C76.1264 109.57 75.7818 109.58 75.5018 109.715C75.3713 109.802 75.2642 109.928 75.123 110.284" stroke="#EF1D26" stroke-linecap="round"/>
<path id="Vector 152" d="M78.7514 112.406C78.7514 112.418 78.839 112.55 79.0802 112.765C79.3748 113.027 79.8306 112.916 80.117 112.797C80.2615 112.737 80.3455 112.568 80.4064 112.414C80.4674 112.26 80.4876 112.099 80.4285 111.952C79.8854 111.456 79.1306 111.231 78.4657 111.252C78.3414 111.324 78.2799 111.482 78.3215 112.085" stroke="#EF1D26" stroke-linecap="round"/>
<path id="Vector 153" d="M82.6316 115.941C82.7828 116.091 83.201 116.45 83.5094 116.506C83.6659 116.535 83.8329 116.455 83.9651 116.355C84.2308 116.156 84.3758 115.823 84.4779 115.526C84.5287 115.379 84.4376 115.206 84.2333 115.056C83.7322 114.688 83.1564 114.621 82.8537 114.678C82.7118 114.757 82.5938 114.935 82.5112 115.114C82.4287 115.292 82.3853 115.465 82.3218 115.682" stroke="#EF1D26" stroke-linecap="round"/>
<path id="Vector 134" d="M47.0047 43.6327C46.9711 43.6327 46.775 43.6327 46.5132 43.7057C46.4066 43.7354 46.4478 43.9246 46.4828 44.0679C46.5178 44.2111 46.5694 44.3472 46.6667 44.4251C46.7639 44.5029 46.9053 44.5184 47.0479 44.498C47.1905 44.4776 47.33 44.4209 47.4317 44.3285C47.5335 44.2361 47.5932 44.1096 47.6134 43.9752C47.6336 43.8408 47.6123 43.7024 47.2531 43.4229" stroke="#EF1D26" stroke-linecap="round"/>
<path id="Vector 135" d="M41.4267 40.2904C41.4166 40.3003 41.419 40.6977 41.5018 41.3059C41.5327 41.5324 41.7196 41.5491 41.8623 41.5489C42.005 41.5487 42.1435 41.5202 42.2615 41.4552C42.3795 41.3902 42.4729 41.2895 42.5267 41.0615C42.5806 40.8335 42.5921 40.4811 42.531 40.2692C42.4699 40.0572 42.3358 39.9963 42.1928 39.9649C42.0497 39.9335 41.9017 39.9335 41.7627 39.9551C41.6238 39.9768 41.4984 40.02 41.3691 40.0646" stroke="#EF1D26" stroke-linecap="round"/>
<path id="Vector 136" d="M27.7549 39.8609C27.7297 39.8609 27.5686 39.876 27.3651 39.97C27.1638 40.0631 27.5036 40.4805 27.737 40.7044C27.8445 40.8074 27.9988 40.8019 28.1171 40.7546C28.6218 40.553 28.8193 39.9119 28.8287 39.3989C28.8403 38.7665 27.6742 38.9679 27.3224 39.0207C27.1839 39.0792 27.1267 39.2023 27.0817 39.3641C27.0368 39.5259 27.0059 39.7228 26.9741 40.065" stroke="#EF1D26" stroke-linecap="round"/>
<path id="Vector 137" d="M36.2933 40.5213C36.2736 40.5213 35.8357 40.5213 35.1736 40.5893C34.9308 40.6143 34.911 40.7935 34.9231 40.9284C34.9351 41.0633 34.9883 41.1928 35.0985 41.2852C35.3371 41.4852 35.6894 41.4876 35.9575 41.4521C36.0873 41.4349 36.1819 41.3228 36.241 41.2103C36.3002 41.0978 36.3153 40.9636 36.2928 40.8253C36.2704 40.6871 36.21 40.5489 36.0804 40.4746C35.9509 40.4003 35.754 40.394 35.456 40.53" stroke="#EF1D26" stroke-linecap="round"/>
<path id="Vector 138" d="M27.5685 32.4684C27.5576 32.4684 27.4137 32.5536 27.1925 32.7514C27.0883 32.8446 27.0864 33.0015 27.117 33.1225C27.1476 33.2435 27.2328 33.3438 27.3439 33.3858C27.455 33.4278 27.5895 33.4084 27.7099 33.3464C27.8303 33.2844 27.9326 33.1804 27.9938 33.056C28.1162 32.8073 28.0795 32.4905 27.9935 32.2389C27.9174 32.1411 27.7757 32.104 27.6321 32.1055C27.4885 32.1071 27.3473 32.1485 27.0254 32.4756" stroke="#EF1D26" stroke-linecap="round"/>
</g>
</svg>
