<svg width="182" height="228" viewBox="0 0 182 228" fill="none" xmlns="http://www.w3.org/2000/svg">
<g id="Huh cat">
<path id="Vector 104" d="M19.0517 150.215C19.0055 150.215 18.9592 150.215 18.2978 150.011C17.6365 149.807 16.3613 149.399 13.8643 148.241C11.3673 147.082 7.68693 145.184 2.00098 142.604" stroke="#EF1D26" stroke-width="4" stroke-linecap="round"/>
<path id="Vector 105" d="M22.7177 161.098C22.6427 161.098 20.2414 161.098 15.8739 161.4C13.8692 161.702 12.2941 162.306 11.0051 162.886C9.71611 163.467 8.76103 164.005 7.2959 164.674" stroke="#EF1D26" stroke-width="4" stroke-linecap="round"/>
<path id="Vector 106" d="M68.9803 132.228C68.9803 130.822 68.2878 126.832 62.8724 117.826C58.2881 110.202 56.7582 106.732 56.027 105.884C53.7847 103.283 50.2448 119.865 40.79 145.862C37.6637 154.458 37.6056 158.54 37.8761 160.759C38.3647 164.767 43.7389 165.91 57.8127 172.858C60.8706 174.333 61.7919 174.677 63.0266 175.095C64.2613 175.512 65.7814 175.994 67.6355 176.709" stroke="#EF1D26" stroke-width="4" stroke-linecap="round"/>
<path id="Vector 107" d="M67.6348 176.709C67.6348 176.857 67.6348 191.964 68.2011 215.28C68.4027 223.581 69.9 224.645 70.9722 225.248C72.0445 225.852 73.0221 225.944 74.3039 225.27C80.7262 221.892 82.943 216.074 87.3226 210.172C88.6156 208.429 90.4115 206.958 91.7823 206.199C93.153 205.441 94.1919 205.559 95.1721 205.859C99.2728 207.114 102.472 211.767 104.889 216.188C107.768 221.454 109.797 223.685 111.258 224.497C116.791 227.573 119.294 210.961 121.089 207.356C122.057 205.411 124.339 203.864 126.822 202.524C128.967 201.366 131.74 201.679 134.437 201.908C139.23 202.316 143.015 206.917 146.614 209.623C148.108 210.333 148.927 209.695 149.354 208.771C149.781 207.848 149.791 206.658 150.006 204.223" stroke="#EF1D26" stroke-width="4" stroke-linecap="round"/>
<path id="Vector 108" d="M149.717 213.084C150.068 211.372 151.692 206.325 153.098 194.714C154.154 185.998 151.996 182.087 148.934 175.747C143.921 165.368 136.662 158.625 130.497 152.543C120.201 142.388 117.398 122.734 116.026 118.719C114.289 113.636 111.499 110.24 109.313 107.072C108.197 105.455 106.378 104.712 104.712 104.472C103.887 104.353 103.072 104.788 102.352 105.726C99.0945 109.971 94.6744 120.555 90.1719 127.565C88.4963 130.174 86.5512 131.904 84.6839 132.553C78.9311 132.976 75.6442 133.526 73.9912 133.793C73.1161 133.919 72.1672 134.027 70.1182 134.24" stroke="#EF1D26" stroke-width="4" stroke-linecap="round"/>
<path id="Vector 109" d="M131.156 156.222C132.986 156.21 138.625 155.569 142.057 154.227C149.752 151.218 147.799 132.829 149.584 128.966C151.26 125.339 163.127 125.89 170.07 126.842C174.834 127.494 177.838 140.244 179.513 146.866C180.604 151.178 177.531 155.337 174.049 159.432C167.485 166.345 160.45 171.654 154.986 174.945C152.862 176.136 152.055 176.352 149.673 175.482" stroke="#EF1D26" stroke-width="4" stroke-linecap="round"/>
<path id="Vector 110" d="M131.035 157.784C130.914 157.784 128.674 157.784 124.972 157.94C122.642 158.409 119.665 159.88 115.478 162.23C113.438 163.431 111.57 164.649 109.646 165.905" stroke="#EF1D26" stroke-width="4" stroke-linecap="round"/>
<path id="Vector 111" d="M105.311 148.142C105.276 148.142 101.605 148.178 95.9564 148.248C93.7326 148.276 93.2555 148.532 92.7787 148.916C92.2973 149.305 91.9708 149.769 91.743 150.185C91.5159 150.6 91.5837 151.289 91.7201 151.935C91.9511 153.029 93.8722 152.877 96.8219 153.162C101.602 153.624 103.627 152.617 105.038 151.803C105.296 151.655 105.335 151.364 105.325 151.132C105.314 150.9 105.196 150.663 105.011 150.471C104.202 149.63 101.155 149.739 96.8349 150.328C96.071 150.461 95.8048 150.49 95.4477 150.516C95.0906 150.542 94.6505 150.563 93.5065 150.645" stroke="#EF1D26" stroke-width="4" stroke-linecap="round"/>
<path id="Vector 112" d="M63.4894 148.902C60.8352 148.037 54.4764 146.228 52.9099 146.484C50.8024 146.828 49.6347 148.25 49.4066 148.649C49.2947 148.845 49.3966 149.114 49.6421 149.422C51.1732 151.344 54.0943 152.005 56.1359 152.247C58.1683 152.488 59.98 152.121 60.9061 151.824C61.5603 151.614 61.9466 151.229 62.1068 150.874C61.9022 150.528 60.7309 150.102 58.1132 149.668C56.4661 149.486 54.1718 149.381 51.5446 149.19" stroke="#EF1D26" stroke-width="4" stroke-linecap="round"/>
<path id="Vector 113" d="M31.6846 6.19189C31.6697 7.20903 33.9302 17.8175 36.4684 32.5358C36.8518 41.1143 37.2524 44.379 37.5644 45.7369C37.62 46.4498 37.4673 47.2107 37.31 47.9948" stroke="#EF1D26" stroke-width="4" stroke-linecap="round"/>
<path id="Vector 114" d="M36.4082 31.6694C36.4082 31.6422 36.4082 31.615 39.1006 31.5873C41.7929 31.5597 47.1777 31.5325 53.4996 31.1108" stroke="#EF1D26" stroke-width="4" stroke-linecap="round"/>
<path id="Vector 115" d="M49.7598 7.41064C49.7598 8.2733 50.1828 11.9537 54.3701 23.359C55.7398 27.6768 57.1397 33.2134 57.9706 37.0486C58.8015 40.8838 59.0209 42.8499 59.247 44.8755" stroke="#EF1D26" stroke-width="4" stroke-linecap="round"/>
<path id="Vector 116" d="M72.0537 21.3687C72.0555 24.415 72.5102 32.3018 73.6632 35.6806C74.1376 37.0709 75.5819 38.0144 77.0949 38.9484C78.5709 39.8595 80.8414 40.1538 83.3102 40.0953C84.3768 40.07 85.0461 39.7392 85.8279 38.2516C86.6096 36.764 87.4785 34.0492 87.9319 31.8173C88.3852 29.5854 88.3966 27.9186 88.4084 26.2014" stroke="#EF1D26" stroke-width="4" stroke-linecap="round"/>
<path id="Vector 117" d="M97.3241 2.00049C97.275 2.09704 99.3079 13.0663 102.67 30.5714C104.31 39.108 105.415 41.5807 106.435 42.2369C107.493 42.9173 109.73 36.4808 112.587 29.3055C115.776 21.2983 119.977 19.4306 121.225 18.7801C121.88 18.4389 122.795 18.6149 123.654 19.115C126.565 22.2377 127.919 25.2197 128.999 30.7207C129.298 33.5626 129.656 38.3013 130.297 43.8752" stroke="#EF1D26" stroke-width="4" stroke-linecap="round"/>
</g>
</svg>
