<svg width="71" height="148" viewBox="0 0 71 148" fill="none" xmlns="http://www.w3.org/2000/svg">
<g id="Nature objects">
<path id="Vector 154" d="M34.5664 47.7929C34.6062 47.7929 35.9483 47.7965 38.2542 48.0434C41.0221 48.3397 40.9405 50.3599 41.0797 50.6109C41.2395 50.8992 41.0684 49.4609 40.803 48.4878C41.4854 46.1745 43.3337 43.5651 43.8118 43.2778C44.0698 43.1651 44.3589 43.1196 44.715 43.0425" stroke="#EF1D26" stroke-linecap="round"/>
<path id="Vector 155" d="M48.8955 35.1656C49.2571 35.1656 51.746 35.7638 53.3721 36.7139C53.6439 36.8727 53.7015 37.2519 53.7051 37.2067C53.8017 36.0061 52.9172 34.86 53.0815 33.7268C53.1972 33.4625 53.3822 33.2185 53.6222 33.0235C53.8622 32.8284 54.1517 32.6898 55.0653 32.1309" stroke="#EF1D26" stroke-linecap="round"/>
<path id="Vector 156" d="M15.1533 47.6875C16.7313 47.6417 21.4472 48.869 22.7271 49.9754C23.6889 50.8069 21.2436 47.3885 20.8839 45.8071C20.7342 45.1489 21.0249 44.376 21.4397 43.6432C21.6751 43.3584 21.9614 43.2507 22.1989 42.9348C22.4363 42.619 22.6163 42.0984 23.0744 41.4692" stroke="#EF1D26" stroke-linecap="round"/>
<path id="Vector 157" d="M9.87856 9.77831C9.85793 9.77831 9.58129 9.84374 9.09928 10.0739C8.58721 10.3185 8.56234 11.475 8.60874 12.7198C8.64254 13.6263 9.05382 14.1662 9.51041 14.5033C11.2417 15.7815 14.4547 14.8237 14.9117 14.4154C15.4331 13.9497 15.679 13.2248 15.8039 12.3562C15.9681 11.2146 15.7595 10.2447 15.3381 9.6262C14.8016 8.83888 13.9311 8.46194 13.1724 8.19665C12.1251 7.83046 11.0466 8.1625 10.3663 8.47937C10.058 8.65541 9.82471 8.8624 9.65936 9.10025C9.49401 9.33811 9.40368 9.60057 9.31061 10.2363" stroke="#EF1D26" stroke-linecap="round"/>
<path id="Vector 158" d="M0.501774 10.0243C0.479013 10.0016 0.944199 9.97846 1.80869 10.0083C2.19627 10.0496 2.48007 10.1438 2.74203 10.2799C3.00399 10.4159 3.23551 10.5909 3.47405 10.7712" stroke="#EF1D26" stroke-linecap="round"/>
<path id="Vector 159" d="M3.47461 3.44043C3.49524 3.44043 3.79429 3.54108 4.35132 3.79457C4.85998 4.14942 5.34204 4.57875 5.95213 5.11076C6.32751 5.42156 6.83643 5.81525 7.46854 6.2586" stroke="#EF1D26" stroke-linecap="round"/>
<path id="Vector 160" d="M12.8652 0.00311324C12.8652 -0.00791156 12.8652 -0.0189363 12.8652 0.523068C12.8652 1.06507 12.8652 2.16044 12.9118 2.86146C12.9584 3.56248 13.0516 3.83597 13.1476 4.11774" stroke="#EF1D26" stroke-linecap="round"/>
<path id="Vector 161" d="M17.9043 5.94617C17.9043 5.93586 17.9043 5.92555 18.0585 5.76055C18.2126 5.59556 18.521 5.27619 18.9195 4.90594C19.3181 4.53568 19.7975 4.12421 20.6847 3.0127" stroke="#EF1D26" stroke-linecap="round"/>
<path id="Vector 162" d="M18.8408 12.0635C18.8671 12.0635 19.1698 12.1719 19.7326 12.4163C20.2555 12.7122 20.7534 13.0567 21.2747 13.3505C21.5549 13.4648 21.8668 13.5081 22.4823 13.6951" stroke="#EF1D26" stroke-linecap="round"/>
<path id="Vector 163" d="M14.3672 18.2827C14.3672 18.3126 14.3672 18.3425 14.3672 18.9377C14.3672 19.533 14.3672 20.6927 14.4461 21.4081C14.5251 22.1234 14.683 22.3592 15.1399 22.864" stroke="#EF1D26" stroke-linecap="round"/>
<path id="Vector 164" d="M9.32413 17.5713C8.97816 17.5891 7.85222 17.8492 6.71787 18.888C6.47888 19.1847 6.31493 19.4554 6.15686 19.7157C5.99878 19.9761 5.85155 20.2179 5.44336 20.4681" stroke="#EF1D26" stroke-linecap="round"/>
<path id="Vector 165" d="M42.1245 146.933C42.1136 146.933 42.1028 146.933 42.0918 144.238C42.0808 141.544 42.0699 136.155 42.2838 130.878" stroke="#EF1D26" stroke-linecap="round"/>
<path id="Vector 166" d="M46.1643 146.465C46.1643 146.105 45.8489 143.961 45.7529 136.802C45.8404 135.101 46.0262 134.102 46.1383 133.456C46.2503 132.81 46.2828 132.546 46.3503 131.863" stroke="#EF1D26" stroke-linecap="round"/>
<path id="Vector 167" d="M41.3271 131.379C41.3271 131.358 45.3718 131.27 53.7616 130.763C58.1198 130.5 62.6295 129.555 65.0942 129.174C68.3912 128.664 69.3378 129.025 69.7622 129.296C69.9065 129.99 69.7 131.348 69.3454 134.414C69.1973 136.589 69.1139 140.019 69.1626 143.867" stroke="#EF1D26" stroke-linecap="round"/>
<path id="Vector 168" d="M65.5538 129.954C65.5538 129.963 65.5538 129.973 65.4856 132.052C65.4175 134.131 65.2812 138.279 65.2274 140.574C65.1736 142.868 65.2065 143.184 65.4438 143.965" stroke="#EF1D26" stroke-linecap="round"/>
<path id="Vector 169" d="M42.4375 131.469C42.4375 131.445 42.4375 129.815 42.9018 127.352C43.0804 126.405 44.2948 126.485 47.2527 125.948C50.2105 125.411 55.1695 124.359 58.4087 123.746C62.9971 122.876 64.6275 122.84 65.019 122.87C66.1331 122.953 67.5064 123.254 68.007 123.311C68.5823 123.901 69.2324 126.617 69.5845 128.631C69.6312 128.888 69.6771 129.058 69.7245 129.65" stroke="#EF1D26" stroke-linecap="round"/>
</g>
</svg>
