<svg width="802" height="266" viewBox="0 0 802 266" fill="none" xmlns="http://www.w3.org/2000/svg">
<g id="Photo frame brackets">
<path id="Vector 216" d="M56.7263 16.1782C56.6994 16.1782 56.6725 16.1782 47.2614 16.3742C37.8503 16.5702 19.0558 16.9621 9.70211 17.2775C0.348377 17.5928 1.00491 17.8198 2.12566 17.9519C4.79791 18.267 7.21148 18.5146 8.62751 19.3615C9.91972 20.1343 10.9091 22.7757 12.3779 27.0425C13.7695 32.7291 14.4706 44.1229 14.3618 57.2648C14.2431 62.2942 13.9956 63.9947 13.2132 67.6057" stroke="#EF1D26" stroke-width="3" stroke-linecap="round"/>
<path id="Vector 217" d="M714.025 11.4042C713.894 11.4042 739.22 11.3364 779.429 10.9596C794.246 10.8207 797.71 10.1021 798.623 10.17C805.539 10.6844 781.616 24.2666 775.51 33.4879C771.418 40.236 769.393 48.3362 769.473 54.612C769.681 57.3054 770.232 59.0013 774.527 63.8859" stroke="#EF1D26" stroke-width="3" stroke-linecap="round"/>
<path id="Vector 218" d="M1.97998 200.435C1.97998 200.143 1.97998 219.301 3.06083 246.85C3.38662 255.154 6.30337 251.675 8.42478 249.196C17.5568 238.524 38.1744 234.372 59.7278 233.584C64.5271 234.033 67.3938 235.07 69.7641 236.152C72.1344 237.234 73.9213 238.328 78.5212 242.613" stroke="#EF1D26" stroke-width="3" stroke-linecap="round"/>
<path id="Vector 219" d="M788.064 179.917C788.064 199.884 786.29 238.913 782.458 238.053C760.68 236.762 727.095 238.887 722.037 242.729C719.962 244.446 718.887 245.689 717.381 247.245" stroke="#EF1D26" stroke-width="3" stroke-linecap="round"/>
<path id="Vector 220" d="M176.798 8.69214C176.798 8.63772 176.798 8.58329 193.597 8.52805C210.396 8.4728 243.994 8.41838 278.61 8.3623" stroke="#EF1D26" stroke-width="3" stroke-linecap="round"/>
<path id="Vector 221" d="M379.013 1.5C378.957 1.55442 378.901 1.60885 392.09 1.66409C405.28 1.71934 431.717 1.77376 458.956 1.82983" stroke="#EF1D26" stroke-width="3" stroke-linecap="round"/>
<path id="Vector 222" d="M547.059 3.56396C547.113 3.61839 547.167 3.67281 556.664 3.72806C566.161 3.7833 585.098 3.83773 604.609 3.8938" stroke="#EF1D26" stroke-width="3" stroke-linecap="round"/>
<path id="Vector 223" d="M166.456 264.335H220.975" stroke="#EF1D26" stroke-width="3" stroke-linecap="round"/>
<path id="Vector 224" d="M320.148 250.546H428.882" stroke="#EF1D26" stroke-width="3" stroke-linecap="round"/>
<path id="Vector 225" d="M545.867 253.228H631.268" stroke="#EF1D26" stroke-width="3" stroke-linecap="round"/>
</g>
</svg>
