<svg width="90" height="86" viewBox="0 0 90 86" fill="none" xmlns="http://www.w3.org/2000/svg">
<g id="Star 1">
<path id="Vector 67" d="M31.0186 1.63698C31.0186 1.61202 31.0186 1.58705 31.0959 4.42876C31.1732 7.27047 31.3279 12.9796 33.662 26.6221C35.9962 40.2646 40.5052 61.6675 45.7 84.1973" stroke="#EF1D26" stroke-width="3" stroke-linecap="round"/>
<path id="Vector 68" d="M30.9104 1.5C31.8491 1.5435 35.8565 2.4711 52.46 13.5836C60.325 18.8476 70.7117 28.5963 76.4395 33.5988C83.5834 39.8379 84.9048 42.5547 87.8808 46.0288C88.2616 46.4733 86.8908 46.5894 82.1916 45.8662C77.4925 45.143 69.1953 43.7166 54.7871 42.9567C40.3788 42.1969 20.1109 42.147 10.0141 42.0995C-0.0825911 42.052 0.606084 42.0085 2.99546 41.3329C5.38484 40.6573 9.45406 39.3508 16.2474 36.0544C23.0408 32.7579 32.4349 27.5111 42.2896 20.8115C52.1442 14.1119 62.1747 6.1184 66.3733 4.01866C70.572 1.91892 68.6348 5.95511 64.9273 13.255C61.2198 20.5549 55.8006 30.9961 52.4773 37.8063C49.154 44.6164 48.0908 47.4791 46.8677 52.0532C45.6446 56.6273 44.2938 62.8262 43.5625 67.7867C42.8312 72.7473 42.7604 76.2817 42.5433 80.0672" stroke="#EF1D26" stroke-width="3" stroke-linecap="round"/>
</g>
</svg>
