<svg width="156" height="153" viewBox="0 0 156 153" fill="none" xmlns="http://www.w3.org/2000/svg">
<g id="Sun">
<path id="Vector 31" d="M65.888 38.8259C63.4736 38.8462 57.2667 39.1124 48.8721 44.2487C42.6249 48.071 38.7334 62.8186 36.2072 76.39C34.2372 86.9733 38.257 92.0392 44.1462 99.7068C50.6016 108.112 59.5448 110.77 66.5408 113.297C72.5922 115.484 87.4511 115.142 95.4853 114.056C100.299 113.404 102.162 108.226 105.315 103.298C107.185 100.375 108.657 96.5518 109.986 92.1536C114.493 77.2466 110.164 58.2042 108.051 53.1376C105.71 47.5255 98.7028 43.7074 88.4056 38.958C84.9567 37.8231 82.5923 37.3393 78.73 37.1067C75.8806 37.0028 71.2252 36.9278 64.9695 37.4373" stroke="#EF1D26" stroke-width="4" stroke-linecap="round"/>
<path id="Vector 32" d="M69.1328 30.6323C69.1328 30.5714 69.1328 28.4628 68.9752 24.6047C68.5022 21.4026 66.0778 16.0025 62.5924 9.6056C61.2067 7.14426 60.5984 6.27644 59.9717 5.38232" stroke="#EF1D26" stroke-width="4" stroke-linecap="round"/>
<path id="Vector 33" d="M41.7746 36.7124C40.6749 36.4863 35.6742 34.5776 24.5677 28.8497C22.3308 27.703 21.541 27.3846 19.8735 26.9322C18.206 26.4798 15.6847 25.9029 13.0869 25.3086" stroke="#EF1D26" stroke-width="4" stroke-linecap="round"/>
<path id="Vector 34" d="M24.1102 64.3521C23.9237 64.3521 20.262 64.3521 14.2417 64.461C10.5512 64.788 8.27728 65.4951 6.16354 66.6876C5.05042 67.3975 3.85514 68.32 2 70.0048" stroke="#EF1D26" stroke-width="4" stroke-linecap="round"/>
<path id="Vector 35" d="M25.5331 97.2822C22.7077 97.2822 15.1674 98.2109 11.7726 100.628C10.976 101.368 10.1913 102.23 9.37546 103.368C8.55962 104.506 7.73641 105.893 6.16016 108.993" stroke="#EF1D26" stroke-width="4" stroke-linecap="round"/>
<path id="Vector 36" d="M45.253 116.597C45.253 116.714 45.253 117.862 44.8196 121.429C43.5194 127.751 41.9542 133.654 40.9023 137.423C40.5226 139.246 40.4557 140.889 40.3867 142.581" stroke="#EF1D26" stroke-width="4" stroke-linecap="round"/>
<path id="Vector 37" d="M82.2812 126.363C82.2812 126.475 82.2954 132.447 82.4528 141.928C82.596 145.494 82.8677 146.533 83.258 147.569C83.6484 148.604 84.1492 149.603 84.6652 150.633" stroke="#EF1D26" stroke-width="4" stroke-linecap="round"/>
<path id="Vector 38" d="M113.07 110.446C113.125 110.446 115.712 110.446 120.078 110.629C122.862 111.178 124.883 112.273 128.726 115.31C131.556 117.628 136.171 121.527 140.925 125.543" stroke="#EF1D26" stroke-width="4" stroke-linecap="round"/>
<path id="Vector 39" d="M129.061 70.3184C129.174 70.3184 134.898 70.363 144.021 70.4888C147.479 70.5701 148.559 70.6867 149.66 70.7468C150.76 70.8068 151.849 70.8068 152.971 70.8068" stroke="#EF1D26" stroke-width="4" stroke-linecap="round"/>
<path id="Vector 40" d="M125.765 46.7395C125.878 46.7395 127.5 45.6953 132.808 42.927C136.552 41.2029 142.43 38.8306 146.311 37.1335C150.192 35.4365 151.899 34.4865 153.657 33.5078" stroke="#EF1D26" stroke-width="4" stroke-linecap="round"/>
<path id="Vector 41" d="M106.462 31.7107C106.462 30.4609 107.419 25.1243 109.757 20.0905C110.811 18.3499 112.512 15.7231 114.966 12.5521C117.42 9.38119 120.575 5.74568 123.826 2" stroke="#EF1D26" stroke-width="4" stroke-linecap="round"/>
</g>
</svg>
