<svg width="75" height="11" viewBox="0 0 75 11" fill="none" xmlns="http://www.w3.org/2000/svg">
<path id="venkat name underline" d="M1 3.48441C1.26859 3.48441 3.50563 3.1647 11.0025 2.43296C16.8556 1.86165 26.9221 1.52624 33.1058 1.42772C39.2894 1.3292 41.299 1.64183 42.2109 1.85097C43.1228 2.06011 42.8761 2.15628 42.072 2.39205C39.9203 3.02293 37.2861 4.00253 34.9568 5.23751C32.875 6.34123 31.4152 7.53811 30.5166 8.45072C30.1322 8.84111 30.1153 9.27519 30.2348 9.46117C30.4842 9.84923 32.6767 9.13526 39.5852 7.26233C44.8073 5.84774 53.514 3.49077 59.8291 2.26628C66.1442 1.04179 69.8038 1.02121 73.5743 1" stroke="#EF1D26" stroke-width="2" stroke-linecap="round"/>
</svg>
