<svg width="89" height="147" viewBox="0 0 89 147" fill="none" xmlns="http://www.w3.org/2000/svg">
<g id="WIP - outline">
<path id="Vector 193" d="M51.4952 55.2388C51.4721 55.2388 51.1465 55.2483 50.5725 55.386C49.6545 56.4567 49.0548 57.7476 48.8894 58.5342C48.8024 58.9279 48.7093 59.3104 48.6133 60.4332" stroke="#EF1D26" stroke-linecap="round"/>
<path id="Vector 194" d="M65.8848 52.563C65.9094 52.563 66.2243 52.6924 66.866 53.2037C67.2056 53.5856 67.5734 54.2162 67.8545 54.7042C68.1355 55.1923 68.3186 55.5187 68.7522 56.6669" stroke="#EF1D26" stroke-linecap="round"/>
<path id="Vector 195" d="M42.0943 77.4517C42.0696 77.4517 41.6218 77.6037 40.8789 77.9635C40.404 78.43 40.0216 79.1472 39.387 80.2713C38.9626 80.9447 38.3305 81.8273 37.4512 83.3349" stroke="#EF1D26" stroke-linecap="round"/>
<path id="Vector 196" d="M49.5488 67.8944C49.5488 67.8705 49.5998 68.1604 49.7522 68.863C50.0042 69.7531 50.3599 70.5196 50.7705 71.0438C50.9806 71.3061 51.194 71.5609 51.5658 72.0804" stroke="#EF1D26" stroke-linecap="round"/>
<path id="Vector 197" d="M68.8156 68.4429C68.8156 68.4676 68.8156 69.0185 68.7752 70.022C68.7348 70.4874 68.654 70.8636 68.591 71.2164C68.5281 71.5693 68.4855 71.8873 68.1533 72.3091" stroke="#EF1D26" stroke-linecap="round"/>
<path id="Vector 198" d="M36.8115 90.0952C36.8115 90.1076 36.8115 90.1199 36.8065 90.5833C36.8016 91.0466 36.7916 91.9606 36.7306 92.6142C36.6695 93.2678 36.5576 93.6332 36.4014 94.9181" stroke="#EF1D26" stroke-linecap="round"/>
<path id="Vector 199" d="M36.9502 103.189C36.9502 103.223 36.9502 104.244 37.0768 105.921C37.4566 106.912 37.8687 107.562 38.1001 108.242C38.1802 108.598 38.1846 108.975 37.8899 109.455" stroke="#EF1D26" stroke-linecap="round"/>
<path id="Vector 200" d="M37.8672 117.885C37.8672 117.931 37.8672 118.578 37.9285 119.772C38.1124 120.841 38.3319 121.905 38.5321 122.895C38.6392 123.334 38.7575 123.646 38.8467 123.84" stroke="#EF1D26" stroke-linecap="round"/>
<path id="Vector 201" d="M74.1689 76.4458C74.1689 76.4705 74.5248 76.6424 75.1984 76.9709C75.5161 77.1401 75.7848 77.3144 76.0307 77.5267C76.2766 77.7389 76.4916 77.9837 77.268 78.8042" stroke="#EF1D26" stroke-linecap="round"/>
<path id="Vector 202" d="M82.2051 82.8672C82.2051 82.8895 82.2051 83.8882 82.2439 85.5855C82.2827 86.2955 82.3603 86.6984 82.4867 87.0956C82.6131 87.4928 82.7858 87.8722 82.9639 88.2631" stroke="#EF1D26" stroke-linecap="round"/>
<path id="Vector 203" d="M85.166 94.3525C85.166 94.3645 85.166 94.3764 85.166 94.9389C85.166 95.5014 85.166 96.614 85.2912 97.7429C85.4164 98.8719 85.6668 99.9833 85.961 100.763" stroke="#EF1D26" stroke-linecap="round"/>
<path id="Vector 204" d="M87.5117 108.088C87.5117 108.1 87.5117 108.113 87.5121 109.08C87.5125 110.048 87.5133 111.971 87.62 113.548C87.7267 115.126 87.9393 116.3 88.0015 117.9" stroke="#EF1D26" stroke-linecap="round"/>
<path id="Vector 205" d="M87.0762 124.203C87.0762 124.257 87.0762 125.262 87.1514 126.876C87.2266 127.514 87.3771 127.782 87.5552 128.117C87.7332 128.452 87.9342 128.846 88.1414 129.252" stroke="#EF1D26" stroke-linecap="round"/>
<path id="Vector 206" d="M87.5232 136.48C87.5232 136.501 87.5232 137.452 87.3701 138.926C87.217 139.461 86.9109 139.561 86.5595 139.691C86.2082 139.821 85.8208 139.979 84.5303 140.106" stroke="#EF1D26" stroke-linecap="round"/>
<path id="Vector 207" d="M38.3389 130.793C38.3389 130.831 38.3389 130.869 38.3389 131.389C38.3389 131.909 38.3389 132.91 38.3805 133.661C38.4221 134.412 38.5053 134.883 39.0964 135.797" stroke="#EF1D26" stroke-linecap="round"/>
<path id="Vector 208" d="M41.7015 142.07C41.676 142.07 41.8691 142.369 42.2016 143.258C42.3279 143.847 42.3681 144.717 42.4575 145.304C42.5469 145.891 42.6843 146.169 42.8656 146.492" stroke="#EF1D26" stroke-linecap="round"/>
<path id="Vector 209" d="M83.1719 142.845L83.3697 143.697" stroke="#EF1D26" stroke-linecap="round"/>
<path id="Vector 210" d="M0.501309 28.5166C0.479824 29.0465 0.716806 30.9434 1.66108 33.0378C2.32778 34.5165 6.88309 38.3593 9.99914 40.651C10.3289 40.8935 10.7417 40.8577 11.0241 40.7545C11.3064 40.6513 11.4995 40.3838 11.6069 40.0505C12.5754 37.0458 10.1124 32.5565 10.0182 32.3024C8.39823 27.9307 21.2812 38.9162 22.2724 39.1497C22.8448 39.2845 20.8593 34.7629 16.6803 27.903C14.54 24.8177 12.3597 22.5363 11.0673 21.23C9.77491 19.9238 9.43654 19.6619 8.99623 19.3618" stroke="#EF1D26" stroke-linecap="round"/>
<path id="Vector 211" d="M21.5371 13.0728C21.6211 13.6468 24.0364 18.9942 26.1536 22.5862C26.7121 23.4823 27.601 24.9747 28.1332 25.9044C28.6654 26.834 28.8139 27.1557 29.1406 27.7561" stroke="#EF1D26" stroke-linecap="round"/>
<path id="Vector 212" d="M16.0615 16.4713C16.6581 15.8536 19.0599 13.5698 24.4692 9.46132C25.5694 8.70928 25.9237 8.6026 26.4505 8.54764C26.9774 8.49268 27.6661 8.49268 28.3757 8.49268" stroke="#EF1D26" stroke-linecap="round"/>
<path id="Vector 213" d="M25.7468 31.9359C25.7341 31.9483 25.7213 31.9606 26.8796 30.9359C28.0378 29.9112 30.3674 27.8491 33.4226 25.2095" stroke="#EF1D26" stroke-linecap="round"/>
<path id="Vector 214" d="M31.5469 4.33936C31.5931 4.33936 34.2438 7.92372 38.3176 13.4895C40.3923 16.2638 41.0698 17.057 41.5621 18.0482C41.8804 18.7431 42.3378 19.8279 42.8091 20.9456" stroke="#EF1D26" stroke-linecap="round"/>
<path id="Vector 215" d="M30.7754 4.60119C31.3526 4.04755 35.5649 1.47877 38.1647 0.566909C39.8545 -0.0257614 41.1199 3.49927 41.6197 5.12115C41.2356 7.82963 39.7601 10.5814 38.0211 12.5192C37.6234 12.9941 37.371 13.3795 37.076 13.7451" stroke="#EF1D26" stroke-linecap="round"/>
</g>
</svg>
