<svg width="245" height="426" viewBox="0 0 245 426" fill="none" xmlns="http://www.w3.org/2000/svg">
<g id="Yap Yap Yap">
<path id="Vector 118" d="M2 2C2.50326 2 12.7975 2 28.4916 3.23391C34.2658 3.68789 35.13 6.93562 36.9108 13.2456C38.6916 19.5556 41.2443 29.633 44.6315 95.3236C48.0187 161.014 52.163 282.013 53.7341 346.267C55.3051 410.522 54.1773 414.366 52.5565 417.165C50.9356 419.964 48.8559 421.601 41.4164 422.499C33.9769 423.397 21.2407 423.506 3.01057 423.949" stroke="#EF1D26" stroke-width="4" stroke-linecap="round"/>
<path id="Vector 119" d="M73.7139 117.919C73.7427 121.519 74.205 128.824 75.3032 130.518C75.8376 131.343 76.9706 131.575 77.9526 131.596C78.9347 131.617 79.8964 131.287 80.8363 130.097C83.1369 127.185 84.821 118.538 86.7512 107.371C87.6007 102.457 87.5442 98.9705 91.6251 109.706C95.7059 120.441 103.762 145.478 108.337 161.099C112.912 176.719 113.762 182.163 113.511 185.373C113.26 188.584 111.882 189.397 110.443 189.806C104.246 191.568 95.5261 184.742 88.3862 178.227C86.9396 176.65 85.8224 175.187 84.9297 173.635C84.037 172.083 83.4026 170.487 82.7489 168.843" stroke="#EF1D26" stroke-width="2" stroke-linecap="round"/>
<path id="Vector 120" d="M104.155 100.286C103.982 100.286 103.806 102.649 104.122 106.565C104.328 109.128 107.399 110.937 109.531 113.026C110.416 113.894 111.642 113.406 112.503 112.812C113.365 112.218 114.014 111.285 114.448 110.322C114.881 109.358 115.079 108.393 114.703 107.617C112.835 103.767 107.232 103.257 105.659 101.736C106.702 101.11 112.591 104.221 120.179 108.818C123.1 110.221 124.134 109.735 125.717 108.838" stroke="#EF1D26" stroke-width="2" stroke-linecap="round"/>
<path id="Vector 121" d="M114.463 93.2C115.157 93.9046 123.284 102.903 135.129 121.395C138.064 125.977 139.661 130.798 138.168 129.886C136.674 128.974 131.633 122.423 125.832 113.902C113.21 95.3627 107.003 83.2215 107.367 80.6665C107.556 79.333 108.522 78.0903 109.444 77.2107C112.973 73.8447 119.505 76.6889 123.954 78.62C125.999 79.508 128 81.7976 129.887 84.7717C132.881 89.4917 131.163 95.4877 129.127 100.133C127.391 102.014 125.317 103.507 122.848 104.763C121.458 105.412 119.79 106.085 117.084 107.334" stroke="#EF1D26" stroke-width="2" stroke-linecap="round"/>
<path id="Vector 122" d="M122.499 171.259C122.499 171.197 123.136 172.231 124.751 173.886C125.548 174.702 127.03 174.548 128.255 174.293C129.481 174.039 130.593 173.452 131.323 172.602C132.761 170.926 130.64 163.847 127.715 155.735C126.838 153.302 127.195 154.289 132.492 162.643C137.788 170.997 148.013 186.688 154.32 197.159C160.627 207.629 162.706 212.402 163.454 215.225C164.202 218.048 163.556 218.777 161.397 219.348C149.422 220.713 139.567 220.003 131.157 216.365C129.277 214.923 127.559 212.982 125.789 210.982" stroke="#EF1D26" stroke-width="2" stroke-linecap="round"/>
<path id="Vector 123" d="M140.511 148.155C140.355 151.673 140.474 160.83 141.465 164.707C141.724 165.72 142.273 166.696 143.015 167.126C143.758 167.555 144.783 167.377 145.502 166.603C146.222 165.83 146.605 164.465 146.626 163.302C146.699 159.059 143.391 156.106 144.135 155.074C145.114 155.324 147.316 157.143 149.53 159.112C151.745 161.081 153.905 163.145 157.392 165.503" stroke="#EF1D26" stroke-width="2" stroke-linecap="round"/>
<path id="Vector 124" d="M153.282 146.175C153.98 148.343 163.649 166.505 175.286 188.694C179.005 195.785 176.941 195.075 173.112 189.909C169.282 184.742 163.405 175.311 158.419 166.153C148.92 148.708 145.847 138.64 148.197 137.28C149.957 136.261 153.755 136.817 156.057 137.359C159.568 138.185 161.8 143.75 163.995 149.803C164.613 152.206 164.223 153.251 163.007 154.338C161.79 155.425 159.759 156.52 157.666 157.649" stroke="#EF1D26" stroke-width="2" stroke-linecap="round"/>
<path id="Vector 125" d="M149.877 243.174C150.496 244.415 153.972 249.023 158.003 252.525C159.559 253.878 161.156 252.876 162.052 252.069C165.643 248.835 165.342 232.768 165.174 222.11C165.151 220.662 172.29 228.505 179.943 237.608C190.72 250.426 193.431 269.901 194.431 278.452C194.647 280.292 194.328 281.978 193.782 283.343C193.237 284.708 192.288 285.714 190.74 286.394C180.197 287.707 168.827 287.353 165.511 286.673C164.024 286.29 162.936 285.83 161.815 285.356" stroke="#EF1D26" stroke-width="2" stroke-linecap="round"/>
<path id="Vector 126" d="M180.907 210.925C180.387 212.195 180.368 219.677 184.597 228.03C185.392 229.6 186.67 229.781 187.616 229.435C192.207 227.757 193.028 219.136 193.638 213.216C193.742 212.211 192.599 211.588 190.936 211.247C189.273 210.906 186.711 210.906 186.062 210.911C186.755 210.926 192.26 212.503 199.845 215.648C203.307 217.227 205.984 218.771 210.527 220.785" stroke="#EF1D26" stroke-width="2" stroke-linecap="round"/>
<path id="Vector 127" d="M194.33 202.475C195.641 202.763 203.641 206.537 217.524 216.497C238.418 231.486 246.48 243.677 243.281 242.425C241.586 241.762 240.056 240.354 231.673 232.511C223.29 224.669 208.18 210.259 200.804 202.403C193.428 194.547 194.243 193.682 196.391 192.388C201.833 189.11 206.68 187.417 209.074 187.542C215.784 187.894 217.012 197.977 217.406 202.793C217.167 203.917 216.55 204.78 215.338 205.686C214.125 206.592 212.336 207.514 209.596 209.113" stroke="#EF1D26" stroke-width="2" stroke-linecap="round"/>
</g>
</svg>
