<svg width="1440" height="72" viewBox="0 0 1440 72" fill="none" xmlns="http://www.w3.org/2000/svg">
<g id="Cloud Top">
<rect width="1440" height="72" fill="white"/>
<g id="Cloud 1">
<path id="Vector" d="M50.1159 7.04092C53.1378 6.96356 56.2922 7.01732 59.3266 7.02991L59.3287 11.7442C61.6544 11.5187 65.9245 11.7439 68.3941 11.7985L68.4542 16.1847L72.9835 16.1826L72.9523 20.5235L77.4393 20.6373L77.4131 25.0422L81.653 25.0965C81.6979 24.1103 81.7215 22.4742 81.8508 21.5459L81.9141 20.8917C82.8475 20.2828 89.4849 20.5804 90.9745 20.6072L91.0713 25.1172L100.28 25.0697L100.307 29.697L104.714 29.7691C104.737 31.1699 104.735 32.6583 104.788 34.0497L118.026 34.1567C118.167 35.7735 118.152 37.1051 118.14 38.7267L122.635 38.7839L122.592 43.2976L127.3 43.4138L127.435 47.9185L52.9447 47.9198C40.1027 47.9198 26.7577 48.1304 13.9491 47.869C14.0424 46.4663 14.1666 45.0152 14.1592 43.6128C13.1708 43.3962 10.6726 43.462 9.53684 43.4633C9.63034 42.1886 9.55849 40.25 9.54369 38.9189C7.89352 38.9179 6.64287 38.8828 5 38.7443L5.05226 34.1097C6.5046 34.1414 8.10437 34.0919 9.56872 34.0754L9.60728 29.7329L14.0093 29.6802C14.0886 28.2356 14.0567 26.5424 14.0604 25.0768L18.5491 25.1096L18.5599 20.6072L27.8758 20.5962L27.8546 25.112L36.7694 25.0952L36.8095 20.5872L41.2124 20.549L41.2402 16.1779L45.7697 16.1674L45.7516 11.7321L50.1277 11.7662L50.1159 7.04092Z" fill="#A9CEEC"/>
<path id="Vector_2" d="M50.1159 7.04092C53.1378 6.96356 56.2922 7.01732 59.3266 7.02991L59.3287 11.7442C61.6544 11.5187 65.9245 11.7439 68.3941 11.7985L68.4542 16.1847L68.4088 16.3688C68.4763 19.1977 68.5022 22.0277 68.4867 24.8576C69.937 25.0191 71.5451 25.2418 72.9927 25.2672L72.9205 34.1527L68.4663 33.9752L68.2847 38.7765L59.3739 38.7244L59.3182 43.5724C56.3963 43.3152 53.0877 43.3574 50.129 43.3277L50.0529 38.8279L45.7039 38.7372L45.6931 34.0512L41.5248 34.0303L41.4653 34.1669C41.4356 35.7324 41.4157 37.141 41.4802 38.706L37.0296 38.7582C36.9635 40.2337 36.9263 41.9178 36.8027 43.3721C29.2909 43.3235 21.7788 43.3451 14.2675 43.4366L14.1592 43.6128C13.1708 43.3962 10.6726 43.462 9.53684 43.4633C9.63034 42.1886 9.55849 40.25 9.54369 38.9189C7.89352 38.9179 6.64287 38.8828 5 38.7443L5.05226 34.1097C6.5046 34.1414 8.10437 34.0919 9.56872 34.0754L9.60728 29.7329L14.0093 29.6802C14.0886 28.2356 14.0567 26.5424 14.0604 25.0768L18.5491 25.1096L18.5599 20.6072L27.8758 20.5962L27.8546 25.112L36.7694 25.0952L36.8095 20.5872L41.2124 20.549L41.2402 16.1779L45.7697 16.1674L45.7516 11.7321L50.1277 11.7662L50.1159 7.04092Z" fill="#E7EBF7"/>
<path id="Vector_3" d="M5 38.7443C8.03062 38.4944 10.8938 38.8041 13.887 38.8128C13.988 40.3814 14.0792 41.8748 14.2675 43.4366L14.1592 43.6128C13.1708 43.3962 10.6726 43.462 9.53684 43.4633C9.63034 42.1887 9.55849 40.25 9.54369 38.919C7.89352 38.9179 6.64287 38.8828 5 38.7443Z" fill="#A9CEEC"/>
<path id="Vector_4" d="M59.3281 11.7443C61.6538 11.5187 65.9239 11.744 68.3935 11.7985L68.4536 16.1848L68.4082 16.3689C67.788 16.13 64.8819 16.1486 64.0384 16.1329L64.0004 11.9758C62.8553 11.9278 60.3074 11.9818 59.3281 11.7443Z" fill="#A9CEEC"/>
<path id="Vector_5" d="M36.9946 29.7279L41.2576 29.7526C41.271 31.419 41.298 32.384 41.5244 34.0302L41.4649 34.1669C40.7747 34.0504 37.8173 34.2012 36.9912 34.2322L36.9946 29.7279Z" fill="#A9CEEC"/>
<path id="Vector_6" d="M81.8506 21.546L81.9138 20.8918C82.8472 20.2829 89.4847 20.5805 90.9742 20.6072L91.071 25.1173L100.279 25.0698L100.307 29.697L104.713 29.7692C104.737 31.17 104.734 32.6584 104.787 34.0497L118.026 34.1567C117.899 35.4458 117.954 37.4057 117.958 38.7525L91.0595 38.7457L91.0364 34.1415L81.9073 34.1798C81.8561 30.0243 82.03 25.6661 81.8506 21.546Z" fill="#E7EBF7"/>
</g>
<g id="Cloud 2">
<path id="Vector_7" d="M157.936 38.0914C162.788 37.9901 167.642 37.973 172.494 38.0402L172.491 42.8378C174.599 42.8128 185.492 42.5742 186.937 42.8386L186.933 47.7468L191.765 47.7139L191.811 52.4583C193.629 52.4712 195.189 52.5053 197 52.6352L196.844 57.4632L191.72 57.3662C191.647 58.9927 191.664 60.8344 191.641 62.4802L152.779 62.4651C152.841 60.811 152.851 59.097 152.882 57.4371L148.031 57.4089C147.962 54.2561 148.027 50.9728 148.05 47.8076L152.744 47.7594L152.784 42.9526C154.383 42.8434 156.249 42.8507 157.873 42.822L157.936 38.0914Z" fill="#A9CEEC"/>
<path id="Vector_8" d="M172.491 42.8378C174.599 42.8127 185.492 42.5742 186.936 42.8386L186.933 47.7468L191.764 47.7139L191.811 52.4583C193.628 52.4712 195.188 52.5053 197 52.6352L196.844 57.4632L191.72 57.3662C185.425 57.2604 178.778 57.3797 172.453 57.3887C172.396 54.3225 172.51 50.8926 172.549 47.8002C172.445 46.4179 172.497 44.2797 172.491 42.8378Z" fill="#E7EBF7"/>
<path id="Vector_9" d="M172.491 42.8378C174.599 42.8127 185.492 42.5742 186.936 42.8386C184.588 43.1818 179.86 43.0682 177.323 43.0684L177.245 47.8534L172.549 47.8002C172.445 46.4179 172.497 44.2797 172.491 42.8378Z" fill="#A9CEEC"/>
<path id="Vector_10" d="M157.936 38.0914C162.788 37.9901 167.641 37.973 172.494 38.0402L172.49 42.8378C172.497 44.2797 172.445 46.4179 172.549 47.8002C169.376 47.7454 166.111 47.7732 162.93 47.7611C162.908 49.3409 162.802 51.0175 162.726 52.6049L152.743 52.6209L152.744 47.7594L152.784 42.9526C154.382 42.8434 156.249 42.8507 157.873 42.822L157.936 38.0914Z" fill="#E7EBF7"/>
</g>
<g id="Cloud 3">
<path id="Vector_11" d="M225.717 7.08428C227.365 7.09248 238.945 6.83634 239.518 7.17909L239.495 9.83707C240.381 9.83948 241.409 9.81795 242.276 9.88415L242.267 12.5437C243.209 12.5865 244.191 12.6443 245.13 12.6548C245.152 15.3486 245.157 18.0426 245.145 20.7365L245.211 20.9278C246.892 21.0637 248.918 21.0149 250.627 21.0171L250.627 23.7453L253.358 23.7667L253.391 26.483L256.173 26.4877C256.317 27.132 256.149 31.2933 256.123 32.1317C250.792 31.9884 244.965 32.0917 239.604 32.0893L209.006 32.0864L209 26.4864L211.806 26.5505C211.857 24.7271 211.854 22.8437 211.871 21.0149C212.734 21.033 213.686 21.0001 214.556 20.9856L214.58 18.2601C215.45 18.2749 216.477 18.3349 217.322 18.1835L217.348 15.5241L220.067 15.4563L220.094 12.652C221.031 12.6614 222.027 12.6087 222.969 12.5744L222.94 9.9187L225.695 9.86889L225.717 7.08428Z" fill="#A9CEEC"/>
<path id="Vector_12" d="M225.717 7.08428C227.365 7.09248 238.946 6.83634 239.518 7.17909L239.495 9.83707C240.381 9.83948 241.409 9.81795 242.277 9.88415L242.268 12.5437C243.21 12.5865 244.191 12.6443 245.13 12.6548C245.152 15.3486 245.157 18.0426 245.145 20.7365L245.05 20.9032C244.558 21.1129 242.911 21.037 242.273 21.0321L242.108 23.8761C241.393 23.7829 240.14 23.7691 239.38 23.7407L239.437 26.4393C236.698 26.4947 233.958 26.5056 231.218 26.4722L231.187 23.7461C230.304 23.7546 229.337 23.7186 228.445 23.7035C228.512 21.987 228.587 20.3538 228.539 18.6342L228.162 18.4009C227.44 18.2629 226.455 18.3079 225.701 18.3133L225.694 21.0332L222.948 21.0476L222.981 23.795L217.398 23.7191C217.318 21.9295 217.352 20.0764 217.36 18.2812L217.322 18.1835L217.348 15.5241L220.068 15.4563L220.095 12.652C221.032 12.6614 222.028 12.6087 222.97 12.5744L222.941 9.9187L225.696 9.86889L225.717 7.08428Z" fill="#E7EBF7"/>
<path id="Vector_13" d="M225.717 7.08428C227.365 7.09248 238.946 6.83634 239.518 7.17909C236.642 7.1153 234.063 7.15418 231.194 7.21846L231.295 9.91806L225.737 9.90536L225.753 12.5669L222.984 12.675L222.962 15.52L220.135 15.5454L220.113 18.2934L217.36 18.2812L217.322 18.1835L217.348 15.5241L220.068 15.4563L220.095 12.652C221.032 12.6614 222.028 12.6087 222.97 12.5744L222.941 9.9187L225.696 9.86889L225.717 7.08428Z" fill="#A9CEEC"/>
<path id="Vector_14" d="M228.463 15.482C230.279 15.4218 232.096 15.4348 233.911 15.5207L233.94 18.2795C232.984 18.2806 229.091 18.1127 228.538 18.6343L228.161 18.401C228.832 17.8144 228.518 16.3838 228.463 15.482Z" fill="#A9CEEC"/>
<path id="Vector_15" d="M245.211 20.9277C246.893 21.0637 248.918 21.0148 250.627 21.0171L250.627 23.7453L253.358 23.7667L253.391 26.483L256.174 26.4876C256.036 27.1154 256.074 28.5112 256.074 29.2192L247.865 29.1757L247.79 26.5235L245.13 26.4958C245.096 25.1086 244.952 22.108 245.211 20.9277Z" fill="#E7EBF7"/>
</g>
<g id="Cloud 7">
<path id="Vector_16" d="M1381.13 31.2227C1381.12 30.3764 1381.06 28.7765 1381.27 28.0336C1384.47 28.0216 1387.89 27.9512 1391.07 28.0594L1391.09 31.2412L1394.18 31.2457L1394.18 34.4827L1397.38 34.5061L1397.42 37.8898L1400.74 37.9481C1400.72 39.8479 1400.64 42.3155 1400.82 44.1663L1400.91 44.2404L1404.07 44.255C1404.26 45.6371 1404.14 49.3284 1404.13 50.8913L1407.29 50.8634C1409.42 50.8413 1411.56 50.7921 1413.69 50.7156L1413.75 53.9791L1416.97 54.0523L1416.96 57.3031L1420.23 57.3275L1420.2 60.6649L1423.48 60.6579L1423.48 63.9363L1316.09 63.9503L1316 60.7261L1319.4 60.6643L1319.37 57.3369L1329 57.3397C1328.98 56.1591 1328.95 55.1733 1329.08 53.9976L1332.43 54.0346L1332.43 50.8557C1335.47 50.8443 1338.61 50.7926 1341.64 50.9076L1342.04 50.5766C1342.27 49.7813 1342.23 48.4156 1342.24 47.5452L1345.28 47.5065L1345.3 44.2865L1348.52 44.2518L1348.51 41.0962L1361.7 41.0821L1361.74 44.2776L1368.07 44.2844L1368.1 37.9564C1369.13 37.9688 1370.29 37.9194 1371.33 37.8992L1371.32 34.6318L1374.63 34.5263L1374.7 31.1916C1376.75 31.2611 1379.05 31.2182 1381.13 31.2227Z" fill="#A9CEEC"/>
<path id="Vector_17" d="M1381.27 28.0336C1384.47 28.0216 1387.89 27.9512 1391.07 28.0594L1391.09 31.2412L1394.18 31.2457L1394.18 34.4827L1397.38 34.5061L1397.42 37.8898L1400.74 37.9481C1400.72 39.8479 1400.64 42.3155 1400.82 44.1663C1398.58 44.3176 1396.4 44.3046 1394.16 44.3125C1394.16 44.9876 1394.11 46.757 1394.22 47.3461C1394.37 47.3982 1394.57 47.4493 1394.68 47.542C1395.36 47.6494 1396.63 47.6356 1397.35 47.6494L1397.37 50.8449C1398.47 50.7953 1399.57 50.7541 1400.67 50.7211L1400.62 54.0006L1397.4 54.0253L1397.36 57.326C1394.17 57.3665 1390.98 57.358 1387.79 57.3005C1387.86 56.358 1387.82 54.9961 1387.82 54.0159L1381.3 53.9242C1381.25 51.7945 1381.3 49.61 1381.31 47.4761L1384.36 47.5288C1384.49 46.5029 1384.49 45.3618 1384.52 44.321L1384.41 44.2804C1381.13 44.3274 1377.86 44.3337 1374.58 44.2989C1374.51 42.281 1374.54 40.0536 1374.53 38.0204L1377.82 37.9611L1377.94 34.4901L1381.27 34.4861C1381.24 32.4635 1381.44 29.9758 1381.27 28.0336Z" fill="#E7EBF7"/>
<path id="Vector_18" d="M1394.22 47.3462C1394.37 47.3983 1394.57 47.4494 1394.69 47.5421C1394.47 47.5689 1394.46 47.604 1394.25 47.71C1394.06 48.3949 1394.14 49.9884 1394.15 50.7742C1393.15 50.7606 1392.09 50.7965 1391.09 50.8138C1390.96 49.7423 1390.99 48.5768 1390.99 47.4923C1392.12 47.4977 1393.1 47.5372 1394.22 47.3462Z" fill="#A9CEEC"/>
<path id="Vector_19" d="M1384.54 41.0856L1387.8 41.1082L1387.74 44.2586C1386.87 44.272 1385.33 44.2479 1384.52 44.3211L1384.41 44.2805C1384.51 43.1647 1384.53 42.205 1384.54 41.0856Z" fill="#A9CEEC"/>
<path id="Vector_20" d="M1348.51 41.0962L1361.7 41.082L1361.74 44.2776L1368.07 44.2843L1368.1 47.6456C1367.05 47.5852 1366.07 47.521 1365.02 47.5335L1364.76 50.7599C1363.69 50.7569 1362.72 50.7311 1361.65 50.8673C1361.68 53.0328 1361.68 55.1989 1361.63 57.364C1358.34 57.3593 1354.93 57.4018 1351.65 57.327L1351.68 54.1187C1350.69 54.0642 1349.48 54.0274 1348.52 53.9003L1348.46 50.8596C1347.74 50.8518 1346.09 50.8754 1345.45 50.8018C1345.46 49.5627 1345.4 48.7422 1345.28 47.5065L1345.3 44.2864L1348.52 44.2517L1348.51 41.0962Z" fill="#E7EBF7"/>
<path id="Vector_21" d="M1407.29 50.8633C1409.42 50.8413 1411.56 50.792 1413.69 50.7156L1413.75 53.979L1416.97 54.0523L1416.96 57.3031L1420.23 57.3274L1420.19 60.6649L1407.18 60.6777L1407.17 57.3948L1403.97 57.3225L1404.15 53.8981L1407.18 53.9985L1407.29 50.8633Z" fill="#E7EBF7"/>
<path id="Vector_22" d="M1342.24 47.5453L1345.28 47.5066C1345.4 48.7423 1345.46 49.5628 1345.45 50.8019C1345.38 52.9816 1345.36 55.1626 1345.38 57.3432L1329.17 57.3936C1329.15 56.4493 1329.16 54.8908 1329.08 53.9977L1332.43 54.0346L1332.43 50.8557C1335.47 50.8444 1338.61 50.7927 1341.64 50.9076L1342.04 50.5766C1342.28 49.7814 1342.23 48.4156 1342.24 47.5453Z" fill="#E7EBF7"/>
<path id="Vector_23" d="M1342.24 47.5453L1345.28 47.5066C1345.4 48.7423 1345.46 49.5628 1345.45 50.8019C1344.8 50.7174 1342.43 50.8716 1341.64 50.9076L1342.04 50.5766C1342.27 49.7814 1342.23 48.4156 1342.24 47.5453Z" fill="#A9CEEC"/>
<path id="Vector_24" d="M1400.91 44.2405L1404.07 44.255C1403.95 44.9842 1403.98 46.8181 1403.98 47.6423L1400.74 47.6149C1400.7 46.7496 1400.56 44.9742 1400.91 44.2405Z" fill="#E7EBF7"/>
</g>
<g id="Cloud 6">
<path id="Vector_25" d="M1262.64 2.19491C1266.09 1.95086 1269.57 1.98162 1273.02 2.04461C1273.06 3.84495 1273.04 5.15748 1272.92 6.95284C1274.58 7.00265 1276.4 7.02081 1278.05 7.1213L1278.02 12.2586L1283.02 12.2876L1283.02 17.4514C1284.68 17.4443 1286.34 17.4171 1288 17.5155L1287.92 22.3877L1292.98 22.4592L1292.95 27.3557L1298.11 27.4193L1298.07 32.249L1303.37 32.421C1303.35 34.0458 1303.28 35.8843 1303.31 37.4895L1303.25 42.4258C1301.67 42.4341 1299.74 42.3898 1298.19 42.4592C1298.1 44.1635 1298.1 46.0359 1298.07 47.7557L1232.51 47.6912L1232.54 42.5091C1229.11 42.609 1225.54 42.5383 1222.09 42.5152C1222 39.2002 1222.03 35.7278 1222 32.3996C1223.7 32.3349 1225.56 32.3782 1227.28 32.3888L1227.2 27.3124C1232.11 25.8103 1228.8 25.0099 1232.36 22.2843C1235.74 22.4531 1239.18 22.4243 1242.57 22.4364L1247.57 22.417C1247.5 19.0548 1247.49 15.6917 1247.52 12.329L1252.35 12.2469C1252.43 10.613 1252.43 8.82613 1252.46 7.17785L1262.47 6.96691C1262.6 5.79119 1262.6 3.4591 1262.64 2.19491Z" fill="#A9CEEC"/>
<path id="Vector_26" d="M1262.64 2.19491C1266.09 1.95086 1269.57 1.98162 1273.02 2.04461C1273.06 3.84495 1273.04 5.15748 1272.92 6.95284C1274.58 7.00265 1276.4 7.02081 1278.05 7.1213L1278.02 12.2586L1283.02 12.2876L1283.01 17.4514C1284.68 17.4443 1286.34 17.4171 1288 17.5155L1287.92 22.3877L1292.98 22.4592L1292.95 27.3557L1298.11 27.4193L1298.07 32.249L1303.36 32.421C1303.35 34.0458 1303.28 35.8843 1303.31 37.4895L1303.25 42.4258C1301.67 42.4341 1299.74 42.3898 1298.19 42.4592L1298.02 42.381C1293.08 42.4771 1287.93 42.4138 1282.98 42.4247C1283.01 40.6853 1282.91 39.1639 1282.8 37.4291L1278 37.4529C1277.95 35.8746 1277.99 34.1003 1277.99 32.5051L1277.8 32.4342C1275.84 32.394 1274.54 32.0603 1273.13 33.2243C1272.59 34.3163 1272.78 36.0946 1272.8 37.3738L1262.72 37.3902C1262.67 39.0844 1262.63 40.7793 1262.6 42.4742C1261.01 42.4074 1259.25 42.4229 1257.65 42.4047C1257.55 40.876 1257.55 39.0663 1257.52 37.5126L1252.49 37.4101L1252.41 32.7705C1254.18 32.5499 1255.78 32.4166 1257.57 32.2935L1257.83 27.4143L1267.82 27.4855L1267.78 22.4284L1252.41 22.3889L1252.46 17.4933L1257.35 17.5932L1257.51 12.2953L1262.54 12.2765C1262.6 10.574 1262.56 8.87711 1262.54 7.17404L1262.47 6.96691C1262.6 5.79119 1262.6 3.4591 1262.64 2.19491Z" fill="#E7EBF7"/>
<path id="Vector_27" d="M1277.95 27.4734C1281.26 27.4626 1284.67 27.4075 1287.98 27.5144L1287.9 32.2697C1285.05 32.3802 1280.56 32.2384 1277.99 32.505L1277.79 32.4341C1278.19 31.1646 1278 28.8952 1277.95 27.4734Z" fill="#A9CEEC"/>
<path id="Vector_28" d="M1227.2 27.3124C1232.11 25.8103 1228.8 25.0099 1232.36 22.2843C1235.74 22.4531 1239.18 22.4243 1242.57 22.4364L1242.26 27.3484L1247.56 27.4967L1247.55 32.2569C1245.8 32.3896 1244.29 32.4942 1242.53 32.5033C1242.51 33.919 1242.54 36.1166 1242.42 37.4696C1240.78 37.4529 1239.07 37.4614 1237.43 37.4157L1237.31 32.4884C1234.99 32.4764 1229.35 32.6032 1227.28 32.3888L1227.2 27.3124Z" fill="#E7EBF7"/>
</g>
<g id="Cloud 4">
<path id="Vector_29" d="M349.675 26L362.749 26.0109L362.701 30.6035C364.21 30.633 365.717 30.6323 367.226 30.601L367.287 34.887L371.802 34.9331L371.835 39.1739C373.047 39.1583 374.808 39.1825 375.966 39.0586L375.938 34.9209C380.275 34.9028 384.739 34.9377 389.065 34.8634L389.192 39.1858L398.072 39.2069L398.136 43.6309L402.368 43.5235L402.508 48.0408L406.761 48.0306L406.779 52.2788C408.189 52.3246 409.7 52.4001 411.1 52.3854L411.047 56.7396L415.544 56.8294C415.465 58.2917 415.368 59.787 415.353 61.2488L419.909 61.2755C419.817 62.6205 419.835 64.3188 419.812 65.6938L310.921 65.7111C287.396 65.719 263.503 65.9238 240 65.6465L240.002 61.2432L248.696 61.2152L248.705 56.789L266.194 56.7872L266.219 52.2488C270.387 52.4022 275.197 52.2857 279.413 52.2831C279.419 50.9557 279.328 49.4453 279.275 48.1014C281.694 48.0762 286.08 48.1756 288.316 47.9129L288.387 43.5042L296.96 43.5411L297.02 39.2166L302.25 39.1952L305.861 39.1912L305.9 43.5945L310.285 43.5398C310.345 45.0326 310.388 46.5684 310.477 48.0558L315.335 48.0652C316.703 47.8716 321.606 47.8968 323.228 47.8734L323.253 43.6031L327.571 43.5571L327.57 39.2151L336.516 39.1886L336.522 34.8914L345.153 34.886C345.148 33.3513 345.145 32.1475 345.288 30.6178L349.675 30.542V26Z" fill="#A9CEEC"/>
<path id="Vector_30" d="M375.937 34.9209C380.274 34.9028 384.738 34.9377 389.065 34.8634L389.192 39.1858L398.072 39.207L398.135 43.6309L402.368 43.5235L402.508 48.0408L406.761 48.0307L406.778 52.2788C408.188 52.3246 409.7 52.4001 411.1 52.3854L411.046 56.7396L415.544 56.8294C415.465 58.2917 415.368 59.787 415.353 61.2488C406.61 61.3147 397.871 61.3256 389.128 61.2811L389.144 56.8488L384.692 56.8226L384.664 61.3439L380.34 61.4309C380.193 59.9941 380.134 58.3235 380.05 56.8638C377.345 56.8014 374.561 56.8134 371.845 56.7956C371.886 55.2501 371.743 53.7528 371.626 52.2129C370.191 52.3055 368.712 52.2531 367.271 52.23L367.292 48.0749L371.672 48.0528L371.723 43.7563L376.009 43.6487C376.024 42.1185 376.009 40.5883 375.965 39.0586L375.937 34.9209Z" fill="#E7EBF7"/>
<path id="Vector_31" d="M349.675 26L362.749 26.0109L362.7 30.6035L358.661 30.6287C358.527 31.9813 358.331 33.4688 358.379 34.8171L358.522 34.9031C361.364 34.9631 364.39 34.9036 367.248 34.8929C367.264 37.7625 367.261 40.6323 367.238 43.5019L358.445 43.5945L358.285 48.0546L349.693 48.0477L349.382 52.4088C348.005 52.2844 346.641 52.348 345.259 52.3805L345.333 56.7386C342.404 56.8091 339.474 56.8228 336.546 56.7798C336.651 55.0504 336.67 54.1326 336.543 52.4088L332.105 52.3846C331.987 49.197 332.008 46.8034 332.124 43.5983C333.26 43.7509 335.261 43.7247 336.471 43.7387L336.583 39.1998C339.515 39.241 342.444 39.2029 345.374 39.0848C345.346 36.3692 345.554 33.2836 345.287 30.6178L349.675 30.542V26Z" fill="#E7EBF7"/>
<path id="Vector_32" d="M358.379 34.8171L358.522 34.9031C358.384 35.5099 358.354 38.4089 358.333 39.193C356.753 39.2182 355.666 39.1174 354.096 38.9658L354.032 34.9164L358.379 34.8171Z" fill="#A9CEEC"/>
<path id="Vector_33" d="M297.02 39.2166L302.25 39.1952L305.861 39.1912L305.9 43.5945L310.285 43.5398C310.345 45.0326 310.388 46.5684 310.477 48.0558L315.335 48.0652C317.593 48.2708 320.924 48.1527 323.264 48.136C323.239 49.5718 323.141 50.9109 323.038 52.3409L319.103 52.2121C319.025 53.6785 319.025 55.2745 319 56.7533L314.61 56.8007L314.562 61.3737C307.389 61.205 299.88 61.2823 292.674 61.2175L292.689 56.8004L288.187 56.8035C288.179 53.9186 288.308 50.9625 288.399 48.0739L288.316 47.9129L288.387 43.5042L296.96 43.5411L297.02 39.2166Z" fill="#E7EBF7"/>
<path id="Vector_34" d="M297.02 39.2166L302.25 39.1952C300.676 40.0016 301.218 41.9801 301.245 43.7094L297.029 43.7308L296.982 48.0894L288.399 48.0738L288.316 47.9128L288.387 43.5041L296.96 43.541L297.02 39.2166Z" fill="#A9CEEC"/>
</g>
<g id="Cloud 5">
<path id="Vector_35" d="M1012.46 26.1038C1018.16 25.9125 1024.47 26.0291 1030.19 26.1089L1030.13 30.1952C1032.34 30.1675 1036.74 30.0631 1038.82 30.34C1038.81 31.7798 1038.78 33.2589 1038.79 34.6949L1043.15 34.7178L1043.1 39.0129C1044.51 39.0254 1046.05 39.0078 1047.44 39.0678L1047.33 43.4572L1051.81 43.4803L1051.81 52.5038C1053.52 52.2939 1054.92 52.3104 1056.65 52.3084L1060.54 52.2677L1060.57 47.9126C1064.91 47.9312 1069.4 47.8913 1073.73 48.0036L1073.7 52.2876L1082.55 52.3488L1082.57 56.6066L1086.86 56.6292L1095.68 56.635C1095.68 55.2138 1095.71 53.7527 1095.73 52.3274L1100.03 52.3483L1100.1 47.9833L1104.37 47.9695L1104.42 43.4104C1105.78 43.4208 1107.18 43.5398 1108.54 43.6322L1108.62 39.0355L1112.64 39.0294C1120.08 39.0561 1127.52 39.0452 1134.96 38.9961L1134.98 43.4539L1143.77 43.479C1143.74 44.9719 1143.69 46.4122 1143.75 47.906L1148.18 47.9972L1148.16 52.3346L1152.65 52.3305L1152.67 48.0351L1161.35 47.9574L1161.3 43.6663C1164.25 43.3883 1171.52 43.1721 1174.39 43.5288L1174.36 47.9426L1187.73 47.9861L1187.79 52.3147L1192.13 52.3094L1192.13 56.6195L1200.77 56.6168L1200.75 60.7201C1201.82 61.0796 1208.13 60.9228 1209.56 60.9033L1209.57 65.2761C1198.41 65.6539 1185.78 65.3933 1174.51 65.362L1123.32 65.3851L973.058 65.4103L973 60.9381L977.321 60.837L977.308 47.9807L981.56 48.014L981.499 43.5232L985.996 43.493L986.044 39.0215L994.927 39.0665L994.965 43.4544L999.215 43.4839L999.276 39.0373L1003.61 38.8828L1003.6 34.7658L1008.02 34.7142L1007.89 30.3975L1012.32 30.3736L1012.46 26.1038Z" fill="#A9CEEC"/>
<path id="Vector_36" d="M1016.62 30.4389C1022.51 30.3266 1033.56 30.8314 1038.82 30.3401C1038.81 31.7798 1038.78 33.259 1038.79 34.6949L1043.15 34.7178L1043.1 39.013C1044.51 39.0254 1046.05 39.0079 1047.44 39.0678L1047.33 43.4572L1051.81 43.4804L1051.81 52.5038L1051.81 56.5858L1047.35 56.6483L1047.24 60.9508C1040.11 60.9417 1032.78 61.023 1025.67 60.9114L1025.68 56.616L1016.74 56.6226L1016.69 52.518C1015.34 52.3905 1013.86 52.326 1012.5 52.2421C1012.32 50.6093 1012.37 49.6898 1012.45 48.0491C1010.69 48.1319 1009.92 48.1131 1008.17 47.9234C1007.84 44.9826 1008 41.9133 1008.12 38.9588L1012.4 38.9149L1012.43 34.7696L1016.73 34.7503L1016.62 30.4389Z" fill="#E7EBF7"/>
<path id="Vector_37" d="M1030.2 48.1637C1033.02 48.0908 1035.85 48.0415 1038.67 48.0156C1038.67 49.4046 1038.65 50.902 1038.72 52.2805C1036.09 52.3164 1032.77 52.4487 1030.21 52.2704L1030.2 48.1637Z" fill="#A9CEEC"/>
<path id="Vector_38" d="M1025.62 52.4041C1027.26 52.2723 1028.56 52.2637 1030.21 52.2703C1030.19 53.7192 1030.15 55.1676 1030.09 56.6154L1025.68 56.616L1025.62 52.4041Z" fill="#A9CEEC"/>
<path id="Vector_39" d="M1112.64 39.0294C1120.08 39.0561 1127.52 39.0451 1134.96 38.9961L1134.98 43.4538L1143.77 43.479C1143.74 44.9719 1143.69 46.4121 1143.75 47.906L1148.18 47.9972L1148.16 52.3345L1148.18 56.6091L1143.83 56.6106L1143.82 60.9378L1112.85 60.9523L1112.81 56.6431L1108.78 56.6086C1108.67 53.821 1108.7 50.8122 1108.68 48.0056L1112.86 48.0064C1112.87 45.5331 1112.97 41.3716 1112.64 39.0294Z" fill="#E7EBF7"/>
<path id="Vector_40" d="M1165.75 43.6482C1168.12 43.6533 1172.16 43.7567 1174.39 43.5288L1174.36 47.9426L1187.73 47.986L1187.79 52.3147L1192.13 52.3094L1192.13 56.6195L1200.77 56.6167L1200.75 60.7201C1198.01 61.0054 1194.71 60.9807 1191.93 60.9396C1181.84 60.7904 1171.6 61.2333 1161.54 60.9017C1161.45 59.5857 1161.47 57.9633 1161.46 56.6183L1156.79 56.5583L1156.82 52.397L1161.39 52.3399L1161.41 47.982L1165.69 47.9403L1165.75 43.6482Z" fill="#E7EBF7"/>
<path id="Vector_41" d="M1060.57 47.9127C1064.91 47.9313 1069.4 47.8914 1073.73 48.0037L1073.7 52.2876L1082.55 52.3489L1082.57 56.6067L1086.86 56.6293C1086.93 58.032 1087.08 59.473 1087.21 60.8751C1079.95 61.073 1072.15 60.9399 1064.86 60.9133L1064.97 56.6603L1056.33 56.6189C1056.35 55.515 1056.21 53.1636 1056.65 52.3085L1060.54 52.2678L1060.57 47.9127Z" fill="#E7EBF7"/>
<path id="Vector_42" d="M999.214 43.4839L1003.58 43.4397C1003.6 46.3916 1003.58 49.3436 1003.51 52.2947L999.402 52.3699C999.298 53.6811 999.298 55.284 999.268 56.6234L981.722 56.6587C981.692 55.3686 981.565 53.8653 981.483 52.559C982.958 52.4301 984.531 52.3694 986.015 52.2899L986.058 48.088L990.445 47.9157L990.311 43.488L994.965 43.4544L999.214 43.4839Z" fill="#E7EBF7"/>
</g>
</g>
</svg>
