<svg width="169" height="191" viewBox="0 0 169 191" fill="none" xmlns="http://www.w3.org/2000/svg">
<g id="Photo frame">
<g id="Subtract">
<mask id="path-1-inside-1_222_13574" fill="white">
<path d="M11.4512 0C11.5111 2.8403 13.8309 5.12402 16.6855 5.12402C19.54 5.12383 21.859 2.84018 21.9189 0H33.8945C33.9544 2.84016 36.2735 5.12381 39.1279 5.12402C41.9826 5.12402 44.3024 2.8403 44.3623 0H56.3389C56.3988 2.8403 58.7186 5.12402 61.5732 5.12402C64.4277 5.12384 66.7467 2.84018 66.8066 0H78.7832C78.8431 2.8403 81.1629 5.12402 84.0176 5.12402C86.8721 5.12383 89.1911 2.84018 89.251 0H101.227C101.286 2.8403 103.606 5.12402 106.461 5.12402C109.315 5.12382 111.634 2.84017 111.694 0H123.671C123.731 2.8403 126.051 5.12402 128.905 5.12402C131.76 5.12383 134.079 2.84018 134.139 0H146.114C146.174 2.8403 148.494 5.12402 151.349 5.12402C154.203 5.12383 156.522 2.84018 156.582 0H168.081V12.1123C165.293 12.2303 163.069 14.527 163.069 17.3438C163.069 20.1606 165.293 22.4572 168.081 22.5752V34.5557C165.293 34.6736 163.069 36.9713 163.069 39.7881C163.069 42.6048 165.293 44.9016 168.081 45.0195V57C165.293 57.118 163.069 59.4156 163.069 62.2324C163.07 65.0491 165.293 67.3449 168.081 67.4629V79.4443C165.293 79.5623 163.069 81.8591 163.069 84.6758C163.069 87.4926 165.293 89.7892 168.081 89.9072V101.888C165.293 102.006 163.069 104.303 163.069 107.12C163.069 109.937 165.293 112.234 168.081 112.352V124.332C165.293 124.45 163.069 126.747 163.069 129.563C163.069 132.38 165.293 134.677 168.081 134.795V146.776C165.293 146.894 163.069 149.192 163.069 152.009C163.07 154.825 165.293 157.121 168.081 157.239V169.22C165.293 169.338 163.069 171.635 163.069 174.452C163.069 177.269 165.293 179.565 168.081 179.683V190.524H157.081C157.082 190.487 157.084 190.45 157.084 190.412C157.084 187.52 154.74 185.175 151.848 185.175C148.955 185.175 146.61 187.52 146.61 190.412C146.61 190.45 146.612 190.487 146.613 190.524H134.638C134.638 190.487 134.641 190.45 134.641 190.412C134.641 187.52 132.296 185.175 129.404 185.175C126.512 185.175 124.167 187.52 124.167 190.412C124.167 190.45 124.169 190.487 124.17 190.524H112.193C112.194 190.487 112.196 190.45 112.196 190.412C112.196 187.52 109.852 185.175 106.96 185.175C104.068 185.175 101.723 187.52 101.723 190.412C101.723 190.45 101.725 190.487 101.726 190.524H89.749C89.7498 190.487 89.752 190.45 89.752 190.412C89.752 187.52 87.4077 185.175 84.5156 185.175C81.6233 185.175 79.2783 187.52 79.2783 190.412C79.2783 190.45 79.2805 190.487 79.2812 190.524H67.3057C67.3064 190.487 67.3086 190.45 67.3086 190.412C67.3086 187.52 64.9644 185.175 62.0723 185.175C59.18 185.175 56.835 187.52 56.835 190.412C56.835 190.45 56.8371 190.487 56.8379 190.524H44.8613C44.8621 190.487 44.8643 190.45 44.8643 190.412C44.8643 187.52 42.5192 185.175 39.627 185.175C36.7349 185.175 34.3906 187.52 34.3906 190.412C34.3906 190.45 34.3928 190.487 34.3936 190.524H22.417C22.4178 190.487 22.4199 190.45 22.4199 190.412C22.4199 187.52 20.0757 185.175 17.1836 185.175C14.2913 185.175 11.9463 187.52 11.9463 190.412C11.9463 190.45 11.9484 190.487 11.9492 190.524H0V179.683C0.0748196 179.686 0.149986 179.688 0.225586 179.688C3.11778 179.688 5.46274 177.344 5.46289 174.452C5.46289 171.56 3.11787 169.215 0.225586 169.215C0.150006 169.215 0.0748 169.217 0 169.22V157.239C0.0748164 157.242 0.149989 157.245 0.225586 157.245C3.11787 157.245 5.46289 154.9 5.46289 152.008C5.46263 149.116 3.11771 146.771 0.225586 146.771C0.150003 146.771 0.0748032 146.773 0 146.776V134.795C0.0748135 134.798 0.149992 134.801 0.225586 134.801C3.11787 134.801 5.46289 132.456 5.46289 129.563C5.46275 126.671 3.11778 124.327 0.225586 124.327C0.15 124.327 0.0748061 124.329 0 124.332V112.352C0.0748102 112.355 0.149995 112.357 0.225586 112.357C3.11787 112.357 5.46289 110.012 5.46289 107.12C5.46288 104.228 3.11786 101.883 0.225586 101.883C0.15001 101.883 0.0747958 101.885 0 101.888V89.9072C0.0748139 89.9104 0.149992 89.9131 0.225586 89.9131C3.11787 89.9131 5.46289 87.5681 5.46289 84.6758C5.46273 81.7836 3.11777 79.4395 0.225586 79.4395C0.15 79.4395 0.0748057 79.4412 0 79.4443V67.4629C0.0748175 67.4661 0.149988 67.4687 0.225586 67.4688C3.11773 67.4688 5.46266 65.1245 5.46289 62.2324C5.46289 59.3401 3.11787 56.9951 0.225586 56.9951C0.150004 56.9951 0.0748021 56.9968 0 57V45.0186C0.0748212 45.0217 0.149984 45.0244 0.225586 45.0244C3.11781 45.0244 5.4628 42.6803 5.46289 39.7881C5.46289 36.8958 3.11787 34.5508 0.225586 34.5508C0.150007 34.5508 0.0747984 34.5525 0 34.5557V22.5752C0.0748112 22.5784 0.149994 22.581 0.225586 22.5811C3.11787 22.5811 5.46289 20.236 5.46289 17.3438C5.46284 14.4515 3.11784 12.1064 0.225586 12.1064C0.150011 12.1065 0.0747948 12.1082 0 12.1113V0H11.4512Z"/>
</mask>
<path d="M11.4512 0L12.372 -0.01942L12.3529 -0.920997H11.4512V0ZM16.6855 5.12402V6.04502H16.6856L16.6855 5.12402ZM21.9189 0V-0.920997H21.0172L20.9982 -0.0194209L21.9189 0ZM33.8945 0L34.8153 -0.0194204L34.7963 -0.920997H33.8945V0ZM39.1279 5.12402L39.1279 6.04502H39.1279V5.12402ZM44.3623 0V-0.920997H43.4605L43.4415 -0.0194198L44.3623 0ZM56.3389 0L57.2597 -0.0194196L57.2406 -0.920997H56.3389V0ZM61.5732 5.12402V6.04502H61.5733L61.5732 5.12402ZM66.8066 0V-0.920997H65.9049L65.8858 -0.0194206L66.8066 0ZM78.7832 0L79.704 -0.01942L79.685 -0.920997H78.7832V0ZM84.0176 5.12402V6.04502H84.0176L84.0176 5.12402ZM89.251 0V-0.920997H88.3492L88.3302 -0.0194209L89.251 0ZM101.227 0L102.147 -0.0194197L102.128 -0.920997H101.227V0ZM106.461 5.12402V6.04502H106.461L106.461 5.12402ZM111.694 0V-0.920997H110.793L110.774 -0.0194205L111.694 0ZM123.671 0L124.592 -0.01942L124.573 -0.920997H123.671V0ZM128.905 5.12402V6.04502H128.905L128.905 5.12402ZM134.139 0V-0.920997H133.237L133.218 -0.0194209L134.139 0ZM146.114 0L147.035 -0.01942L147.016 -0.920997H146.114V0ZM151.349 5.12402V6.04502H151.349L151.349 5.12402ZM156.582 0V-0.920997H155.68L155.661 -0.0194209L156.582 0ZM168.081 0H169.002V-0.920997H168.081V0ZM168.081 12.1123L168.12 13.0325L169.002 12.9952V12.1123H168.081ZM163.069 17.3438L162.148 17.3437V17.3438H163.069ZM168.081 22.5752H169.002V21.6924L168.12 21.655L168.081 22.5752ZM168.081 34.5557L168.12 35.4758L169.002 35.4385V34.5557H168.081ZM163.069 39.7881H162.148V39.7881L163.069 39.7881ZM168.081 45.0195H169.002V44.1367L168.12 44.0994L168.081 45.0195ZM168.081 57L168.12 57.9202L169.002 57.8829V57H168.081ZM163.069 62.2324H162.148V62.2325L163.069 62.2324ZM168.081 67.4629H169.002V66.58L168.12 66.5427L168.081 67.4629ZM168.081 79.4443L168.12 80.3645L169.002 80.3272V79.4443H168.081ZM163.069 84.6758L162.148 84.6757V84.6758H163.069ZM168.081 89.9072H169.002V89.0244L168.12 88.9871L168.081 89.9072ZM168.081 101.888L168.12 102.808L169.002 102.771V101.888H168.081ZM163.069 107.12H162.148V107.12H163.069ZM168.081 112.352H169.002V111.469L168.12 111.431L168.081 112.352ZM168.081 124.332L168.12 125.252L169.002 125.215V124.332H168.081ZM163.069 129.563L162.148 129.563V129.563H163.069ZM168.081 134.795H169.002V133.912L168.12 133.875L168.081 134.795ZM168.081 146.776L168.12 147.697L169.002 147.659V146.776H168.081ZM163.069 152.009H162.148V152.009L163.069 152.009ZM168.081 157.239H169.002V156.356L168.12 156.319L168.081 157.239ZM168.081 169.22L168.12 170.14L169.002 170.103V169.22H168.081ZM163.069 174.452H162.148V174.452L163.069 174.452ZM168.081 179.683H169.002V178.8L168.12 178.762L168.081 179.683ZM168.081 190.524V191.445H169.002V190.524H168.081ZM157.081 190.524L156.16 190.505L156.14 191.445H157.081V190.524ZM157.084 190.412H158.005V190.412H157.084ZM151.848 185.175L151.848 184.254H151.848V185.175ZM146.61 190.412H145.689V190.412H146.61ZM146.613 190.524V191.445H147.554L147.534 190.505L146.613 190.524ZM134.638 190.524L133.717 190.505L133.697 191.445H134.638V190.524ZM134.641 190.412H135.562V190.412H134.641ZM129.404 185.175L129.404 184.254H129.404V185.175ZM124.167 190.412H123.246V190.412H124.167ZM124.17 190.524V191.445H125.111L125.091 190.505L124.17 190.524ZM112.193 190.524L111.273 190.505L111.253 191.445H112.193V190.524ZM112.196 190.412H113.117V190.412H112.196ZM106.96 185.175L106.96 184.254H106.96V185.175ZM101.723 190.412H100.802V190.412H101.723ZM101.726 190.524V191.445H102.666L102.646 190.505L101.726 190.524ZM89.749 190.524L88.8282 190.505L88.8084 191.445H89.749V190.524ZM89.752 190.412H90.673V190.412H89.752ZM84.5156 185.175L84.5157 184.254H84.5156V185.175ZM79.2783 190.412H78.3573V190.412H79.2783ZM79.2812 190.524V191.445H80.2218L80.202 190.505L79.2812 190.524ZM67.3057 190.524L66.3849 190.505L66.3651 191.445H67.3057V190.524ZM67.3086 190.412H68.2296V190.412H67.3086ZM62.0723 185.175L62.0723 184.254H62.0723V185.175ZM56.835 190.412H55.914V190.412H56.835ZM56.8379 190.524V191.445H57.7785L57.7587 190.505L56.8379 190.524ZM44.8613 190.524L43.9405 190.505L43.9207 191.445H44.8613V190.524ZM44.8643 190.412H45.7853V190.412H44.8643ZM39.627 185.175V184.254H39.6269L39.627 185.175ZM34.3906 190.412H33.4696V190.412H34.3906ZM34.3936 190.524V191.445H35.3341L35.3143 190.505L34.3936 190.524ZM22.417 190.524L21.4962 190.505L21.4764 191.445H22.417V190.524ZM22.4199 190.412H23.3409V190.412H22.4199ZM17.1836 185.175L17.1836 184.254H17.1836V185.175ZM11.9463 190.412H11.0253V190.412H11.9463ZM11.9492 190.524V191.445H12.8898L12.87 190.505L11.9492 190.524ZM0 190.524H-0.920997V191.445H0V190.524ZM0 179.683L0.0390766 178.762L-0.920997 178.722V179.683H0ZM0.225586 179.688L0.225518 180.609H0.225586V179.688ZM5.46289 174.452L6.38389 174.452V174.452H5.46289ZM0.225586 169.215V168.294H0.225518L0.225586 169.215ZM0 169.22H-0.920997V170.181L0.0390662 170.14L0 169.22ZM0 157.239L0.0390749 156.319L-0.920997 156.278V157.239H0ZM0.225586 157.245L0.225518 158.166H0.225586V157.245ZM5.46289 152.008H6.38389V152.008L5.46289 152.008ZM0.225586 146.771V145.85H0.225518L0.225586 146.771ZM0 146.776H-0.920997V147.737L0.0390679 147.697L0 146.776ZM0 134.795L0.0390733 133.875L-0.920997 133.834V134.795H0ZM0.225586 134.801L0.225518 135.722H0.225586V134.801ZM5.46289 129.563H6.38389V129.563L5.46289 129.563ZM0.225586 124.327V123.406H0.225518L0.225586 124.327ZM0 124.332H-0.920997V125.293L0.0390694 125.252L0 124.332ZM0 112.352L0.0390716 111.431L-0.920997 111.391V112.352H0ZM0.225586 112.357L0.225518 113.278H0.225586V112.357ZM5.46289 107.12H6.38389V107.12L5.46289 107.12ZM0.225586 101.883V100.962H0.225518L0.225586 101.883ZM0 101.888H-0.920997V102.849L0.039064 102.808L0 101.888ZM0 89.9072L0.0390735 88.9871L-0.920997 88.9463V89.9072H0ZM0.225586 89.9131L0.225518 90.8341H0.225586V89.9131ZM5.46289 84.6758H6.38389V84.6757L5.46289 84.6758ZM0.225586 79.4395V78.5185H0.225518L0.225586 79.4395ZM0 79.4443H-0.920997V80.4053L0.0390692 80.3645L0 79.4443ZM0 67.4629L0.0390754 66.5427L-0.920997 66.502V67.4629H0ZM0.225586 67.4688L0.225518 68.3897H0.225586V67.4688ZM5.46289 62.2324L6.38389 62.2325V62.2324H5.46289ZM0.225586 56.9951V56.0741H0.225518L0.225586 56.9951ZM0 57H-0.920997V57.9609L0.0390673 57.9202L0 57ZM0 45.0186L0.0390774 44.0984L-0.920997 44.0576V45.0186H0ZM0.225586 45.0244L0.225518 45.9454H0.225586V45.0244ZM5.46289 39.7881L6.38389 39.7881V39.7881H5.46289ZM0.225586 34.5508V33.6298H0.225518L0.225586 34.5508ZM0 34.5557H-0.920997V35.5166L0.0390654 35.4758L0 34.5557ZM0 22.5752L0.0390721 21.655L-0.920997 21.6143V22.5752H0ZM0.225586 22.5811L0.225518 23.5021H0.225586V22.5811ZM5.46289 17.3438H6.38389V17.3437L5.46289 17.3438ZM0.225586 12.1064V11.1854H0.225518L0.225586 12.1064ZM0 12.1113H-0.920997V13.0723L0.0390635 13.0315L0 12.1113ZM0 0V-0.920997H-0.920997V0H0ZM11.4512 0L10.5304 0.01942C10.6008 3.35939 13.3285 6.04502 16.6855 6.04502V5.12402V4.20303C14.3333 4.20303 12.4213 2.32121 12.372 -0.01942L11.4512 0ZM16.6855 5.12402L16.6856 6.04502C20.0426 6.04479 22.7693 3.35911 22.8397 0.0194209L21.9189 0L20.9982 -0.0194209C20.9488 2.32125 19.0375 4.20287 16.6855 4.20303L16.6855 5.12402ZM21.9189 0V0.920997H33.8945V0V-0.920997H21.9189V0ZM33.8945 0L32.9737 0.0194204C33.0442 3.3591 35.7709 6.04477 39.1279 6.04502L39.1279 5.12402L39.128 4.20303C36.776 4.20285 34.8647 2.32123 34.8153 -0.0194204L33.8945 0ZM39.1279 5.12402V6.04502C42.485 6.04502 45.2127 3.35939 45.2831 0.0194198L44.3623 0L43.4415 -0.0194198C43.3921 2.32121 41.4802 4.20303 39.1279 4.20303V5.12402ZM44.3623 0V0.920997H56.3389V0V-0.920997H44.3623V0ZM56.3389 0L55.4181 0.0194196C55.4885 3.35939 58.2162 6.04502 61.5732 6.04502V5.12402V4.20303C59.221 4.20303 57.309 2.32121 57.2597 -0.0194196L56.3389 0ZM61.5732 5.12402L61.5733 6.04502C64.9303 6.0448 67.657 3.35911 67.7274 0.0194206L66.8066 0L65.8858 -0.0194206C65.8365 2.32125 63.9252 4.20287 61.5732 4.20303L61.5732 5.12402ZM66.8066 0V0.920997H78.7832V0V-0.920997H66.8066V0ZM78.7832 0L77.8624 0.01942C77.9329 3.35939 80.6605 6.04502 84.0176 6.04502V5.12402V4.20303C81.6653 4.20303 79.7534 2.32121 79.704 -0.01942L78.7832 0ZM84.0176 5.12402L84.0176 6.04502C87.3746 6.04479 90.1013 3.35911 90.1718 0.0194209L89.251 0L88.3302 -0.0194209C88.2808 2.32125 86.3695 4.20287 84.0175 4.20303L84.0176 5.12402ZM89.251 0V0.920997H101.227V0V-0.920997H89.251V0ZM101.227 0L100.306 0.0194197C100.376 3.35939 103.104 6.04502 106.461 6.04502V5.12402V4.20303C104.109 4.20303 102.197 2.32121 102.147 -0.0194197L101.227 0ZM106.461 5.12402L106.461 6.04502C109.818 6.04478 112.545 3.35911 112.615 0.0194205L111.694 0L110.774 -0.0194205C110.724 2.32123 108.813 4.20286 106.461 4.20303L106.461 5.12402ZM111.694 0V0.920997H123.671V0V-0.920997H111.694V0ZM123.671 0L122.75 0.01942C122.821 3.35939 125.548 6.04502 128.905 6.04502V5.12402V4.20303C126.553 4.20303 124.641 2.32121 124.592 -0.01942L123.671 0ZM128.905 5.12402L128.905 6.04502C132.262 6.04479 134.989 3.35911 135.059 0.0194209L134.139 0L133.218 -0.0194209C133.169 2.32125 131.257 4.20287 128.905 4.20303L128.905 5.12402ZM134.139 0V0.920997H146.114V0V-0.920997H134.139V0ZM146.114 0L145.193 0.01942C145.264 3.35939 147.992 6.04502 151.349 6.04502V5.12402V4.20303C148.996 4.20303 147.084 2.32121 147.035 -0.01942L146.114 0ZM151.349 5.12402L151.349 6.04502C154.706 6.04479 157.432 3.35911 157.503 0.0194209L156.582 0L155.661 -0.0194209C155.612 2.32125 153.701 4.20287 151.349 4.20303L151.349 5.12402ZM156.582 0V0.920997H168.081V0V-0.920997H156.582V0ZM168.081 0H167.16V12.1123H168.081H169.002V0H168.081ZM168.081 12.1123L168.042 11.1921C164.764 11.3309 162.148 14.0312 162.148 17.3437L163.069 17.3438L163.99 17.3438C163.99 15.0228 165.823 13.1297 168.12 13.0325L168.081 12.1123ZM163.069 17.3438H162.148C162.148 20.6563 164.764 23.3566 168.042 23.4954L168.081 22.5752L168.12 21.655C165.823 21.5578 163.99 19.6648 163.99 17.3438H163.069ZM168.081 22.5752H167.16V34.5557H168.081H169.002V22.5752H168.081ZM168.081 34.5557L168.042 33.6355C164.763 33.7742 162.148 36.4757 162.148 39.7881H163.069H163.99C163.99 37.4668 165.823 35.573 168.12 35.4758L168.081 34.5557ZM163.069 39.7881L162.148 39.7881C162.148 43.1006 164.764 45.801 168.042 45.9397L168.081 45.0195L168.12 44.0994C165.823 44.0022 163.99 42.1091 163.99 39.7881L163.069 39.7881ZM168.081 45.0195H167.16V57H168.081H169.002V45.0195H168.081ZM168.081 57L168.042 56.0798C164.763 56.2186 162.148 58.92 162.148 62.2324H163.069H163.99C163.99 59.9112 165.823 58.0174 168.12 57.9202L168.081 57ZM163.069 62.2324L162.148 62.2325C162.149 65.545 164.764 68.2443 168.042 68.3831L168.081 67.4629L168.12 66.5427C165.823 66.4455 163.99 64.5531 163.99 62.2324L163.069 62.2324ZM168.081 67.4629H167.16V79.4443H168.081H169.002V67.4629H168.081ZM168.081 79.4443L168.042 78.5242C164.764 78.6629 162.148 81.3633 162.148 84.6757L163.069 84.6758L163.99 84.6758C163.99 82.3548 165.823 80.4617 168.12 80.3645L168.081 79.4443ZM163.069 84.6758H162.148C162.148 87.9884 164.764 90.6887 168.042 90.8274L168.081 89.9072L168.12 88.9871C165.823 88.8898 163.99 86.9968 163.99 84.6758H163.069ZM168.081 89.9072H167.16V101.888H168.081H169.002V89.9072H168.081ZM168.081 101.888L168.042 100.968C164.763 101.106 162.148 103.808 162.148 107.12H163.069H163.99C163.99 104.799 165.823 102.905 168.12 102.808L168.081 101.888ZM163.069 107.12H162.148C162.148 110.433 164.764 113.133 168.042 113.272L168.081 112.352L168.12 111.431C165.823 111.334 163.99 109.441 163.99 107.12H163.069ZM168.081 112.352H167.16V124.332H168.081H169.002V112.352H168.081ZM168.081 124.332L168.042 123.412C164.764 123.551 162.148 126.251 162.148 129.563L163.069 129.563L163.99 129.564C163.99 127.243 165.823 125.349 168.12 125.252L168.081 124.332ZM163.069 129.563H162.148C162.148 132.876 164.764 135.576 168.042 135.715L168.081 134.795L168.12 133.875C165.823 133.778 163.99 131.885 163.99 129.563H163.069ZM168.081 134.795H167.16V146.776H168.081H169.002V134.795H168.081ZM168.081 146.776L168.042 145.856C164.763 145.995 162.148 148.696 162.148 152.009H163.069H163.99C163.99 149.688 165.823 147.794 168.12 147.697L168.081 146.776ZM163.069 152.009L162.148 152.009C162.149 155.321 164.764 158.021 168.042 158.159L168.081 157.239L168.12 156.319C165.823 156.222 163.991 154.329 163.99 152.009L163.069 152.009ZM168.081 157.239H167.16V169.22H168.081H169.002V157.239H168.081ZM168.081 169.22L168.042 168.3C164.763 168.438 162.148 171.14 162.148 174.452H163.069H163.99C163.99 172.131 165.823 170.237 168.12 170.14L168.081 169.22ZM163.069 174.452L162.148 174.452C162.148 177.765 164.764 180.464 168.042 180.603L168.081 179.683L168.12 178.762C165.823 178.665 163.99 176.773 163.99 174.452L163.069 174.452ZM168.081 179.683H167.16V190.524H168.081H169.002V179.683H168.081ZM168.081 190.524V189.603H157.081V190.524V191.445H168.081V190.524ZM157.081 190.524L158.002 190.544C158.002 190.533 158.002 190.525 158.003 190.5C158.004 190.479 158.005 190.447 158.005 190.412H157.084H156.163C156.163 190.446 156.162 190.414 156.16 190.505L157.081 190.524ZM157.084 190.412H158.005C158.005 187.011 155.249 184.254 151.848 184.254L151.848 185.175L151.848 186.096C154.231 186.096 156.163 188.028 156.163 190.412H157.084ZM151.848 185.175V184.254C148.447 184.254 145.689 187.011 145.689 190.412H146.61H147.531C147.531 188.028 149.464 186.096 151.848 186.096V185.175ZM146.61 190.412H145.689C145.689 190.447 145.69 190.479 145.691 190.5C145.692 190.525 145.692 190.533 145.692 190.544L146.613 190.524L147.534 190.505C147.532 190.414 147.531 190.446 147.531 190.412H146.61ZM146.613 190.524V189.603H134.638V190.524V191.445H146.613V190.524ZM134.638 190.524L135.558 190.544C135.559 190.533 135.559 190.525 135.56 190.5C135.561 190.479 135.562 190.447 135.562 190.412H134.641H133.72C133.72 190.446 133.719 190.414 133.717 190.505L134.638 190.524ZM134.641 190.412H135.562C135.562 187.011 132.805 184.254 129.404 184.254L129.404 185.175L129.404 186.096C131.788 186.096 133.72 188.028 133.72 190.412H134.641ZM129.404 185.175V184.254C126.003 184.254 123.246 187.011 123.246 190.412H124.167H125.088C125.088 188.028 127.021 186.096 129.404 186.096V185.175ZM124.167 190.412H123.246C123.246 190.447 123.247 190.479 123.248 190.5C123.249 190.525 123.249 190.533 123.249 190.544L124.17 190.524L125.091 190.505C125.089 190.414 125.088 190.446 125.088 190.412H124.167ZM124.17 190.524V189.603H112.193V190.524V191.445H124.17V190.524ZM112.193 190.524L113.114 190.544C113.114 190.533 113.115 190.525 113.116 190.5C113.116 190.479 113.117 190.447 113.117 190.412H112.196H111.275C111.275 190.446 111.274 190.414 111.273 190.505L112.193 190.524ZM112.196 190.412H113.117C113.117 187.011 110.361 184.254 106.96 184.254L106.96 185.175L106.96 186.096C109.343 186.096 111.275 188.028 111.275 190.412H112.196ZM106.96 185.175V184.254C103.559 184.254 100.802 187.011 100.802 190.412H101.723H102.644C102.644 188.028 104.576 186.096 106.96 186.096V185.175ZM101.723 190.412H100.802C100.802 190.447 100.803 190.479 100.803 190.5C100.804 190.525 100.805 190.533 100.805 190.544L101.726 190.524L102.646 190.505C102.644 190.414 102.644 190.446 102.644 190.412H101.723ZM101.726 190.524V189.603H89.749V190.524V191.445H101.726V190.524ZM89.749 190.524L90.6698 190.544C90.67 190.533 90.6704 190.525 90.6712 190.5C90.672 190.479 90.673 190.447 90.673 190.412H89.752H88.831C88.831 190.446 88.8302 190.414 88.8282 190.505L89.749 190.524ZM89.752 190.412H90.673C90.673 187.011 87.9166 184.254 84.5157 184.254L84.5156 185.175L84.5156 186.096C86.8989 186.096 88.831 188.028 88.831 190.412H89.752ZM84.5156 185.175V184.254C81.1147 184.254 78.3573 187.011 78.3573 190.412H79.2783H80.1993C80.1993 188.028 82.132 186.096 84.5156 186.096V185.175ZM79.2783 190.412H78.3573C78.3573 190.447 78.3583 190.479 78.359 190.5C78.3599 190.525 78.3602 190.533 78.3605 190.544L79.2812 190.524L80.202 190.505C80.2001 190.414 80.1993 190.446 80.1993 190.412H79.2783ZM79.2812 190.524V189.603H67.3057V190.524V191.445H79.2812V190.524ZM67.3057 190.524L68.2265 190.544C68.2267 190.533 68.227 190.525 68.2279 190.5C68.2286 190.479 68.2296 190.447 68.2296 190.412H67.3086H66.3876C66.3876 190.446 66.3868 190.414 66.3849 190.505L67.3057 190.524ZM67.3086 190.412H68.2296C68.2296 187.011 65.4732 184.254 62.0723 184.254L62.0723 185.175L62.0722 186.096C64.4556 186.096 66.3876 188.028 66.3876 190.412H67.3086ZM62.0723 185.175V184.254C58.6713 184.254 55.914 187.011 55.914 190.412H56.835H57.756C57.756 188.028 59.6886 186.096 62.0723 186.096V185.175ZM56.835 190.412H55.914C55.914 190.447 55.915 190.479 55.9157 190.5C55.9165 190.525 55.9169 190.533 55.9171 190.544L56.8379 190.524L57.7587 190.505C57.7568 190.414 57.756 190.446 57.756 190.412H56.835ZM56.8379 190.524V189.603H44.8613V190.524V191.445H56.8379V190.524ZM44.8613 190.524L45.7821 190.544C45.7823 190.533 45.7827 190.525 45.7836 190.5C45.7843 190.479 45.7853 190.447 45.7853 190.412H44.8643H43.9433C43.9433 190.446 43.9425 190.414 43.9405 190.505L44.8613 190.524ZM44.8643 190.412H45.7853C45.7853 187.011 43.0279 184.254 39.627 184.254V185.175V186.096C42.0106 186.096 43.9433 188.028 43.9433 190.412H44.8643ZM39.627 185.175L39.6269 184.254C36.2261 184.254 33.4696 187.011 33.4696 190.412H34.3906H35.3116C35.3116 188.028 37.2437 186.096 39.627 186.096L39.627 185.175ZM34.3906 190.412H33.4696C33.4696 190.447 33.4706 190.479 33.4713 190.5C33.4722 190.525 33.4725 190.533 33.4728 190.544L34.3936 190.524L35.3143 190.505C35.3124 190.414 35.3116 190.446 35.3116 190.412H34.3906ZM34.3936 190.524V189.603H22.417V190.524V191.445H34.3936V190.524ZM22.417 190.524L23.3378 190.544C23.338 190.533 23.3384 190.525 23.3392 190.5C23.3399 190.479 23.3409 190.447 23.3409 190.412H22.4199H21.4989C21.4989 190.446 21.4981 190.414 21.4962 190.505L22.417 190.524ZM22.4199 190.412H23.3409C23.3409 187.011 20.5846 184.254 17.1836 184.254L17.1836 185.175L17.1835 186.096C19.5669 186.096 21.4989 188.028 21.4989 190.412H22.4199ZM17.1836 185.175V184.254C13.7827 184.254 11.0253 187.011 11.0253 190.412H11.9463H12.8673C12.8673 188.028 14.8 186.096 17.1836 186.096V185.175ZM11.9463 190.412H11.0253C11.0253 190.447 11.0263 190.479 11.027 190.5C11.0278 190.525 11.0282 190.533 11.0284 190.544L11.9492 190.524L12.87 190.505C12.8681 190.414 12.8673 190.446 12.8673 190.412H11.9463ZM11.9492 190.524V189.603H0V190.524V191.445H11.9492V190.524ZM0 190.524H0.920997V179.683H0H-0.920997V190.524H0ZM0 179.683L-0.0390766 180.603C0.0385391 180.606 0.129638 180.609 0.225518 180.609L0.225586 179.688L0.225654 178.767C0.170334 178.767 0.1111 178.766 0.0390766 178.762L0 179.683ZM0.225586 179.688V180.609C3.62625 180.609 6.38371 177.853 6.38389 174.452L5.46289 174.452L4.54189 174.452C4.54177 176.835 2.6093 178.767 0.225586 178.767V179.688ZM5.46289 174.452H6.38389C6.38389 171.051 3.62652 168.294 0.225586 168.294V169.215V170.136C2.60922 170.136 4.54189 172.069 4.54189 174.452H5.46289ZM0.225586 169.215L0.225518 168.294C0.136166 168.294 0.0479353 168.296 -0.0390662 168.3L0 169.22L0.0390662 170.14C0.101665 170.137 0.163846 170.136 0.225654 170.136L0.225586 169.215ZM0 169.22H0.920997V157.239H0H-0.920997V169.22H0ZM0 157.239L-0.0390749 158.159C0.038535 158.163 0.129641 158.166 0.225518 158.166L0.225586 157.245L0.225654 156.324C0.170337 156.324 0.111098 156.322 0.0390749 156.319L0 157.239ZM0.225586 157.245V158.166C3.62652 158.166 6.38389 155.409 6.38389 152.008H5.46289H4.54189C4.54189 154.391 2.60922 156.324 0.225586 156.324V157.245ZM5.46289 152.008L6.38389 152.008C6.38358 148.607 3.62622 145.85 0.225586 145.85V146.771V147.692C2.6092 147.692 4.54168 149.625 4.54189 152.008L5.46289 152.008ZM0.225586 146.771L0.225518 145.85C0.136164 145.85 0.0479391 145.853 -0.0390679 145.856L0 146.776L0.0390679 147.697C0.101667 147.694 0.163841 147.692 0.225654 147.692L0.225586 146.771ZM0 146.776H0.920997V134.795H0H-0.920997V146.776H0ZM0 134.795L-0.0390733 135.715C0.0385311 135.718 0.129643 135.722 0.225518 135.722L0.225586 134.801L0.225654 133.88C0.170341 133.88 0.111096 133.878 0.0390733 133.875L0 134.795ZM0.225586 134.801V135.722C3.62652 135.722 6.38389 132.964 6.38389 129.563H5.46289H4.54189C4.54189 131.947 2.60922 133.88 0.225586 133.88V134.801ZM5.46289 129.563L6.38389 129.563C6.38372 126.162 3.62625 123.406 0.225586 123.406V124.327V125.248C2.60931 125.248 4.54178 127.18 4.54189 129.564L5.46289 129.563ZM0.225586 124.327L0.225518 123.406C0.136162 123.406 0.0479426 123.408 -0.0390694 123.412L0 124.332L0.0390694 125.252C0.10167 125.25 0.163837 125.248 0.225654 125.248L0.225586 124.327ZM0 124.332H0.920997V112.352H0H-0.920997V124.332H0ZM0 112.352L-0.0390716 113.272C0.0385268 113.275 0.129646 113.278 0.225518 113.278L0.225586 112.357L0.225654 111.436C0.170345 111.436 0.111093 111.434 0.0390716 111.431L0 112.352ZM0.225586 112.357V113.278C3.62652 113.278 6.38389 110.521 6.38389 107.12H5.46289H4.54189C4.54189 109.504 2.60922 111.436 0.225586 111.436V112.357ZM5.46289 107.12L6.38389 107.12C6.38387 103.719 3.62652 100.962 0.225586 100.962V101.883V102.804C2.6092 102.804 4.54188 104.736 4.54189 107.12L5.46289 107.12ZM0.225586 101.883L0.225518 100.962C0.136169 100.962 0.0479304 100.964 -0.039064 100.968L0 101.888L0.039064 102.808C0.101661 102.805 0.163851 102.804 0.225654 102.804L0.225586 101.883ZM0 101.888H0.920997V89.9072H0H-0.920997V101.888H0ZM0 89.9072L-0.0390735 90.8274C0.0385317 90.8307 0.129643 90.8341 0.225518 90.8341L0.225586 89.9131L0.225654 88.9921C0.17034 88.9921 0.111096 88.9901 0.0390735 88.9871L0 89.9072ZM0.225586 89.9131V90.8341C3.62652 90.8341 6.38389 88.0767 6.38389 84.6758H5.46289H4.54189C4.54189 87.0594 2.60922 88.9921 0.225586 88.9921V89.9131ZM5.46289 84.6758L6.38389 84.6757C6.3837 81.2748 3.62625 78.5185 0.225586 78.5185V79.4395V80.3605C2.60929 80.3605 4.54176 82.2925 4.54189 84.6758L5.46289 84.6758ZM0.225586 79.4395L0.225518 78.5185C0.136162 78.5185 0.0479421 78.5205 -0.0390692 78.5242L0 79.4443L0.0390692 80.3645C0.101669 80.3618 0.163838 80.3605 0.225654 80.3605L0.225586 79.4395ZM0 79.4443H0.920997V67.4629H0H-0.920997V79.4443H0ZM0 67.4629L-0.0390754 68.3831C0.0385363 68.3864 0.12964 68.3897 0.225518 68.3897L0.225586 67.4688L0.225654 66.5478C0.170336 66.5478 0.111099 66.5458 0.0390754 66.5427L0 67.4629ZM0.225586 67.4688V68.3897C3.62623 68.3897 6.38362 65.6333 6.38389 62.2325L5.46289 62.2324L4.54189 62.2323C4.5417 64.6157 2.60923 66.5478 0.225586 66.5478V67.4688ZM5.46289 62.2324H6.38389C6.38389 58.8315 3.62652 56.0741 0.225586 56.0741V56.9951V57.9161C2.60922 57.9161 4.54189 59.8488 4.54189 62.2324H5.46289ZM0.225586 56.9951L0.225518 56.0741C0.136165 56.0741 0.0479378 56.0761 -0.0390673 56.0798L0 57L0.0390673 57.9202C0.101666 57.9175 0.163843 57.9161 0.225654 57.9161L0.225586 56.9951ZM0 57H0.920997V45.0186H0H-0.920997V57H0ZM0 45.0186L-0.0390774 45.9387C0.0385411 45.942 0.129636 45.9454 0.225518 45.9454L0.225586 45.0244L0.225654 44.1034C0.170332 44.1034 0.111101 44.1014 0.0390774 44.0984L0 45.0186ZM0.225586 45.0244V45.9454C3.62627 45.9454 6.38378 43.1891 6.38389 39.7881L5.46289 39.7881L4.54189 39.7881C4.54182 42.1714 2.60936 44.1034 0.225586 44.1034V45.0244ZM5.46289 39.7881H6.38389C6.38389 36.3871 3.62652 33.6298 0.225586 33.6298V34.5508V35.4718C2.60922 35.4718 4.54189 37.4045 4.54189 39.7881H5.46289ZM0.225586 34.5508L0.225518 33.6298C0.136167 33.6298 0.0479335 33.6318 -0.0390654 33.6355L0 34.5557L0.0390654 35.4758C0.101663 35.4732 0.163848 35.4718 0.225654 35.4718L0.225586 34.5508ZM0 34.5557H0.920997V22.5752H0H-0.920997V34.5557H0ZM0 22.5752L-0.0390721 23.4954C0.0385282 23.4987 0.129645 23.502 0.225518 23.5021L0.225586 22.5811L0.225654 21.6601C0.170343 21.6601 0.111094 21.6581 0.0390721 21.655L0 22.5752ZM0.225586 22.5811V23.5021C3.62652 23.5021 6.38389 20.7447 6.38389 17.3438H5.46289H4.54189C4.54189 19.7274 2.60922 21.6601 0.225586 21.6601V22.5811ZM5.46289 17.3438L6.38389 17.3437C6.38382 13.9429 3.6265 11.1854 0.225586 11.1854V12.1064V13.0274C2.60917 13.0274 4.54185 14.9602 4.54189 17.3438L5.46289 17.3438ZM0.225586 12.1064L0.225518 11.1854C0.13617 11.1855 0.0479292 11.1875 -0.0390635 11.1912L0 12.1113L0.0390635 13.0315C0.10166 13.0288 0.163853 13.0274 0.225654 13.0274L0.225586 12.1064ZM0 12.1113H0.920997V0H0H-0.920997V12.1113H0ZM0 0V0.920997H11.4512V0V-0.920997H0V0Z" fill="#DDDDDD" mask="url(#path-1-inside-1_222_13574)"/>
</g>
<rect id="Rectangle 1" x="14.9385" y="17.0941" width="139.153" height="156.609" fill="#F2F2F2"/>
</g>
</svg>
