<svg width="182" height="182" viewBox="0 0 182 182" fill="none" xmlns="http://www.w3.org/2000/svg">
<g id="Sides Pixel art">
<path id="Vector" d="M64.6977 3.37968C65.1806 3.37133 67.3472 3.31302 67.6622 3.36819L73.4499 3.37448C73.4553 4.30421 73.4331 5.39004 73.4709 6.30611L73.461 9.18399C72.5426 9.18865 71.4951 9.22019 70.5882 9.19699C70.5328 10.1613 70.537 11.158 70.5276 12.1262L67.6164 12.1349L67.6344 15.0578C68.5965 15.0635 69.5588 15.0617 70.5209 15.0522C70.5278 16.0179 70.5526 17.0373 70.5326 17.9983C71.4374 17.9913 72.5676 17.9518 73.4537 18.0061C73.4489 17.0206 73.4546 16.0351 73.4708 15.0497C74.4317 15.0526 75.4252 15.0414 76.3827 15.0593L76.3817 9.1842L88.0798 9.18572L88.0792 12.1122L91 12.1204L91.0043 15.0553L85.2023 15.0555C85.0945 15.8604 85.1389 17.1147 85.1433 17.9588L82.2244 17.9916L82.2383 20.9075C83.2182 20.8935 84.1981 20.9039 85.1775 20.9388L85.1523 23.8057L90.9891 23.823L90.9956 53.0418C99.6491 53.1007 108.712 53.1551 117.352 53.0252C117.27 54.0849 117.225 54.9031 117.226 55.9708L128.549 55.9616C130.524 55.9604 132.86 55.901 134.808 55.9864C134.811 56.9062 134.838 57.935 134.803 58.8456C137.687 58.8879 140.682 58.9387 143.561 58.8379C143.571 59.8113 143.6 60.8511 143.58 61.8189C146.484 61.8212 149.43 61.7972 152.33 61.831C152.33 62.7673 152.336 63.7036 152.349 64.6398C153.727 64.8155 156.85 64.8394 158.208 64.6304L158.204 67.6061C160.156 67.6285 162.109 67.6255 164.062 67.5971C163.994 68.6247 163.966 69.5259 163.955 70.5564C165.902 70.59 167.85 70.586 169.798 70.5442C169.834 71.5179 169.896 72.595 169.889 73.5608L172.787 73.4715C172.775 74.4548 172.779 75.4805 172.748 76.4594C173.607 76.4358 174.884 76.3629 175.709 76.4428C175.713 77.3733 175.737 78.3708 175.707 79.2954C176.618 79.3073 177.721 79.3503 178.617 79.2958C178.614 81.3264 178.603 83.1968 178.703 85.2248L181.538 85.1718C181.582 90.0453 181.58 94.9189 181.53 99.7914L181.55 100.458C181.804 100.907 181.502 110.096 181.503 111.465C180.603 111.461 179.62 111.433 178.73 111.506C178.731 112.304 178.778 113.638 178.65 114.382C178.527 115.518 178.588 117.908 178.596 119.151C178.61 121.323 178.541 123.908 178.688 126.053H175.686L175.682 131.904C174.604 131.887 173.828 131.875 172.746 131.973C172.745 134.725 172.663 137.936 172.761 140.65C171.775 140.67 170.79 140.68 169.805 140.683L169.891 143.6C168.937 143.595 167.917 143.572 166.97 143.597C166.921 145.317 166.821 147.71 166.942 149.422L164.031 149.359C163.992 150.345 163.945 151.288 163.986 152.276L161.049 152.344C161.119 153.49 161.081 154.147 161.033 155.281L158.204 155.282C158.151 156.254 158.12 157.228 158.112 158.203L155.251 158.189C155.242 159.146 155.231 160.074 155.264 161.032C154.316 161.045 153.273 161.082 152.332 161.053L152.334 164.048C151.214 163.959 150.47 164.017 149.353 164.055C149.373 165.009 149.378 166.002 149.417 166.952C147.466 166.91 145.512 166.924 143.562 166.994L143.607 169.879C141.684 169.876 139.597 169.833 137.687 169.893C137.696 170.836 137.687 171.829 137.715 172.766C135.8 172.732 133.885 172.728 131.97 172.757C131.875 173.815 131.876 174.62 131.879 175.677C128.987 175.683 126.004 175.718 123.117 175.671C123.116 176.533 123.077 177.81 123.164 178.634C119.272 178.599 115.382 178.594 111.491 178.618C111.467 179.489 111.402 180.664 111.453 181.511C107.862 181.562 104.272 181.576 100.682 181.554C98.6009 181.554 95.9657 181.619 93.917 181.526L73.4848 181.539C73.5334 180.669 73.5027 179.504 73.5059 178.61C69.6788 178.669 65.5931 178.516 61.8071 178.657C61.7629 177.759 61.8011 176.629 61.807 175.714C58.8882 175.676 55.9659 175.719 53.0499 175.671L53.0252 172.759L47.1938 172.818L47.1772 169.881C45.3013 169.825 43.2398 169.88 41.3507 169.893C41.3327 168.921 41.3432 167.915 41.3399 166.941L35.5072 166.956L35.4975 164.049L32.6264 164.04C32.5779 163.083 32.588 162.018 32.5765 161.052C31.5744 161.128 30.6623 161.077 29.6633 161.037L29.6557 158.191L26.729 158.196L26.7593 155.258L23.8051 155.273L23.8052 152.348L20.967 152.356C20.893 151.298 20.8995 150.461 20.9123 149.406C19.9016 149.421 19.0196 149.432 18.0061 149.374L17.9915 143.575L15.0899 143.584C15.0587 142.622 15.0722 141.623 15.0719 140.658L12.1136 140.629C12.1605 137.767 12.1076 134.756 12.1026 131.882L9.16675 131.884C9.22062 129.931 9.24046 127.976 9.22615 126.022C8.28536 126.052 7.2804 126.034 6.3344 126.034C6.2104 122.208 6.40226 118.229 6.28432 114.381C6.16433 113.779 6.20433 112.124 6.20519 111.434L3.38152 111.442C3.3516 109.501 3.37686 107.505 3.37849 105.559L3.39225 99.7665C3.45794 96.4549 3.35301 93.1065 3.39453 89.7906C3.41339 88.2802 3.40624 86.6945 3.28613 85.1908C4.21207 85.2329 5.3883 85.1764 6.33256 85.1563C6.25993 83.1434 6.20747 81.3034 6.33701 79.2923C7.32723 79.2966 8.27658 79.2932 9.26647 79.3606L9.22734 76.4377C10.1468 76.4663 11.1715 76.4412 12.099 76.4385L12.1601 73.4828C13.1062 73.4971 14.0524 73.5056 14.9986 73.5082L15.0925 70.5092C17.0148 70.6112 19.032 70.5864 20.955 70.5412C20.895 69.6789 20.9437 68.4975 20.9552 67.6108C22.8909 67.6724 24.7393 67.604 26.7154 67.702C26.7443 66.6974 26.7809 65.696 26.7672 64.6909C28.2741 64.8412 30.9876 64.7625 32.587 64.7577C32.6214 63.7802 32.6275 62.8019 32.6057 61.824L41.3444 61.8163L41.3545 58.813C44.0399 58.98 47.3045 58.8889 50.0212 58.881C50.1648 57.9082 50.141 56.9504 50.1337 55.9711L55.8731 55.9907L55.8651 28.8843L55.8611 19.9584C55.8608 18.5667 55.7954 16.3377 55.927 15.0213C56.8733 15.0606 57.8927 15.0465 58.8452 15.0509C58.8792 14.0763 58.8873 13.101 58.8693 12.126L55.9639 12.1207L55.9531 9.22127L55.9677 3.37578L64.6977 3.37968Z" fill="#E7EAEC"/>
<path id="Vector_2" d="M64.6981 3.37968C65.1809 3.37133 67.3475 3.31302 67.6626 3.36819L73.4503 3.37448C73.4556 4.30421 73.4335 5.39004 73.4712 6.30611L73.4613 9.18399C72.543 9.18865 71.4954 9.22019 70.5886 9.19699C70.5332 10.1613 70.5373 11.158 70.528 12.1262L67.6167 12.1349L67.6347 15.0578C68.5968 15.0635 69.5591 15.0617 70.5212 15.0522C70.5282 16.0179 70.5529 17.0373 70.5329 17.9983C71.4377 17.9913 72.5679 17.9518 73.4541 18.0061C73.4492 17.0206 73.4549 16.0351 73.4711 15.0497C74.432 15.0526 75.4255 15.0414 76.383 15.0593L76.382 9.1842L88.0802 9.18572L88.0795 12.1122L91.0003 12.1204L91.0046 15.0553L85.2026 15.0555C85.0949 15.8604 85.1392 17.1147 85.1436 17.9588L82.2247 17.9916L82.2387 20.9075C83.2185 20.8935 84.1984 20.9039 85.1778 20.9388L85.1526 23.8057L90.9895 23.823L90.996 53.0418L90.9927 58.8596C90.9949 62.7283 90.9569 66.6658 91.0046 70.5285L107.891 70.5224C110.934 70.5225 114.254 70.4587 117.28 70.5577C117.363 71.4321 117.352 72.6306 117.337 73.5303C123.16 73.432 128.984 73.4109 134.808 73.4673C134.823 74.4757 134.849 75.4838 134.889 76.4916C137.186 76.4201 139.485 76.3995 141.783 76.4297C142.313 76.4128 142.903 76.3429 143.387 76.5105C143.535 76.7461 143.494 76.6214 143.519 76.881C143.543 77.6976 143.588 78.5876 143.587 79.3983L145.436 79.3478C147.777 79.3764 150.043 79.288 152.393 79.3641C152.385 80.2523 152.348 81.3365 152.411 82.2077C154.268 82.3508 156.257 82.1745 158.227 82.2829C158.14 83.2955 158.049 84.0113 158.227 85.0219C160.186 85.2385 162.117 85.0307 164.045 85.1469L164.043 88.036C165.011 88.047 166.02 88.0399 166.981 88.1187L166.994 90.9971C167.963 91.0025 168.959 90.996 169.926 91.0177C169.896 92.0908 169.904 92.9417 169.986 94.017C170.717 93.9639 172.103 93.7374 172.632 94.1233C172.861 94.5623 172.863 96.0408 173.036 96.8278C173.854 96.8408 174.87 96.8224 175.668 96.8701L175.713 99.7708C174.753 99.76 173.761 99.734 172.805 99.7589L172.817 102.71C171.835 102.68 170.798 102.667 169.821 102.615C169.86 103.624 169.888 104.535 169.875 105.547L166.946 105.56C166.945 106.529 166.924 107.578 166.95 108.54C165.99 108.524 164.893 108.532 163.946 108.481C164.012 109.526 164.057 110.352 164.04 111.404C162.573 111.586 159.75 111.477 158.202 111.489C158.194 111.952 158.209 114.05 158.152 114.36L158.056 114.368C157.024 114.44 152.889 114.249 152.39 114.533L152.321 114.818C152.347 115.654 152.367 116.436 152.355 117.273C149.625 117.558 146.267 117.129 143.582 117.274C140.654 117.304 137.725 117.315 134.798 117.305L134.8 120.197C127.055 120.077 119.203 120.231 111.433 120.162C111.43 121.148 111.439 122.133 111.459 123.119C98.8874 123.269 86.0493 123.152 73.4597 123.143C73.5181 122.299 73.4672 121.058 73.4572 120.184L55.9673 120.182L55.9867 117.305C52.1682 117.241 48.0928 117.286 44.2724 117.326C44.2851 116.358 44.2657 115.35 44.2613 114.379C42.3191 114.358 40.3768 114.369 38.435 114.41C38.4218 113.437 38.4173 112.462 38.4216 111.489C36.5 111.411 34.5279 111.449 32.606 111.482L32.5678 108.548C31.6154 108.531 30.6049 108.555 29.6479 108.563L29.6359 102.694L26.7316 102.696C26.7171 99.7752 26.7185 96.8538 26.7356 93.9336L29.6568 93.926L29.6436 91.0144L35.5089 91.0101L35.5019 88.0849C36.4643 88.0689 37.4646 88.0988 38.4298 88.114L38.4211 91.0025L41.3577 91.0046L41.3531 82.2093C43.3059 82.2459 45.259 82.2517 47.2119 82.2264C47.1873 81.2779 47.1992 80.2742 47.1942 79.3207C50.0958 79.273 53.082 79.3088 55.9952 79.2945C55.9511 78.2832 56.0753 74.0431 55.8817 73.4499C56.0432 73.1399 55.9827 63.0351 55.9846 61.7291L55.9731 30.3788L55.9809 20.5605C55.9826 19.0232 56.0526 16.4881 55.9273 15.0213C56.8737 15.0606 57.893 15.0465 58.8455 15.0509C58.8796 14.0763 58.8876 13.101 58.8696 12.126L55.9642 12.1207L55.9535 9.22127L55.968 3.37578L64.6981 3.37968Z" fill="#FDCA48"/>
<path id="Vector_3" d="M76.3817 9.18359L88.0799 9.18511L88.0792 12.1115L91 12.1198L91.0044 15.0547L85.2023 15.0549C85.0946 15.8597 85.1389 17.1141 85.1434 17.9582L82.2244 17.991L82.2384 20.9069C83.2182 20.8929 84.1981 20.9033 85.1775 20.9382L85.1524 23.8051L90.9892 23.8224L90.9957 53.0412L90.9924 58.859C90.9946 62.7276 90.9567 66.6652 91.0044 70.5279L107.891 70.5218C110.933 70.5219 114.254 70.4581 117.28 70.557C117.211 71.0878 117.263 72.7753 117.247 73.4723L96.846 73.467L96.8546 76.4344C94.9512 76.3709 92.9154 76.399 91.0011 76.3934L91.0044 79.3169C89.0727 79.2893 87.095 79.3145 85.1594 79.3177L85.143 76.4787C83.3474 76.3393 81.1305 76.4061 79.2952 76.4177L79.3283 73.5298C76.1419 73.2893 71.0059 73.4516 67.686 73.4564C67.6932 72.4699 67.7151 71.4931 67.6422 70.5087C67.565 71.4477 67.5919 72.4892 67.595 73.4391C67.0378 73.4501 65.535 73.4449 65.0532 73.5221L64.6706 73.4626L64.6943 66.5973C64.6883 65.2202 64.6228 63.4312 64.7057 62.0934C64.982 61.8614 65.0787 61.9252 65.5072 61.8691C67.9369 61.7846 70.3688 61.7888 72.7982 61.8817C73.1539 61.8489 73.1762 61.8919 73.4557 61.7126C73.5582 60.6205 73.4474 58.6029 73.4471 57.414L73.4477 48.1899L73.4538 18.0055C73.4489 17.02 73.4547 16.0345 73.4708 15.0491C74.4318 15.052 75.4252 15.0408 76.3827 15.0587L76.3817 9.18359Z" fill="#EE9C00"/>
<path id="Vector_4" d="M76.3814 9.18359L88.0795 9.18511L88.0789 12.1115L90.9997 12.1198L91.004 15.0547L85.202 15.0549C85.0942 15.8597 85.1386 17.1141 85.143 17.9582L82.2241 17.991L82.2381 20.9069C82.0861 35.5178 82.0786 50.1299 82.2155 64.741C81.7537 64.5315 80.0788 64.4824 79.5773 64.8004C79.1298 65.4198 79.3813 66.6138 79.4554 67.4398C78.4154 67.527 77.5667 67.5991 76.5174 67.5956C76.467 66.6478 76.4264 65.6995 76.3956 64.7508C75.4493 64.7612 74.5029 64.7597 73.5566 64.7462C73.4938 63.9097 73.6963 62.7393 73.3849 62.0702C73.3238 61.9386 72.9903 61.9204 72.7979 61.8817C73.1535 61.8489 73.1758 61.8919 73.4554 61.7126C73.5578 60.6205 73.4471 58.6029 73.4467 57.414L73.4474 48.1899L73.4534 18.0055C73.4486 17.02 73.4543 16.0345 73.4705 15.0491C74.4314 15.052 75.4249 15.0408 76.3824 15.0587L76.3814 9.18359Z" fill="#FDCA48"/>
<path id="Vector_5" d="M65.5072 61.869C67.9369 61.7844 70.3688 61.7887 72.7982 61.8816C72.9906 61.9203 73.3241 61.9385 73.3853 62.0701C73.6966 62.7391 73.4941 63.9096 73.557 64.7461C74.5032 64.7596 75.4496 64.7611 76.3959 64.7507C76.4267 65.6994 76.4674 66.6476 76.5178 67.5955C77.5671 67.5989 78.4157 67.5269 79.4557 67.4397C79.3817 66.6137 79.1302 65.4197 79.5777 64.8003C80.0791 64.4823 81.7541 64.5314 82.2159 64.7409C82.2369 66.6738 82.2315 68.6069 82.1994 70.5397C77.397 70.4475 72.4621 70.5305 67.6422 70.5086C67.565 71.4475 67.5919 72.4891 67.595 73.439C67.0378 73.45 65.535 73.4448 65.0532 73.5219L64.6706 73.4624L64.6943 66.5971C64.6883 65.22 64.6228 63.431 64.7057 62.0933C64.982 61.8613 65.0787 61.925 65.5072 61.869Z" fill="#C8CED5"/>
<path id="Vector_6" d="M117.337 73.5303C123.16 73.432 128.984 73.411 134.808 73.4673C134.822 74.4757 134.848 75.4838 134.889 76.4916C137.186 76.4201 139.485 76.3995 141.783 76.4297C142.313 76.4128 142.903 76.3429 143.387 76.5105C143.534 76.7462 143.494 76.6214 143.519 76.881C143.543 77.6977 143.588 78.5876 143.586 79.3983L145.436 79.3478C147.777 79.3764 150.043 79.288 152.393 79.3641C152.385 80.2523 152.348 81.3365 152.411 82.2077C154.268 82.3508 156.257 82.1745 158.227 82.2829C158.14 83.2955 158.049 84.0113 158.227 85.0219C160.186 85.2385 162.117 85.0307 164.045 85.1469L164.043 88.0361C165.011 88.047 166.02 88.04 166.981 88.1188L166.994 90.9971C167.963 91.0025 168.959 90.996 169.926 91.0177C169.896 92.0908 169.903 92.9417 169.986 94.0171C170.716 93.9639 172.103 93.7374 172.632 94.1233C172.861 94.5623 172.863 96.0409 173.036 96.8278C173.854 96.8408 174.87 96.8224 175.668 96.8701L175.713 99.7709C174.753 99.76 173.761 99.734 172.805 99.7589L172.817 102.71C171.835 102.68 170.798 102.667 169.821 102.615C169.86 103.624 169.888 104.535 169.875 105.547L166.946 105.56C166.945 106.529 166.924 107.578 166.95 108.54C165.99 108.524 164.893 108.532 163.946 108.481C164.012 109.526 164.056 110.352 164.04 111.404C162.525 111.276 159.739 111.374 158.132 111.38C158.208 110.574 158.191 109.362 158.205 108.525C159.135 108.551 160.106 108.548 161.041 108.559L161.123 105.619C162.093 105.611 163.062 105.611 164.033 105.619C164.046 103.663 164.04 101.709 164.015 99.7546C164.997 99.7535 165.981 99.7698 166.964 99.8023L166.983 90.9992L164.007 91.0047L164.029 88.0852C162.086 88.0954 160.141 88.0951 158.196 88.0846L158.152 85.1508L146.502 85.1603L146.511 88.0925C143.618 88.0541 140.623 88.0983 137.721 88.1026L137.745 91.0025H134.821C134.776 88.1113 134.806 85.1411 134.802 82.2431L131.912 82.2325C131.87 81.2904 131.882 80.2601 131.874 79.3108C130.916 79.328 129.958 79.3551 128.999 79.3919C128.954 78.4371 128.96 77.4284 128.951 76.4684C125.758 76.2654 120.469 76.3405 117.26 76.4506C117.264 75.4384 117.275 74.5445 117.337 73.5303Z" fill="#EE9C00"/>
<path id="Vector_7" d="M67.6345 15.0571C68.5967 15.0628 69.5589 15.061 70.5211 15.0515C70.528 16.0172 70.5527 17.0366 70.5328 17.9976C71.4376 17.9905 72.5677 17.9511 73.4539 18.0054L73.4478 48.1898L73.4472 57.4139C73.4475 58.6028 73.5583 60.6204 73.4558 61.7125C73.1763 61.8918 73.1539 61.8488 72.7983 61.8816C70.3689 61.7887 67.9369 61.7845 65.5073 61.869C65.0304 61.8376 64.9624 61.9248 64.7133 61.6693C64.5209 52.6026 64.6768 42.9961 64.6774 33.8784L64.6787 22.1474C64.6789 19.8765 64.6197 17.2778 64.7475 15.0322C65.7099 15.0318 66.6723 15.04 67.6345 15.0571Z" fill="#EE9C00"/>
<path id="Vector_8" d="M53.0437 85.1309C54.9853 85.1448 56.927 85.1484 58.8686 85.1417L58.8628 88.0704L55.956 88.0916L55.99 91.0052H50.1129L50.0898 93.9341L47.2047 93.9233L47.1915 96.8706L44.2789 96.8489L44.2716 99.9697L44.2726 102.707C45.2426 102.698 46.2128 102.695 47.183 102.699C47.1847 103.578 47.2205 104.759 47.1394 105.612C48.0808 105.61 49.1988 105.636 50.1237 105.57C50.1143 106.561 50.1163 107.568 50.0666 108.558L44.2644 108.545L44.2621 105.618C42.328 105.562 40.3233 105.656 38.4288 105.563L38.4248 102.7L35.4941 102.684L35.4983 96.8544L38.4066 96.8652L38.4297 93.9222C39.3252 93.9157 40.421 93.8799 41.3004 93.9265L41.3573 91.0041L44.2658 90.9965C44.2618 90.0383 44.2686 89.0605 44.2517 88.104C47.159 88.0713 50.0667 88.0665 52.9741 88.0899L53.0437 85.1309Z" fill="#EE9C00"/>
<path id="Vector_9" d="M55.9676 3.375L64.6977 3.3789L64.6813 6.31119L61.7789 6.31531L61.8141 9.18678L58.8751 9.17356C57.8863 9.09042 57.0304 9.30689 55.9531 9.2205L55.9676 3.375Z" fill="#785648"/>
<path id="Vector_10" d="M67.6623 3.36816L73.45 3.37445C73.4554 4.30418 73.4332 5.39001 73.471 6.30609C71.5309 6.33058 69.5889 6.28983 67.6298 6.31964C67.6177 5.3357 67.6285 4.35155 67.6623 3.36816Z" fill="#785648"/>
<path id="Vector_11" d="M146.5 114.367C147.495 114.392 151.612 114.22 152.196 114.462L152.321 114.818C152.347 115.655 152.367 116.436 152.355 117.273C151.319 117.135 147.724 117.221 146.501 117.218L146.5 114.367Z" fill="#EE9C00"/>
<path id="Vector_12" d="M152.333 111.419C154.211 111.434 156.242 111.401 158.099 111.484C158.087 112.327 158.038 113.558 158.152 114.36C157.039 114.202 153.623 114.285 152.341 114.286C152.337 113.471 152.289 112.195 152.333 111.419Z" fill="#EE9C00"/>
<path id="Vector_13" d="M65.0535 73.5224C65.7361 73.5862 66.8943 73.5343 67.6129 73.5233C67.6206 74.4971 67.5998 75.4956 67.5907 76.4715C66.6294 76.446 65.6421 76.4488 64.6785 76.4402L64.6709 73.4629L65.0535 73.5224Z" fill="#EE9C00"/>
<path id="Vector_14" d="M55.9531 9.22063C57.0304 9.30702 57.8863 9.09055 58.8751 9.17369C58.8706 10.0951 58.8336 11.2205 58.8693 12.1254L55.9639 12.1201L55.9531 9.22063Z" fill="#8A685A"/>
<path id="Vector_15" d="M64.7256 93.9092C68.4835 94.0013 72.6113 93.9124 76.4033 93.9092L76.4636 96.8511L73.4606 96.8717C73.4348 100.765 73.4431 104.659 73.4854 108.553L76.4341 108.549C76.3795 109.332 76.4508 110.664 76.4699 111.486C79.3687 111.448 82.2678 111.435 85.1668 111.446C85.1682 112.424 85.1472 113.421 85.1371 114.401C81.4563 114.25 77.2963 114.338 73.5751 114.34L64.6761 114.385C64.7444 112.539 64.6916 110.459 64.7299 108.562C65.7161 108.551 66.7024 108.545 67.6888 108.548C67.6467 107.566 67.6218 106.584 67.6137 105.602L64.6897 105.562C64.6802 104.605 64.6912 103.648 64.7225 102.692H53.0029C53.0265 100.746 53.0326 98.8001 53.0214 96.8544L64.7286 96.8685C64.658 96.1248 64.7164 94.7027 64.7256 93.9092Z" fill="#EE9C00"/>
<path id="Vector_16" d="M99.78 82.207C106.444 82.356 113.508 82.2399 120.207 82.2264C120.211 83.2055 120.201 84.1845 120.176 85.1633C122.125 85.14 124.094 85.1549 126.045 85.1551C126.021 88.0772 126.024 90.9992 126.055 93.9216L120.179 93.9292C120.189 94.9016 120.217 95.8739 120.262 96.8462L117.164 96.8473L108.508 96.8636L108.498 93.9206C110.438 93.9043 112.376 93.913 114.315 93.9477L114.363 91.0047L117.254 90.9895C117.273 90.0247 117.285 89.0589 117.289 88.0926C116.335 88.0725 115.351 88.088 114.394 88.0917C114.347 87.1099 114.33 86.1269 114.348 85.1442C109.47 85.1181 104.592 85.125 99.7139 85.165L99.78 82.207Z" fill="#EE9C00"/>
<path id="Vector_17" d="M82.2418 99.7588L96.8581 99.7967V102.702C104.605 102.617 112.492 102.693 120.249 102.699C120.217 103.649 120.197 104.6 120.191 105.551C119.132 105.594 118.05 105.583 116.989 105.584H79.3201L79.3184 102.68L82.2216 102.695L82.2418 99.7588Z" fill="#EE9C00"/>
<path id="Vector_18" d="M85.1569 85.1497C87.084 85.1727 89.0688 85.1446 91.0015 85.1416L91.0167 88.0759L93.924 88.0871L93.9272 91.0322C95.8556 90.9932 97.8372 91.0094 99.7699 91.004L99.7666 93.9308C96.8312 93.8711 93.7137 93.9253 90.7642 93.9264L76.4582 93.9243C76.3902 92.9162 76.4015 92.0132 76.4092 91.0073L82.2232 91.0062L82.217 88.0829L85.1297 88.0923L85.1569 85.1497Z" fill="#EE9C00"/>
<path id="Vector_19" d="M149.434 93.9267L155.28 93.917L158.2 93.9224L158.198 99.7716L155.173 99.7792C155.277 100.83 155.278 101.656 155.28 102.704L152.338 102.693V105.562C150.449 105.578 148.363 105.538 146.497 105.612L146.507 108.559C143.581 108.53 140.654 108.527 137.729 108.55L137.736 105.567C139.549 105.624 141.783 105.677 143.579 105.552L143.578 102.611C145.173 102.777 147.768 102.693 149.427 102.673L149.406 99.7673C150.355 99.7673 151.405 99.7456 152.345 99.7878L152.342 96.847L149.407 96.8719L149.434 93.9267Z" fill="#EE9C00"/>
<path id="Vector_20" d="M64.6713 82.2333C69.1978 82.3318 74.7745 82.3194 79.2992 82.2041C79.3094 83.1884 79.3132 84.1726 79.3106 85.157C77.7543 85.1381 74.976 85.0384 73.4608 85.1815L73.4793 88.0811L61.8001 88.0898L61.7568 85.1278L64.7298 85.1555C64.6897 84.2034 64.6888 83.1909 64.6713 82.2333Z" fill="#EE9C00"/>
<path id="Vector_21" d="M128.979 96.8608L134.806 96.8467L134.807 99.793C133.902 99.7496 132.831 99.7756 131.912 99.7745L131.876 102.706C129.94 102.677 127.964 102.694 126.024 102.688C126.027 101.716 126.022 100.744 126.009 99.7713C126.989 99.7474 127.97 99.7463 128.95 99.768C128.945 98.8109 128.969 97.8201 128.979 96.8608Z" fill="#EE9C00"/>
<path id="Vector_22" d="M126.035 108.543C129.912 108.587 133.848 108.551 137.728 108.549L137.731 111.453C133.996 111.546 129.769 111.495 126.032 111.445L126.035 108.543Z" fill="#EE9C00"/>
<path id="Vector_23" d="M111.431 111.439C115.193 111.537 119.32 111.447 123.111 111.438C123.13 112.05 123.255 113.918 122.981 114.339C119.344 114.351 115.022 114.212 111.449 114.402L111.431 111.439Z" fill="#EE9C00"/>
<path id="Vector_24" d="M143.58 93.8799C144.475 93.9287 145.588 93.9048 146.5 93.9102L146.509 96.8641L143.606 96.8598C143.569 95.8842 143.582 94.8587 143.58 93.8799Z" fill="#EE9C00"/>
<path id="Vector_25" d="M53.0154 108.544C53.9723 108.563 54.9936 108.54 55.956 108.537L55.9337 111.461L53.002 111.468L53.0154 108.544Z" fill="#EE9C00"/>
<path id="Vector_26" d="M137.739 96.8651L140.664 96.8369L140.639 99.8081C139.681 99.7745 138.692 99.7702 137.729 99.7528L137.739 96.8651Z" fill="#EE9C00"/>
<path id="Vector_27" d="M178.65 114.381C178.528 115.517 178.588 117.907 178.596 119.151C178.61 121.322 178.542 123.907 178.688 126.052H175.687L175.682 131.904C174.605 131.886 173.829 131.874 172.747 131.972C172.746 134.724 172.663 137.935 172.761 140.649C171.776 140.669 170.79 140.68 169.805 140.682L169.892 143.599C168.938 143.594 167.918 143.572 166.97 143.597C166.921 145.316 166.822 147.709 166.942 149.421L164.032 149.358C163.992 150.344 163.945 151.288 163.986 152.275L161.049 152.343C161.119 153.489 161.081 154.146 161.033 155.28L158.204 155.281C158.151 156.253 158.121 157.228 158.112 158.202L155.251 158.188C155.243 159.145 155.232 160.073 155.264 161.031C154.316 161.044 153.273 161.081 152.332 161.052L152.334 164.047C151.214 163.958 150.47 164.017 149.353 164.055C149.373 165.009 149.378 166.002 149.417 166.951C147.466 166.909 145.513 166.923 143.563 166.993L143.607 169.878C141.684 169.876 139.597 169.832 137.687 169.892C137.696 170.835 137.687 171.828 137.716 172.766C135.8 172.731 133.885 172.728 131.971 172.756C131.875 173.814 131.876 174.619 131.879 175.676C128.987 175.683 126.004 175.717 123.118 175.671C123.117 176.532 123.078 177.809 123.164 178.633C119.273 178.599 115.382 178.593 111.491 178.617C111.467 179.488 111.402 180.664 111.453 181.51C107.863 181.561 104.273 181.575 100.682 181.553C98.6011 181.553 95.966 181.618 93.9172 181.525C93.9216 180.481 93.8977 179.636 93.8294 178.594C90.0821 178.71 85.9803 178.649 82.2116 178.617L82.2486 175.684C79.534 175.775 76.2245 175.685 73.4505 175.687L73.4718 172.795C71.7047 172.711 69.4077 172.807 67.6032 172.832L67.6167 169.819C66.6483 169.826 65.6428 169.865 64.6713 169.889C64.8223 168.372 64.713 165.605 64.6876 163.987L61.8308 164.024C61.836 162.088 61.8219 160.151 61.7885 158.215C60.8448 158.186 59.8288 158.201 58.8791 158.198C58.843 154.301 58.8541 150.404 58.9126 146.508L61.7917 146.498C61.7731 145.567 61.8062 144.514 61.8136 143.573C62.7704 143.58 63.737 143.567 64.6947 143.562L120.171 143.58L120.163 140.65L137.738 140.64L137.713 137.726L149.415 137.732L149.411 134.845C151.277 134.758 153.393 134.807 155.278 134.81L155.26 131.896C157.209 131.876 159.158 131.889 161.106 131.933L161.067 128.952L164.037 128.947L164.043 126.023C165.988 126.043 167.932 126.043 169.876 126.021L169.831 123.104L172.823 123.101L172.805 117.276L175.695 117.321L175.662 114.351C176.658 114.329 177.654 114.34 178.65 114.381Z" fill="#E7EAEC"/>
<path id="Vector_28" d="M6.28418 114.38L9.19425 114.358L9.20833 117.308C10.2008 117.285 11.1938 117.293 12.1858 117.331C12.2439 118.235 12.2205 119.241 12.2188 120.153L15.0246 120.244L15.0344 123.118L15.0472 126.039C16.9638 126.038 19.0266 125.998 20.9317 126.057C20.902 127.061 20.8864 127.948 20.9108 128.955C21.872 128.96 22.8451 128.956 23.8051 128.975L23.8018 131.884C25.6635 131.892 27.8187 131.847 29.6562 131.925C29.6589 132.882 29.6512 133.857 29.6668 134.812C31.5354 134.812 33.6469 134.763 35.4959 134.831L35.5129 137.733C39.3656 137.729 43.3602 137.672 47.2017 137.745L47.1931 140.657L64.7067 140.656C64.69 141.625 64.6859 142.594 64.6942 143.562C63.7365 143.567 62.77 143.58 61.8132 143.573C61.8058 144.514 61.7727 145.567 61.7913 146.499L58.9122 146.508C58.8537 150.404 58.8426 154.301 58.8787 158.198C59.8283 158.201 60.8444 158.186 61.7881 158.215C61.8215 160.151 61.8356 162.088 61.8304 164.024L64.6872 163.988C64.7126 165.605 64.8219 168.372 64.6709 169.889C65.6424 169.865 66.6479 169.826 67.6163 169.819L67.6028 172.832C69.4073 172.807 71.7043 172.711 73.4714 172.795L73.4501 175.687C76.224 175.685 79.5336 175.775 82.2482 175.684L82.2112 178.617C85.9799 178.65 90.0817 178.71 93.829 178.594C93.8973 179.636 93.9212 180.481 93.9168 181.525L73.4847 181.538C73.5333 180.668 73.5026 179.504 73.5057 178.609C69.6786 178.668 65.593 178.515 61.8069 178.656C61.7627 177.758 61.801 176.628 61.8068 175.713C58.8881 175.675 55.9658 175.718 53.0498 175.671L53.025 172.758L47.1936 172.818L47.1771 169.88C45.3011 169.825 43.2397 169.879 41.3505 169.892C41.3325 168.921 41.3431 167.915 41.3398 166.94L35.5071 166.955L35.4973 164.048L32.6263 164.04C32.5777 163.082 32.5878 162.017 32.5763 161.051C31.5743 161.127 30.6621 161.076 29.6631 161.036L29.6555 158.19L26.7289 158.196L26.7591 155.257L23.8049 155.272L23.8051 152.348L20.9669 152.355C20.8928 151.297 20.8993 150.461 20.9121 149.406C19.9014 149.42 19.0195 149.432 18.006 149.373L17.9913 143.574L15.0897 143.584C15.0586 142.621 15.072 141.623 15.0717 140.657L12.1134 140.629C12.1604 137.766 12.1075 134.756 12.1025 131.881L9.1666 131.883C9.22048 129.93 9.24031 127.975 9.22601 126.021C8.28522 126.051 7.28025 126.033 6.33426 126.033C6.21025 122.208 6.40212 118.228 6.28418 114.38Z" fill="#C8CED5"/>
<path id="Vector_29" d="M12.186 117.331C12.2441 118.235 12.2207 119.241 12.2189 120.154L15.0247 120.245L15.0346 123.118L12.1334 123.111C12.1175 121.787 12.0113 118.57 12.186 117.331Z" fill="#F56B61"/>
<path id="Vector_30" d="M175.683 105.616C176.649 105.624 177.644 105.58 178.612 105.551C178.618 108.002 178.47 112.11 178.65 114.382C177.654 114.341 176.658 114.33 175.662 114.352L175.695 117.322L172.805 117.277L172.823 123.102L169.831 123.105L169.876 126.022C167.932 126.044 165.988 126.044 164.043 126.024L164.037 128.947L161.067 128.953L161.106 131.934C159.158 131.889 157.209 131.876 155.26 131.897L155.278 134.811C153.393 134.808 151.277 134.759 149.411 134.845L149.415 137.733L137.713 137.727L137.738 140.64L120.163 140.651L120.171 143.581L64.6946 143.563C64.6863 142.595 64.6904 141.626 64.7071 140.657L67.6473 140.637L67.601 137.779C68.5776 137.754 69.5544 137.74 70.5313 137.738C70.5446 136.765 70.5477 135.792 70.541 134.818L79.3191 134.817L79.3244 131.996C76.2379 131.951 73.1377 132.028 70.05 131.997C69.2384 131.988 68.4341 132.018 67.6251 131.94C68.379 131.818 71.1332 131.871 72.0861 131.871L82.4398 131.921L117.316 131.925L117.287 128.961C123.021 129.092 129.048 128.959 134.817 129.002L134.821 126.04C137.667 126.117 140.736 126.076 143.584 126.034C143.573 125.072 143.595 124.073 143.603 123.109C146.435 123.187 149.507 123.129 152.358 123.124L152.36 120.219L158.196 120.228L158.193 117.309L164.028 117.326C164.015 116.327 164.021 115.326 164.044 114.327C165.894 114.443 168.029 114.392 169.903 114.386C169.879 113.432 169.892 112.429 169.888 111.47L172.804 111.434L172.827 108.54C173.761 108.562 174.753 108.547 175.693 108.55L175.683 105.616Z" fill="#F56B61"/>
<path id="Vector_31" d="M50.0137 73.4798L55.8816 73.4492C56.0752 74.0424 55.951 78.2825 55.9951 79.2937C53.0819 79.308 50.0958 79.2723 47.1942 79.32C47.1991 80.2734 47.1872 81.2772 47.2118 82.2257C45.2589 82.251 43.3058 82.2452 41.353 82.2086L41.3577 91.0039L38.421 91.0017L38.4297 88.1133C37.4645 88.0981 36.4642 88.0682 35.5019 88.0842L35.5088 91.0093L29.6436 91.0137L29.6567 93.9253L26.7356 93.9328C26.7185 96.8531 26.717 99.7744 26.7316 102.696L29.6359 102.694L29.6478 108.562C30.6049 108.555 31.6154 108.53 32.5677 108.547L32.6059 111.481C34.5278 111.448 36.4999 111.41 38.4216 111.488C38.4172 112.461 38.4217 113.436 38.4349 114.409C40.3768 114.368 42.3191 114.357 44.2612 114.378C44.2657 115.349 44.2851 116.357 44.2724 117.325C48.0928 117.285 52.1681 117.241 55.9867 117.305L55.9673 120.182L73.4571 120.184C73.4671 121.057 73.5181 122.299 73.4597 123.142C86.0493 123.152 98.8873 123.269 111.459 123.118C111.439 122.133 111.43 121.147 111.433 120.161C119.203 120.23 127.055 120.076 134.8 120.197L134.798 117.305C137.725 117.314 140.654 117.304 143.582 117.273L143.56 120.212C140.765 120.159 137.599 120.125 134.811 120.218L134.804 123.118C132.703 123.04 130.258 123.099 128.126 123.099C124.5 123.09 120.874 123.101 117.248 123.129C117.318 124.035 117.316 125.102 117.337 126.021L67.6443 126.051C67.6627 125.091 67.6456 124.085 67.6441 123.12C62.2458 123.027 55.4221 122.958 50.0565 123.154L50.0738 120.173L41.3641 120.182C41.3543 119.23 41.3597 118.279 41.3801 117.328C39.0279 117.16 35.0564 117.3 32.5657 117.301L32.5726 114.429C30.7639 114.324 28.5736 114.372 26.736 114.367C26.7182 113.401 26.7111 112.434 26.7146 111.467C24.8164 111.406 22.8092 111.451 20.9018 111.466C20.9263 110.494 20.9386 109.521 20.939 108.548C19.9592 108.511 18.9786 108.499 17.9981 108.515L17.9513 105.562C17.0043 105.543 15.9758 105.588 15.0231 105.612L15.0216 102.706L12.1071 102.657L12.1356 99.7853C11.1541 99.7549 10.166 99.7723 9.18359 99.7809L9.20332 96.8737C10.1864 96.8433 11.1282 96.8704 12.1096 96.8943C12.0976 95.9111 12.1188 94.8867 12.1246 93.8992L15.0027 93.9404L15.0271 90.9985L17.9555 91.0191C17.9398 90.0728 18.0061 88.992 18.0431 88.036C19.0166 88.0633 19.9905 88.0775 20.9644 88.0784C20.8945 87.0266 20.9158 86.1676 20.9392 85.1192L26.7179 85.1015C26.685 84.1806 26.7219 83.1198 26.7324 82.1884C28.5429 82.2378 30.7888 82.281 32.5751 82.1883C32.5041 81.2668 32.5586 80.2473 32.5852 79.3159C35.5296 79.3763 38.467 79.2734 41.3834 79.3423L41.3789 76.4474C44.2288 76.4366 47.181 76.3909 50.0197 76.4663C50.0253 75.4707 50.0233 74.4752 50.0137 73.4798Z" fill="#EE9C00"/>
<path id="Vector_32" d="M3.37869 105.559C4.36067 105.591 5.34331 105.603 6.32594 105.593L9.18224 105.608L9.17367 108.542L12.1047 108.544L12.1338 111.468L15.0356 111.451L15.0594 114.372C17.0022 114.391 18.945 114.391 20.8879 114.372L20.9168 117.326C22.8541 117.3 24.7917 117.295 26.7292 117.311C26.7228 118.276 26.7234 119.241 26.7309 120.205L32.5664 120.187L32.5793 123.147C35.3745 123.125 38.6144 123.217 41.3449 123.107L41.3584 126.06L50.0888 126.046L50.1105 128.967C55.9128 128.966 61.8131 129.019 67.6076 128.944L67.625 131.94C68.4341 132.018 69.2383 131.987 70.05 131.996C73.1376 132.027 76.2378 131.95 79.3244 131.995L79.3191 134.816L70.5409 134.817C70.5477 135.791 70.5445 136.764 70.5313 137.737C69.5544 137.739 68.5775 137.753 67.601 137.778L67.6473 140.636L64.7071 140.656L47.1934 140.657L47.202 137.745C43.3606 137.672 39.366 137.729 35.5133 137.733L35.4963 134.83C33.6472 134.763 31.5357 134.812 29.6672 134.812C29.6515 133.857 29.6592 132.882 29.6565 131.925C27.8191 131.847 25.6639 131.892 23.8022 131.884L23.8054 128.975C22.8454 128.956 21.8723 128.96 20.9112 128.955C20.8868 127.948 20.9024 127.061 20.9321 126.057C19.027 125.998 16.9642 126.038 15.0476 126.039L15.0348 123.118L15.0249 120.244L12.2191 120.153C12.2209 119.241 12.2443 118.235 12.1862 117.331C11.1941 117.293 10.2012 117.285 9.20868 117.308L9.1946 114.358L6.28453 114.38C6.16453 113.778 6.20453 112.123 6.2054 111.434L3.38173 111.441C3.35181 109.5 3.37707 107.504 3.37869 105.559Z" fill="#E13636"/>
<path id="Vector_33" d="M3.37869 105.559C4.36067 105.591 5.34331 105.603 6.32594 105.593C6.2661 108.4 6.42675 111.702 6.28453 114.38C6.16453 113.778 6.20453 112.123 6.2054 111.434L3.38173 111.441C3.35181 109.5 3.37707 107.504 3.37869 105.559Z" fill="#C8CED5"/>
<path id="Vector_34" d="M90.9927 58.8594C99.7221 58.9555 108.567 58.873 117.309 58.877C117.299 59.8112 117.262 60.8754 117.292 61.7991C122.942 61.8305 129.204 61.9055 134.83 61.7767L134.833 64.7042C136.54 64.735 138.246 64.7297 139.951 64.6881C140.731 64.6726 142.885 64.5999 143.581 64.6949C142.874 64.833 141.438 64.7751 140.659 64.757L140.648 70.5105C141.632 70.5391 142.619 70.5472 143.604 70.535L143.557 76.3897C142.96 76.3795 142.373 76.3452 141.783 76.4295C139.485 76.3992 137.186 76.4198 134.889 76.4914C134.849 75.4836 134.823 74.4755 134.808 73.467C128.984 73.4107 123.16 73.4317 117.337 73.53C117.352 72.6303 117.363 71.4319 117.28 70.5574C114.254 70.4584 110.934 70.5223 107.891 70.5222L91.0047 70.5283C90.957 66.6656 90.9949 62.728 90.9927 58.8594Z" fill="#C8CED5"/>
<path id="Vector_35" d="M50.0937 61.8212C52.0581 61.8136 54.0222 61.8212 55.9844 61.7285C55.9826 63.0345 56.0431 73.1393 55.8815 73.4493L50.0136 73.4799C50.0231 74.4753 50.0252 75.4708 50.0196 76.4664C47.1809 76.391 44.2287 76.4367 41.3788 76.4475L41.3832 79.3424C38.4669 79.2735 35.5295 79.3764 32.5851 79.3159C32.5585 80.2474 32.504 81.2669 32.575 82.1884C30.7887 82.2811 28.5428 82.2379 26.7323 82.1885C26.7218 83.1199 26.6848 84.1806 26.7178 85.1016L20.9391 85.1193C20.9157 86.1677 20.8944 87.0267 20.9643 88.0784C19.9904 88.0776 19.0165 88.0634 18.043 88.0361C18.006 88.9921 17.9397 90.0729 17.9554 91.0192L15.027 90.9986L15.0026 93.9405L12.1244 93.8993C12.1187 94.8868 12.0975 95.9112 12.1095 96.8944C11.128 96.8705 10.1863 96.8434 9.20322 96.8738C9.08138 93.2457 9.1875 88.7948 9.2056 85.1418L12.1595 85.1528L12.1287 82.2077L15.0176 82.219L15.0327 79.32L18.0157 79.3041C17.9447 78.4023 17.9687 77.3117 17.9657 76.3938L20.8807 76.3831C20.879 75.4043 20.893 74.4254 20.9227 73.4469C22.8574 73.4651 24.7922 73.4658 26.7269 73.449C26.7379 72.4763 26.7304 71.4953 26.7297 70.522C28.6995 70.5687 30.6701 70.5657 32.6396 70.513C32.5907 69.5783 32.5878 68.5528 32.5656 67.61C35.4282 67.6898 38.4797 67.6402 41.358 67.636L41.3534 64.6604C43.805 64.8103 47.5949 64.7629 50.0674 64.6714C50.1416 63.7215 50.109 62.7737 50.0937 61.8212Z" fill="#C8CED5"/>
<path id="Vector_36" d="M140.658 64.7574C141.438 64.7755 142.874 64.8334 143.581 64.6953L143.594 67.6163C146.5 67.6164 149.453 67.6447 152.354 67.615L152.34 70.554C154.286 70.576 156.233 70.5732 158.179 70.5457C158.177 71.4955 158.152 72.5288 158.183 73.4715L164.045 73.4632L164.03 76.3944L166.947 76.3877L166.942 79.3054C167.919 79.3159 168.897 79.3172 169.874 79.309L169.877 82.2244L172.797 82.2138L172.809 85.1481L175.685 85.1394C175.684 88.8986 175.785 93.1533 175.668 96.8702C174.87 96.8226 173.853 96.841 173.036 96.828C172.862 96.041 172.86 94.5625 172.631 94.1234C172.103 93.7375 170.716 93.9641 169.986 94.0172C169.903 92.9419 169.896 92.091 169.926 91.0178C168.959 90.9961 167.963 91.0026 166.994 90.9972L166.981 88.1189C166.019 88.0401 165.011 88.0472 164.043 88.0362L164.044 85.1471C162.117 85.0309 160.185 85.2387 158.226 85.0221C158.049 84.0115 158.14 83.2956 158.226 82.2831C156.257 82.1747 154.268 82.3509 152.411 82.2078C152.348 81.3366 152.385 80.2524 152.392 79.3642C150.042 79.2881 147.777 79.3766 145.435 79.348L143.586 79.3985C143.587 78.5878 143.543 77.6978 143.519 76.8811C143.494 76.6215 143.534 76.7463 143.387 76.5106C142.902 76.3431 142.312 76.413 141.782 76.4299C142.372 76.3457 142.96 76.3799 143.557 76.3901L143.603 70.5354C142.618 70.5476 141.632 70.5395 140.647 70.5109L140.658 64.7574Z" fill="#99A7AD"/>
<path id="Vector_37" d="M143.52 76.881L143.605 76.5578C144.235 76.2303 145.753 76.3836 146.504 76.3757L146.498 79.3121C146.325 79.3157 145.57 79.3193 145.436 79.3478L143.587 79.3983C143.588 78.5876 143.543 77.6976 143.52 76.881Z" fill="#C8CED5"/>
<path id="Vector_38" d="M3.39267 99.7666L6.31932 99.7861C6.31314 101.619 6.25038 103.787 6.32615 105.594C5.34352 105.604 4.36089 105.592 3.37891 105.559L3.39267 99.7666Z" fill="#E13636"/>
<path id="Vector_39" d="M178.639 99.7759C179.602 99.7737 180.566 99.7791 181.53 99.791L181.549 100.458L181.533 105.586L178.64 105.547C178.581 103.684 178.63 101.651 178.639 99.7759Z" fill="#F56B61"/>
<path id="Vector_40" d="M73.4707 6.30566L93.9157 6.31585L93.9244 9.19427L111.444 9.18917C111.443 10.1188 111.413 11.2034 111.45 12.1205C118.162 12.1444 125.18 12.2192 131.882 12.1213C131.886 13.0759 131.868 14.113 131.899 15.0602L152.353 15.0544L152.354 17.9906C158.017 17.9555 164.305 18.1304 169.872 17.9548L169.88 20.8863C173.749 20.8866 177.689 20.8458 181.55 20.8899V26.7475L181.556 35.4862L172.822 35.4951L172.818 32.5765L161.127 32.5819C161.127 33.2496 161.167 34.9347 161.065 35.5145L169.871 35.5086L169.877 38.4134C171.799 38.4159 173.758 38.4384 175.677 38.4123V44.2844L175.674 53.0379L169.873 53.0318L169.869 50.1077L161.115 50.0982L161.112 47.193L152.349 47.1979L152.35 44.2596L143.577 44.25V41.352L137.73 41.3438L137.752 38.4268L128.97 38.412L128.978 35.4993L120.213 35.4952C120.179 34.5918 120.212 33.5107 120.215 32.5942C117.462 32.4988 114.245 32.5781 111.456 32.5783L111.454 29.6535L102.685 29.6473L102.696 26.7279L93.9179 26.7211L93.9266 23.8145C92.9477 23.804 91.9689 23.8067 90.989 23.8225L85.1522 23.8053L85.1773 20.9384C84.1979 20.9035 83.218 20.8931 82.2382 20.907L82.2242 17.9911L85.1432 17.9584C85.1387 17.1143 85.0944 15.8599 85.2021 15.055L91.0042 15.0548L90.9998 12.1199L88.079 12.1117L88.0797 9.18527L76.3815 9.18375L76.3825 15.0588C75.425 15.041 74.4315 15.0521 73.4706 15.0493C73.4544 16.0346 73.4487 17.0202 73.4536 18.0056C72.5674 17.9513 71.4373 17.9908 70.5325 17.9978C70.5524 17.0369 70.5277 16.0174 70.5207 15.0518C69.5586 15.0612 68.5964 15.0631 67.6342 15.0573L67.6162 12.1345L70.5275 12.1258C70.5368 11.1576 70.5327 10.1609 70.5881 9.19654C71.4949 9.21974 72.5425 9.1882 73.4608 9.18354L73.4707 6.30566Z" fill="#785648"/>
<path id="Vector_41" d="M85.1436 17.959C85.1391 17.1149 85.0948 15.8605 85.2025 15.0557C85.2822 16.0317 85.2638 17.0257 85.263 18.0062L88.0565 17.9345C88.0777 18.9438 88.0859 19.9846 88.1316 20.9905C90.262 20.7487 94.5774 20.8822 96.8516 20.8918C96.8461 21.7788 96.8722 22.9672 96.7833 23.8254L105.568 23.8109C105.57 24.7797 105.591 25.7482 105.63 26.7162C108.474 26.7758 111.418 26.6895 114.311 26.7333L114.31 29.6545C117.108 29.667 120.459 29.5815 123.202 29.7323C123.161 30.6746 123.094 31.7095 123.099 32.6457C125.679 32.5365 129.382 32.5434 131.963 32.6611C131.937 33.5815 131.886 34.5904 131.896 35.5042L140.659 35.5072L140.664 38.4254C143.576 38.3956 146.487 38.3877 149.399 38.4014C149.392 39.3497 149.401 40.2981 149.425 41.2461C151.915 41.4523 155.593 41.348 158.173 41.3469L158.176 44.2751C161.107 44.3164 164.038 44.3173 166.969 44.2779C166.953 45.2285 166.957 46.2614 166.916 47.204C168.89 47.1869 170.864 47.1882 172.837 47.2078C172.815 46.2431 172.787 45.289 172.805 44.3237L175.678 44.285L175.675 53.0385L169.873 53.0324L169.87 50.1084L161.116 50.0988L161.112 47.1936L152.349 47.1985L152.35 44.2603L143.578 44.2506V41.3526L137.731 41.3445L137.752 38.4275L128.97 38.4126L128.979 35.4999L120.214 35.4958C120.179 34.5924 120.213 33.5114 120.216 32.5949C117.462 32.4995 114.245 32.5787 111.456 32.5789L111.454 29.6541L102.686 29.6479L102.696 26.7285L93.9183 26.7217L93.927 23.8151C92.9481 23.8046 91.9693 23.8073 90.9894 23.8231L85.1526 23.8059L85.1777 20.939C84.1983 20.9041 83.2184 20.8937 82.2386 20.9077L82.2246 17.9917L85.1436 17.959Z" fill="#8A685A"/>
<path id="Vector_42" d="M120.245 20.9355C125.813 20.7366 132.121 20.8817 137.732 20.8886L137.711 23.8824C142.307 23.6964 147.71 23.8072 152.34 23.8326C152.291 24.6883 152.338 25.8723 152.348 26.7517C157.959 26.5927 164.188 26.6384 169.809 26.7425L169.805 29.6687L178.699 29.6772L178.712 26.698L181.551 26.7476L181.556 35.4862L172.822 35.4951L172.818 32.5765L161.127 32.5819C161.127 33.2496 161.167 34.9347 161.065 35.5145C160.939 34.9582 160.994 33.2065 161 32.5582C160.193 32.5872 158.963 32.6611 158.192 32.5751L149.38 32.5772C149.212 32.2382 149.285 30.1787 149.289 29.6663C147.512 29.7333 145.382 29.6691 143.58 29.6616L140.612 29.6549C140.442 29.2661 140.524 27.2516 140.533 26.7076L131.899 26.7109L131.955 23.8016C128.016 23.8341 124.078 23.8272 120.14 23.7808C120.225 22.884 120.224 21.8461 120.245 20.9355Z" fill="#8A685A"/>
<path id="Vector_43" d="M70.5881 9.19629C70.7422 10.7694 70.5939 13.3858 70.5398 15.0548C71.4303 15.0386 72.6051 14.9842 73.4706 15.049C73.4544 16.0344 73.4487 17.0199 73.4536 18.0054C72.5674 17.9511 71.4373 17.9905 70.5325 17.9976C70.5524 17.0366 70.5277 16.0172 70.5207 15.0515C69.5586 15.061 68.5964 15.0628 67.6342 15.0571L67.6162 12.1342L70.5275 12.1255C70.5368 11.1573 70.5327 10.1606 70.5881 9.19629Z" fill="#8A685A"/>
<path id="Vector_44" d="M111.51 17.9911C114.011 17.8155 117.633 17.9235 120.191 17.9347C120.187 18.9005 120.222 19.9095 120.24 20.8787C117.394 20.8568 114.28 20.8113 111.452 20.9148C111.448 19.9398 111.468 18.9651 111.51 17.9911Z" fill="#8A685A"/>
</g>
</svg>
