<svg width="20" height="20" viewBox="0 0 20 20" fill="none" xmlns="http://www.w3.org/2000/svg">
<g id="Bath">
<g id="_x31_6_cold_shower_00000052077251581208388510000002481341777240905147_">
<path id="Vector" d="M17.0586 3.88245H17.9998V4.82338H17.0586V3.88245Z" fill="black"/>
<path id="Vector_2" d="M16.1177 4.82349H17.0589V5.76474H16.1177V4.82349Z" fill="black"/>
<path id="Vector_3" d="M15.1768 5.76465H16.1177V6.7059H15.1768V5.76465Z" fill="black"/>
<path id="Vector_4" d="M14.2354 4.82349H15.1766V5.76474H14.2354V4.82349Z" fill="black"/>
<path id="Vector_5" d="M15.1768 3.88245H16.1177V4.82338H15.1768V3.88245Z" fill="black"/>
<path id="Vector_6" d="M16.1177 2.94128H17.0589V3.88253H16.1177V2.94128Z" fill="black"/>
<path id="Vector_7" d="M15.1768 2H16.1177V2.94125H15.1768V2Z" fill="black"/>
<path id="Vector_8" d="M14.2354 2.94128H15.1766V3.88253H14.2354V2.94128Z" fill="black"/>
<path id="Vector_9" d="M13.2939 3.88245H14.2352V4.82338H13.2939V3.88245Z" fill="black"/>
<path id="Vector_10" d="M4.82324 2H9.52918V2.94125H4.82324V2Z" fill="black"/>
<path id="Vector_11" d="M9.5293 2.94128H10.4705V3.88253H9.5293V2.94128Z" fill="black"/>
<path id="Vector_12" d="M10.4707 3.88245H11.412V4.82338H10.4707V3.88245Z" fill="black"/>
<path id="Vector_13" d="M4.82324 3.88245H9.52918V4.82338H4.82324V3.88245Z" fill="black"/>
<path id="Vector_14" d="M2.94141 3.88245H3.88266V4.82338H2.94141V3.88245Z" fill="black"/>
<path id="Vector_15" d="M3.88232 2.94128H4.82326V3.88253H3.88232V2.94128Z" fill="black"/>
<path id="Vector_16" d="M3.88232 4.82349H4.82326V18.0001H3.88232V4.82349Z" fill="black"/>
<path id="Vector_17" d="M2 4.82349H2.94125V18.0001H2V4.82349Z" fill="black"/>
<path id="Vector_18" d="M5.76465 16.1176H6.7059V17.0588H5.76465V16.1176Z" fill="black"/>
<path id="Vector_19" d="M6.70605 15.1765H7.64731V16.1175H6.70605V15.1765Z" fill="black"/>
<path id="Vector_20" d="M13.2938 15.1766V17.0588H12.3526V18H9.52914V17.0588H8.58789V15.1766H9.52914V14.2353H10.4704V13.2941H11.4116V14.2353H12.3526V15.1766H13.2938Z" fill="black"/>
<path id="Vector_21" d="M14.2354 17.0587H15.1766V18H14.2354V17.0587Z" fill="black"/>
<path id="Vector_22" d="M16.1177 14.2354H17.0589V15.1766H16.1177V14.2354Z" fill="black"/>
<path id="Vector_23" d="M15.1768 15.1765H16.1177V16.1175H15.1768V15.1765Z" fill="black"/>
<path id="Vector_24" d="M14.2354 14.2354H15.1766V15.1766H14.2354V14.2354Z" fill="black"/>
<path id="Vector_25" d="M15.1768 13.2941H16.1177V14.2353H15.1768V13.2941Z" fill="black"/>
<path id="Vector_26" d="M15.1768 10.4706H16.1177V11.4118H15.1768V10.4706Z" fill="black"/>
<path id="Vector_27" d="M6.70605 11.4119H15.1767V12.3528H6.70605V11.4119Z" fill="black"/>
<path id="Vector_28" d="M5.76465 10.4706H6.7059V11.4118H5.76465V10.4706Z" fill="black"/>
<path id="Vector_29" d="M7.64697 7.64722H8.58791V8.58815H7.64697V7.64722Z" fill="black"/>
<path id="Vector_30" d="M15.1767 8.58813V10.4706H6.70605V8.58813H7.64731V9.52938H14.2354V8.58813H15.1767Z" fill="black"/>
<path id="Vector_31" d="M13.2939 7.64722H14.2352V8.58815H13.2939V7.64722Z" fill="black"/>
<path id="Vector_32" d="M13.2938 6.70599V7.64724H8.58789V6.70599H9.52914V4.82349H10.4704V6.70599H11.4116V4.82349H12.3526V6.70599H13.2938Z" fill="black"/>
</g>
</g>
</svg>
