<svg width="20" height="20" viewBox="0 0 20 20" fill="none" xmlns="http://www.w3.org/2000/svg">
<g id="Bottle">
<g id="_x32_1_bottle_00000010995068638222560100000005482562446510899338_">
<path id="Vector" d="M8.58807 2H11.4118V2.94125H8.58807V2Z" fill="#333333"/>
<path id="Vector_2" d="M12.3528 2.94116V6.70585H11.4118V4.82335H8.58809V6.70585H7.64716V2.94116H8.58809V3.88241H11.4118V2.94116H12.3528Z" fill="#333333"/>
<path id="Vector_3" d="M12.3528 6.70605H13.294V7.64731H12.3528V6.70605Z" fill="#333333"/>
<path id="Vector_4" d="M13.294 7.64722H15.1765V8.58815H13.294V7.64722Z" fill="#333333"/>
<path id="Vector_5" d="M15.1765 8.58813H16.1175V10.4706H15.1765V8.58813Z" fill="#333333"/>
<path id="Vector_6" d="M16.1175 10.4707H17.0587V14.2354H16.1175V10.4707Z" fill="#333333"/>
<path id="Vector_7" d="M15.1765 14.2354H16.1175V16.1175H15.1765V14.2354Z" fill="#333333"/>
<path id="Vector_8" d="M14.2353 16.1174H15.1765V17.0587H14.2353V16.1174Z" fill="#333333"/>
<path id="Vector_9" d="M5.76465 17.0588H14.2353V18.0001H5.76465V17.0588Z" fill="#333333"/>
<path id="Vector_10" d="M4.82343 16.1174H5.76468V17.0587H4.82343V16.1174Z" fill="#333333"/>
<path id="Vector_11" d="M4.82338 14.2354H3.88245V15.1766V16.1175H4.82338V15.1766V14.2354Z" fill="#333333"/>
<path id="Vector_12" d="M2.94122 10.4707H3.88247V14.2354H2.94122V10.4707Z" fill="#333333"/>
<path id="Vector_13" d="M3.88245 8.58813H4.82338V10.4706H3.88245V8.58813Z" fill="#333333"/>
<path id="Vector_14" d="M6.70593 6.70605H7.64718V7.64731H6.70593V6.70605Z" fill="#333333"/>
<path id="Vector_15" d="M4.82343 7.64722H6.70593V8.58815H4.82343V7.64722Z" fill="#333333"/>
<path id="Vector_16" d="M13.2941 10.4705V12.3527H12.3528V13.294H11.4119V14.2352H10.4706V15.1765H9.52937V14.2352H8.58812V13.294H7.64718V12.3527H6.70593V10.4705H7.64718V9.5293H9.52937V10.4705H10.4706V9.5293H12.3528V10.4705H13.2941Z" fill="#333333"/>
</g>
</g>
</svg>
