<svg width="20" height="20" viewBox="0 0 20 20" fill="none" xmlns="http://www.w3.org/2000/svg">
<g id="Feed">
<g id="_x33_6_candy_00000023250833492445141670000012917452835211519908_">
<path id="Vector" d="M17.0586 4.82349H17.9998V6.70599H17.0586V4.82349Z" fill="black"/>
<path id="Vector_2" d="M17.0588 6.70593V7.64718H15.1766V10.4706H14.2354V6.70593H17.0588Z" fill="black"/>
<path id="Vector_3" d="M17.0589 3.88253V4.82347H15.1768V2.94128H16.1177V3.88253H17.0589Z" fill="black"/>
<path id="Vector_4" d="M14.2354 4.82349H15.1766V5.76474H14.2354V4.82349Z" fill="black"/>
<path id="Vector_5" d="M13.2939 2H15.1764V2.94125H13.2939V2Z" fill="black"/>
<path id="Vector_6" d="M13.2939 10.4706H14.2352V11.4118H13.2939V10.4706Z" fill="black"/>
<path id="Vector_7" d="M13.2939 5.76465H14.2352V6.7059H13.2939V5.76465Z" fill="black"/>
<path id="Vector_8" d="M12.353 11.4119H13.2943V12.3528H12.353V11.4119Z" fill="black"/>
<path id="Vector_9" d="M11.412 5.76472V12.3528H12.3529V13.2941H11.412V14.2353H10.4707V15.1766H7.64731V17.0588H6.70605V14.2353H8.58824V7.64722H7.64731V6.70597H8.58824V5.76472H9.52949V4.82347H12.3529V2.94128H13.2942V5.76472H11.412Z" fill="black"/>
<path id="Vector_10" d="M6.70605 7.64722H7.64731V8.58815H6.70605V7.64722Z" fill="black"/>
<path id="Vector_11" d="M5.76465 13.2941H6.7059V14.2353H5.76465V13.2941Z" fill="black"/>
<path id="Vector_12" d="M5.76465 8.58813H6.7059V9.52938H5.76465V8.58813Z" fill="black"/>
<path id="Vector_13" d="M4.82324 17.0587H6.70574V18H4.82324V17.0587Z" fill="black"/>
<path id="Vector_14" d="M4.82324 14.2354H5.76449V15.1766H4.82324V14.2354Z" fill="black"/>
<path id="Vector_15" d="M4.82359 15.1765V17.0587H3.88266V16.1175H2.94141V15.1765H4.82359Z" fill="black"/>
<path id="Vector_16" d="M5.76484 9.52942V13.2941H2.94141V12.3529H4.82359V9.52942H5.76484Z" fill="black"/>
<path id="Vector_17" d="M2 13.2941H2.94125V15.1766H2V13.2941Z" fill="black"/>
</g>
</g>
</svg>
