<svg width="20" height="20" viewBox="0 0 20 20" fill="none" xmlns="http://www.w3.org/2000/svg">
<g id="Poison">
<path id="Vector" d="M4.41455 2.80212H15.6146V4.40212H4.41455V2.80212Z" fill="black"/>
<path id="Vector_2" d="M9.21602 12.4021V15.602H7.61602V10.8022L4.41602 10.8021V12.4021H6.01602V17.202H9.21602V15.602L10.816 15.6021V12.4021H9.21602Z" fill="black"/>
<path id="Vector_3" d="M15.6162 4.42371H17.2162V10.8023H15.6162V4.42371Z" fill="black"/>
<path id="Vector_4" d="M4.41636 4.42358H2.81636C2.81788 6.54993 2.81483 8.67267 2.81636 10.799H4.41636C4.41483 8.67267 4.41788 6.54993 4.41636 4.42358Z" fill="black"/>
<path id="Vector_5" d="M7.61475 6.02368H9.21475V9.22272H7.61475V6.02368Z" fill="black"/>
<path id="Vector_6" d="M12.4159 10.8021V15.6021H10.8159V17.2021H14.0159V12.4021H15.6159V10.8021H12.4159Z" fill="black"/>
<path id="Vector_7" d="M10.8145 6.02466H12.4145V9.2237H10.8145V6.02466Z" fill="black"/>
</g>
</svg>
