<svg width="20" height="20" viewBox="0 0 20 20" fill="none" xmlns="http://www.w3.org/2000/svg">
<g id="Vibe">
<g id="Group">
<path id="Vector" d="M17.0586 15.1765H17.9998V17.0587H17.0586V15.1765Z" fill="black"/>
<path id="Vector_2" d="M16.1177 4.82349H17.0589V5.76474H16.1177V4.82349Z" fill="black"/>
<path id="Vector_3" d="M14.2354 17.0587H17.0588V18H14.2354V17.0587Z" fill="black"/>
<path id="Vector_4" d="M17.0585 15.1766V7.64718H16.1173V6.70593H10.4704V7.64718H9.52916V14.2353H7.64697V15.1766H10.4704V9.52937H16.1173V14.2353H14.2351V15.1766H17.0585Z" fill="black"/>
<path id="Vector_5" d="M14.2354 2.94128H15.1766V3.88253H14.2354V2.94128Z" fill="black"/>
<path id="Vector_6" d="M13.2939 15.1765H14.2352V17.0587H13.2939V15.1765Z" fill="black"/>
<path id="Vector_7" d="M13.2939 3.88245H14.2352V4.82338H13.2939V3.88245Z" fill="black"/>
<path id="Vector_8" d="M13.2939 2H14.2352V2.94125H13.2939V2Z" fill="black"/>
<path id="Vector_9" d="M12.353 11.4119H13.2943V12.3528H12.353V11.4119Z" fill="black"/>
<path id="Vector_10" d="M12.353 2.94128H13.2943V3.88253H12.353V2.94128Z" fill="black"/>
<path id="Vector_11" d="M10.4707 15.1765H11.412V17.0587H10.4707V15.1765Z" fill="black"/>
<path id="Vector_12" d="M10.4707 4.82349H11.412V5.76474H10.4707V4.82349Z" fill="black"/>
<path id="Vector_13" d="M7.64697 17.0587H10.4704V18H7.64697V17.0587Z" fill="black"/>
<path id="Vector_14" d="M6.70605 15.1765H7.64731V17.0587H6.70605V15.1765Z" fill="black"/>
<path id="Vector_15" d="M5.76465 10.4706H6.7059V12.3528H5.76465V10.4706Z" fill="black"/>
<path id="Vector_16" d="M3.88232 15.1765H4.82326V16.1175H3.88232V15.1765Z" fill="black"/>
<path id="Vector_17" d="M2.94141 12.3528H5.76484V13.294H2.94141V12.3528Z" fill="black"/>
<path id="Vector_18" d="M5.76484 10.4706V4.82344H8.58828V3.8825H9.52953V2.94125H8.58828V2H5.76484V2.94125H4.82359V9.52938H2.94141V10.4706H5.76484Z" fill="black"/>
<path id="Vector_19" d="M2 10.4706H2.94125V12.3528H2V10.4706Z" fill="black"/>
</g>
</g>
</svg>
